<?xml version="1.0" encoding="UTF-8" standalone="no" ?>
<!DOCTYPE svg PUBLIC "-//W3C//DTD SVG 1.1//EN" "http://www.w3.org/Graphics/SVG/1.1/DTD/svg11.dtd">
<svg xmlns="http://www.w3.org/2000/svg" xmlns:xlink="http://www.w3.org/1999/xlink" version="1.1" width="1000" height="1000" viewBox="0 0 1000 1000" xml:space="preserve">
<desc>Created with Fabric.js 5.2.4</desc>
<defs>
</defs>
<rect x="0" y="0" width="100%" height="100%" fill="transparent"></rect>
<g transform="matrix(1 0 0 1 500 500)" id="87990133-6bd2-461c-8f39-afeacfeda498"  >
<rect style="stroke: none; stroke-width: 1; stroke-dasharray: none; stroke-linecap: butt; stroke-dashoffset: 0; stroke-linejoin: miter; stroke-miterlimit: 4; fill: rgb(255,255,255); fill-rule: nonzero; opacity: 1;" vector-effect="non-scaling-stroke"  x="-500" y="-500" rx="0" ry="0" width="1000" height="1000" />
</g>
<g transform="matrix(Infinity NaN NaN Infinity 0 0)" id="0ab9183d-c869-4d41-8817-0a5871134b19"  >
</g>
<g transform="matrix(1.35 0 0 1.35 1261.74 500)"  >
<g style="" vector-effect="non-scaling-stroke"   >
		<g transform="matrix(2.6 0 0 2.6 387.24 237.64)"  >
<path style="stroke: none; stroke-width: 1; stroke-dasharray: none; stroke-linecap: butt; stroke-dashoffset: 0; stroke-linejoin: miter; stroke-miterlimit: 4; fill: rgb(252,184,19); fill-rule: nonzero; opacity: 1;" vector-effect="non-scaling-stroke"  transform=" translate(-502.51, -184.67)" d="M 345.181 182.758 L 659.845 182.758 L 659.845 186.573 L 345.18100000000004 186.573 z" stroke-linecap="round" />
</g>
		<g transform="matrix(2.6 0 0 2.6 -558.48 115.36)"  >
<circle style="stroke: none; stroke-width: 1; stroke-dasharray: none; stroke-linecap: butt; stroke-dashoffset: 0; stroke-linejoin: miter; stroke-miterlimit: 4; fill: none; fill-rule: nonzero; opacity: 1;" vector-effect="non-scaling-stroke"  cx="0" cy="0" r="0.418" />
</g>
		<g transform="matrix(2.6 0 0 2.6 -562.32 -72.71)"  >
<radialGradient id="SVGID_a_3" gradientUnits="userSpaceOnUse" gradientTransform="matrix(1 0 0 1 0 0)"  cx="137.378" cy="130.264" r="134.447" fx="137.378" fy="130.264">
<stop offset="0%" style="stop-color:rgb(255,255,255);stop-opacity: 1"/>
<stop offset="12.6%" style="stop-color:rgb(255,254,252);stop-opacity: 1"/>
<stop offset="23.7%" style="stop-color:rgb(255,250,241);stop-opacity: 1"/>
<stop offset="34.2%" style="stop-color:rgb(255,244,223);stop-opacity: 1"/>
<stop offset="44.3%" style="stop-color:rgb(255,235,198);stop-opacity: 1"/>
<stop offset="54.1%" style="stop-color:rgb(255,224,165);stop-opacity: 1"/>
<stop offset="60%" style="stop-color:rgb(255,216,142);stop-opacity: 1"/>
<stop offset="61.6%" style="stop-color:rgb(255,213,129);stop-opacity: 1"/>
<stop offset="66.3%" style="stop-color:rgb(254,204,95);stop-opacity: 1"/>
<stop offset="71.3%" style="stop-color:rgb(253,197,67);stop-opacity: 1"/>
<stop offset="76.7%" style="stop-color:rgb(253,191,46);stop-opacity: 1"/>
<stop offset="82.69999999999999%" style="stop-color:rgb(252,187,31);stop-opacity: 1"/>
<stop offset="89.7%" style="stop-color:rgb(252,185,22);stop-opacity: 1"/>
<stop offset="100%" style="stop-color:rgb(252,184,19);stop-opacity: 1"/>
</radialGradient>
<path style="stroke: none; stroke-width: 1; stroke-dasharray: none; stroke-linecap: butt; stroke-dashoffset: 0; stroke-linejoin: miter; stroke-miterlimit: 4; fill: url(#SVGID_a_3); fill-rule: nonzero; opacity: 1;" vector-effect="non-scaling-stroke"  transform=" translate(-137.38, -65.33)" d="M 271.827 106.235 C 257.585 45.347 202.95 0 137.72 0 C 71.392 0 16.016999999999996 46.888 2.930000000000007 109.324 L 32.01700000000001 92.752 L 48.05300000000001 103.978 C 48.05300000000001 103.978 57.43500000000001 99.732 59.40900000000001 98.485 L 71.00400000000002 110.705 C 71.00400000000002 110.705 96.17800000000003 130.655 96.91500000000002 130.655 C 97.65800000000002 130.655 119.13000000000002 118.191 119.13000000000002 118.191 L 138.38200000000003 104.967 L 155.15900000000005 117.189 L 167.74500000000006 119.68499999999999 L 180.57700000000006 128.41199999999998 C 180.57700000000006 128.41199999999998 211.67400000000006 107.70999999999998 216.61100000000005 105.22099999999998 C 216.61100000000005 105.22099999999998 230.18200000000004 110.20499999999997 231.41400000000004 109.96199999999997 C 232.64700000000005 109.70699999999998 253.87100000000004 93.24999999999997 253.87100000000004 93.24999999999997 z" stroke-linecap="round" />
</g>
		<g transform="matrix(2.6 0 0 2.6 -556.75 -154.97)"  >
<radialGradient id="SVGID_c_4" gradientUnits="userSpaceOnUse" gradientTransform="matrix(0.91 0 0 1 70.8 0)"  cx="73.233" cy="137.686" r="137.768" fx="73.233" fy="137.686">
<stop offset="53%" style="stop-color:rgb(255,255,255);stop-opacity: 1"/>
<stop offset="59.8%" style="stop-color:rgb(255,247,233);stop-opacity: 1"/>
<stop offset="74%" style="stop-color:rgb(255,227,176);stop-opacity: 1"/>
<stop offset="77%" style="stop-color:rgb(255,223,163);stop-opacity: 1"/>
<stop offset="80.4%" style="stop-color:rgb(255,217,145);stop-opacity: 1"/>
<stop offset="87.1%" style="stop-color:rgb(255,201,97);stop-opacity: 1"/>
<stop offset="88%" style="stop-color:rgb(255,199,90);stop-opacity: 1"/>
<stop offset="91%" style="stop-color:rgb(254,195,74);stop-opacity: 1"/>
<stop offset="96.6%" style="stop-color:rgb(253,190,50);stop-opacity: 1"/>
<stop offset="100%" style="stop-color:rgb(253,188,41);stop-opacity: 1"/>
</radialGradient>
<path style="stroke: none; stroke-width: 1; stroke-dasharray: none; stroke-linecap: butt; stroke-dashoffset: 0; stroke-linejoin: miter; stroke-miterlimit: 4; fill: url(#SVGID_c_4); fill-rule: nonzero; opacity: 1;" vector-effect="non-scaling-stroke"  transform=" translate(-139.52, -33.7)" d="M 139.052 67.228 C 140.373 67.228 141.769 67.261 143.072 67.332 L 147.972 0.3789999999999907 C 144.58800000000002 0.12899999999999068 141.17000000000002 -9.325873406851315e-15 137.72 -9.325873406851315e-15 C 135.49 -9.325873406851315e-15 133.272 0.05799999999999068 131.067 0.16199999999999068 L 134.335 67.39099999999999 C 135.9051104549691 67.28475901966121 137.47830109436512 67.23039606137809 139.05200000000002 67.22800000000001 z" stroke-linecap="round" />
</g>
		<g transform="matrix(2.6 0 0 2.6 -664.69 -137.39)"  >
<radialGradient id="SVGID_d_5" gradientUnits="userSpaceOnUse" gradientTransform="matrix(0.85 -0.34 0.37 0.93 164.21 339.67)"  cx="55.936" cy="-197.177" r="137.957" fx="55.936" fy="-197.177">
<stop offset="53%" style="stop-color:rgb(255,255,255);stop-opacity: 1"/>
<stop offset="59.8%" style="stop-color:rgb(255,247,233);stop-opacity: 1"/>
<stop offset="74%" style="stop-color:rgb(255,227,176);stop-opacity: 1"/>
<stop offset="77%" style="stop-color:rgb(255,223,163);stop-opacity: 1"/>
<stop offset="80.4%" style="stop-color:rgb(255,217,145);stop-opacity: 1"/>
<stop offset="87.1%" style="stop-color:rgb(255,201,97);stop-opacity: 1"/>
<stop offset="88%" style="stop-color:rgb(255,199,90);stop-opacity: 1"/>
<stop offset="91%" style="stop-color:rgb(254,195,74);stop-opacity: 1"/>
<stop offset="96.6%" style="stop-color:rgb(253,190,50);stop-opacity: 1"/>
<stop offset="100%" style="stop-color:rgb(253,188,41);stop-opacity: 1"/>
</radialGradient>
<path style="stroke: none; stroke-width: 1; stroke-dasharray: none; stroke-linecap: butt; stroke-dashoffset: 0; stroke-linejoin: miter; stroke-miterlimit: 4; fill: url(#SVGID_d_5); fill-rule: nonzero; opacity: 1;" vector-effect="non-scaling-stroke"  transform=" translate(-98.01, -40.46)" d="M 116.206 71.055 L 95.523 6.5930000000000035 C 90.16762660611259 8.316265643077921 84.9233811017231 10.367475977915866 79.82 12.735 L 108.262 74.321 C 110.84121660831893 73.0720161298082 113.49413098466525 71.98132902593774 116.206 71.055 z" stroke-linecap="round" />
</g>
		<g transform="matrix(2.6 0 0 2.6 -749.55 -84.02)"  >
<radialGradient id="SVGID_e_6" gradientUnits="userSpaceOnUse" gradientTransform="matrix(0.66 -0.64 0.69 0.72 374.92 610.52)"  cx="172.672" cy="-504.873" r="137.985" fx="172.672" fy="-504.873">
<stop offset="53%" style="stop-color:rgb(255,255,255);stop-opacity: 1"/>
<stop offset="59.8%" style="stop-color:rgb(255,247,233);stop-opacity: 1"/>
<stop offset="74%" style="stop-color:rgb(255,227,176);stop-opacity: 1"/>
<stop offset="77%" style="stop-color:rgb(255,223,163);stop-opacity: 1"/>
<stop offset="80.4%" style="stop-color:rgb(255,217,145);stop-opacity: 1"/>
<stop offset="87.1%" style="stop-color:rgb(255,201,97);stop-opacity: 1"/>
<stop offset="88%" style="stop-color:rgb(255,199,90);stop-opacity: 1"/>
<stop offset="91%" style="stop-color:rgb(254,195,74);stop-opacity: 1"/>
<stop offset="96.6%" style="stop-color:rgb(253,190,50);stop-opacity: 1"/>
<stop offset="100%" style="stop-color:rgb(253,188,41);stop-opacity: 1"/>
</radialGradient>
<path style="stroke: none; stroke-width: 1; stroke-dasharray: none; stroke-linecap: butt; stroke-dashoffset: 0; stroke-linejoin: miter; stroke-miterlimit: 4; fill: url(#SVGID_e_6); fill-rule: nonzero; opacity: 1;" vector-effect="non-scaling-stroke"  transform=" translate(-65.38, -60.98)" d="M 93.373 84.155 L 49.730000000000004 31.775 C 45.385110646836594 35.38983956657677 41.26479107981024 39.266373002631425 37.39200000000001 43.38300000000003 L 87.164 90.185 C 89.11158984987168 88.0530032371347 91.18495882544082 86.0394076625362 93.37299999999996 84.15500000000003 z" stroke-linecap="round" />
</g>
		<g transform="matrix(2.6 0 0 2.6 -806.78 -3.51)"  >
<radialGradient id="SVGID_f_7" gradientUnits="userSpaceOnUse" gradientTransform="matrix(1 0 0 1 0 0)"  cx="137.773" cy="137.69" r="137.876" fx="137.773" fy="137.69">
<stop offset="53%" style="stop-color:rgb(255,255,255);stop-opacity: 1"/>
<stop offset="59.8%" style="stop-color:rgb(255,247,233);stop-opacity: 1"/>
<stop offset="74%" style="stop-color:rgb(255,227,176);stop-opacity: 1"/>
<stop offset="77%" style="stop-color:rgb(255,223,163);stop-opacity: 1"/>
<stop offset="80.4%" style="stop-color:rgb(255,217,145);stop-opacity: 1"/>
<stop offset="87.1%" style="stop-color:rgb(255,201,97);stop-opacity: 1"/>
<stop offset="88%" style="stop-color:rgb(255,199,90);stop-opacity: 1"/>
<stop offset="91%" style="stop-color:rgb(254,195,74);stop-opacity: 1"/>
<stop offset="96.6%" style="stop-color:rgb(253,190,50);stop-opacity: 1"/>
<stop offset="100%" style="stop-color:rgb(253,188,41);stop-opacity: 1"/>
</radialGradient>
<path style="stroke: none; stroke-width: 1; stroke-dasharray: none; stroke-linecap: butt; stroke-dashoffset: 0; stroke-linejoin: miter; stroke-miterlimit: 4; fill: url(#SVGID_f_7); fill-rule: nonzero; opacity: 1;" vector-effect="non-scaling-stroke"  transform=" translate(-43.38, -91.94)" d="M 77.174 104.239 L 16.74300000000001 71.856 C 14.44700000000001 75.969 11.13000000000001 83.008 9.57900000000001 87.157 L 73.68900000000001 112.02 C 74.70100000000001 109.369 75.86000000000001 106.729 77.174 104.23899999999999 z" stroke-linecap="round" />
</g>
		<g transform="matrix(2.6 0 0 2.6 -451.72 -136.31)"  >
<radialGradient id="SVGID_g_8" gradientUnits="userSpaceOnUse" gradientTransform="matrix(0.85 0.34 -0.37 0.93 111.75 -353.18)"  cx="227.458" cy="445.356" r="137.845" fx="227.458" fy="445.356">
<stop offset="53%" style="stop-color:rgb(255,255,255);stop-opacity: 1"/>
<stop offset="59.8%" style="stop-color:rgb(255,247,233);stop-opacity: 1"/>
<stop offset="74%" style="stop-color:rgb(255,227,176);stop-opacity: 1"/>
<stop offset="77%" style="stop-color:rgb(255,223,163);stop-opacity: 1"/>
<stop offset="80.4%" style="stop-color:rgb(255,217,145);stop-opacity: 1"/>
<stop offset="87.1%" style="stop-color:rgb(255,201,97);stop-opacity: 1"/>
<stop offset="88%" style="stop-color:rgb(255,199,90);stop-opacity: 1"/>
<stop offset="91%" style="stop-color:rgb(254,195,74);stop-opacity: 1"/>
<stop offset="96.6%" style="stop-color:rgb(253,190,50);stop-opacity: 1"/>
<stop offset="100%" style="stop-color:rgb(253,188,41);stop-opacity: 1"/>
</radialGradient>
<path style="stroke: none; stroke-width: 1; stroke-dasharray: none; stroke-linecap: butt; stroke-dashoffset: 0; stroke-linejoin: miter; stroke-miterlimit: 4; fill: url(#SVGID_g_8); fill-rule: nonzero; opacity: 1;" vector-effect="non-scaling-stroke"  transform=" translate(-179.91, -40.87)" d="M 169.293 74.083 L 198.715 14.219000000000001 C 193.64877987416054 11.71219459693396 188.4321210770408 9.521665464391837 183.09500000000003 7.660000000000032 L 161.097 70.768 C 163.89397979482203 71.70500538692868 166.63108166026817 72.81206891596162 169.29300000000003 74.08300000000001 z" stroke-linecap="round" />
</g>
		<g transform="matrix(2.6 0 0 2.6 -368.04 -82.11)"  >
<radialGradient id="SVGID_h_9" gradientUnits="userSpaceOnUse" gradientTransform="matrix(0.66 0.64 -0.69 0.72 284.75 -673.24)"  cx="500.451" cy="685.441" r="137.538" fx="500.451" fy="685.441">
<stop offset="53%" style="stop-color:rgb(255,255,255);stop-opacity: 1"/>
<stop offset="59.8%" style="stop-color:rgb(255,247,233);stop-opacity: 1"/>
<stop offset="74%" style="stop-color:rgb(255,227,176);stop-opacity: 1"/>
<stop offset="77%" style="stop-color:rgb(255,223,163);stop-opacity: 1"/>
<stop offset="80.4%" style="stop-color:rgb(255,217,145);stop-opacity: 1"/>
<stop offset="87.1%" style="stop-color:rgb(255,201,97);stop-opacity: 1"/>
<stop offset="88%" style="stop-color:rgb(255,199,90);stop-opacity: 1"/>
<stop offset="91%" style="stop-color:rgb(254,195,74);stop-opacity: 1"/>
<stop offset="96.6%" style="stop-color:rgb(253,190,50);stop-opacity: 1"/>
<stop offset="100%" style="stop-color:rgb(253,188,41);stop-opacity: 1"/>
</radialGradient>
<path style="stroke: none; stroke-width: 1; stroke-dasharray: none; stroke-linecap: butt; stroke-dashoffset: 0; stroke-linejoin: miter; stroke-miterlimit: 4; fill: url(#SVGID_h_9); fill-rule: nonzero; opacity: 1;" vector-effect="non-scaling-stroke"  transform=" translate(-212.09, -61.71)" d="M 190.456 89.712 L 239.968 45.462 C 236.21872966730322 41.3090013423478 232.22176931173254 37.38651021221717 227.99899999999997 33.71599999999995 L 184.204 83.67500000000001 C 186.40957794968335 85.55749583398287 188.49750525192627 87.5736214135799 190.45599999999996 89.71199999999997 z" stroke-linecap="round" />
</g>
		<g transform="matrix(2.6 0 0 2.6 -311.05 0.72)"  >
<radialGradient id="SVGID_i_10" gradientUnits="userSpaceOnUse" gradientTransform="matrix(0.37 0.84 -0.91 0.41 568.1 -905.15)"  cx="850.423" cy="817.296" r="137.358" fx="850.423" fy="817.296">
<stop offset="53%" style="stop-color:rgb(255,255,255);stop-opacity: 1"/>
<stop offset="59.8%" style="stop-color:rgb(255,247,233);stop-opacity: 1"/>
<stop offset="74%" style="stop-color:rgb(255,227,176);stop-opacity: 1"/>
<stop offset="77%" style="stop-color:rgb(255,223,163);stop-opacity: 1"/>
<stop offset="80.4%" style="stop-color:rgb(255,217,145);stop-opacity: 1"/>
<stop offset="87.1%" style="stop-color:rgb(255,201,97);stop-opacity: 1"/>
<stop offset="88%" style="stop-color:rgb(255,199,90);stop-opacity: 1"/>
<stop offset="91%" style="stop-color:rgb(254,195,74);stop-opacity: 1"/>
<stop offset="96.6%" style="stop-color:rgb(253,190,50);stop-opacity: 1"/>
<stop offset="100%" style="stop-color:rgb(253,188,41);stop-opacity: 1"/>
</radialGradient>
<path style="stroke: none; stroke-width: 1; stroke-dasharray: none; stroke-linecap: butt; stroke-dashoffset: 0; stroke-linejoin: miter; stroke-miterlimit: 4; fill: url(#SVGID_i_10); fill-rule: nonzero; opacity: 1;" vector-effect="non-scaling-stroke"  transform=" translate(-234, -93.56)" d="M 204.582 112.424 L 266.94599999999997 90.00900000000001 C 265.0136084910166 84.77335033470824 262.7620517766897 79.661094300458 260.20399999999995 74.70100000000008 L 201.04999999999995 104.55200000000002 C 202.37899999999996 107.11100000000002 203.56899999999996 109.69100000000002 204.58199999999997 112.42400000000002 z" stroke-linecap="round" />
</g>
		<g transform="matrix(2.6 0 0 2.6 -558.92 -58.58)"  >
<radialGradient id="SVGID_j_11" gradientUnits="userSpaceOnUse" gradientTransform="matrix(1 0 0 1 0 0)"  cx="137.499" cy="137.734" r="137.794" fx="137.499" fy="137.734">
<stop offset="72%" style="stop-color:rgb(255,255,255);stop-opacity: 1"/>
<stop offset="80.9%" style="stop-color:rgb(255,248,237);stop-opacity: 1"/>
<stop offset="98.6%" style="stop-color:rgb(255,230,189);stop-opacity: 1"/>
<stop offset="100%" style="stop-color:rgb(255,229,185);stop-opacity: 1"/>
</radialGradient>
<path style="stroke: none; stroke-width: 1; stroke-dasharray: none; stroke-linecap: butt; stroke-dashoffset: 0; stroke-linejoin: miter; stroke-miterlimit: 4; fill: url(#SVGID_j_11); fill-rule: nonzero; opacity: 1;" vector-effect="non-scaling-stroke"  transform=" translate(-138.69, -70.76)" d="M 119.13 118.191 L 138.382 104.967 L 155.159 117.189 L 167.745 119.68499999999999 L 180.577 128.41199999999998 C 180.577 128.41199999999998 194.573 119.09699999999998 205.274 112.21199999999997 C 203.4402020881468 107.37936604798311 201.08069657476878 102.76297137811926 198.238 98.44599999999997 L 244.696 62.48199999999997 L 195.308 94.32099999999997 C 190.86511272622053 88.52310803117238 185.55787621173056 83.44217780171182 179.572 79.25599999999997 L 208.692 29.328999999999972 L 175.394 76.54899999999998 C 169.1018213758327 72.77499556779885 162.25813664201664 70.00823449609881 155.11099999999996 68.34899999999996 L 163.44799999999998 10.869999999999976 L 150.2 67.39599999999999 C 146.51249288669396 66.81415840251434 142.78512844616282 66.52159974755696 139.052 66.52099999999999 C 135.011 66.52099999999999 131.051 66.86299999999999 127.198 67.51299999999999 L 113.92099999999999 10.870999999999988 L 122.28299999999999 68.52099999999999 C 115.19529721914428 70.24326646796389 108.41792722146944 73.05541959392792 102.19299999999998 76.857 L 68.67599999999999 29.329999999999984 L 98.00899999999999 79.61999999999998 C 92.12511651747676 83.81197553873855 86.91374037614958 88.8753222963037 82.554 94.63599999999997 L 32.67599999999999 62.48199999999998 L 79.61399999999999 98.82199999999997 C 76.89145033256928 103.0146205192246 74.6207763392099 107.48389957937526 72.83999999999997 112.155 C 78.63999999999999 116.73999999999997 96.30099999999999 130.65499999999997 96.91499999999999 130.65499999999997 C 97.65799999999999 130.65499999999997 119.13 118.19099999999997 119.13 118.19099999999997 z" stroke-linecap="round" />
</g>
		<g transform="matrix(2.6 0 0 2.6 0 42.88)"  >
<path style="stroke: none; stroke-width: 1; stroke-dasharray: none; stroke-linecap: butt; stroke-dashoffset: 0; stroke-linejoin: miter; stroke-miterlimit: 4; fill: rgb(0,75,141); fill-rule: nonzero; opacity: 1;" vector-effect="non-scaling-stroke"  transform=" translate(-353.61, -109.77)" d="M 271.592 105.311 L 253.87099999999998 92.486 C 253.87099999999998 92.486 232.647 108.946 231.414 109.19500000000001 C 230.182 109.44500000000001 216.611 104.456 216.611 104.456 C 211.673 106.95100000000001 180.577 127.65100000000001 180.577 127.65100000000001 L 167.745 118.91900000000001 L 155.159 116.42900000000002 L 138.382 104.20900000000002 L 119.13000000000001 117.42500000000001 C 119.13000000000001 117.42500000000001 97.65800000000002 129.895 96.915 129.895 C 96.17800000000001 129.895 71.004 109.94200000000001 71.004 109.94200000000001 L 59.409000000000006 97.72200000000001 C 57.434000000000005 98.97000000000001 48.053000000000004 103.21300000000001 48.053000000000004 103.21300000000001 L 32.017 91.98800000000001 L 3.1280000000000037 108.44800000000001 C 1.046292624833224 118.06650219611109 -0.002319291403242829 127.87980674342259 1.7763568394002505e-14 137.721 C 3.552713678800501e-15 146.522 0.8360000000000035 155.132 2.4140000000000037 163.475 C 14.516000000000004 161.26999999999998 36.586 158.137 54.842 160.441 C 81.494 163.811 98.151 168.298 126.285 174.65800000000002 C 154.416 181.01600000000002 175.15 187.00500000000002 205.50099999999998 183.63500000000002 C 233.914 180.48800000000003 254.54399999999998 174.70800000000003 273.45599999999996 161.09300000000002 C 274.77570833445503 153.37264645310287 275.4387476210091 145.55433607668752 275.438 137.72200000000004 C 275.44420342312503 126.80413892709603 274.1531538456395 115.92420968739691 271.592 105.31099999999998 z M 353.25 46.422000000000004 C 353.25 40.035000000000004 352.8 38.342000000000006 348.488 37.996 L 345.489 37.789 C 345 37.401 345.138 35.671 345.585 35.631 C 350.756 35.17 357.274 34.941 366.18399999999997 34.941 C 372.21999999999997 34.941 377.969 35.373000000000005 382.282 37.358000000000004 C 386.40099999999995 39.17100000000001 389.563 42.623000000000005 389.563 48.147000000000006 C 389.563 54.36300000000001 385.538 57.557 379.78999999999996 59.973000000000006 C 379.78999999999996 60.83500000000001 380.55799999999994 61.096000000000004 381.60999999999996 61.267 C 386.78399999999993 62.132000000000005 394.448 66.447 394.448 75.683 C 394.448 85.69600000000001 386.21 92.429 368.96299999999997 92.429 C 366.18499999999995 92.429 361.48999999999995 92.169 357.46599999999995 92.169 C 353.24999999999994 92.169 349.99299999999994 92.344 346.44699999999995 92.429 C 345.87199999999996 92.169 345.67999999999995 90.789 346.256 90.27 L 347.981 90.011 C 353.058 89.234 353.25 88.285 353.25 79.222 z M 361.106 57.901 C 361.106 60.319 361.202 60.491 366.088 60.319 C 375.85900000000004 59.973000000000006 381.13100000000003 57.382000000000005 381.13100000000003 49.27 C 381.13100000000003 40.81100000000001 374.13500000000005 37.617000000000004 366.85600000000005 37.617000000000004 C 364.74700000000007 37.617000000000004 363.309 37.790000000000006 362.44800000000004 38.135000000000005 C 361.49 38.394000000000005 361.10600000000005 38.827000000000005 361.10600000000005 40.37800000000001 z M 361.106 77.927 C 361.106 81.03500000000001 361.29699999999997 85.436 363.118 87.33600000000001 C 364.939 89.32100000000001 367.814 89.75200000000001 370.688 89.75200000000001 C 379.214 89.75200000000001 385.729 86.30000000000001 385.729 77.66900000000001 C 385.729 70.85000000000001 381.897 62.908000000000015 366.664 62.908000000000015 C 361.49 62.908000000000015 361.106 63.426000000000016 361.106 65.15200000000002 z M 461.04200000000003 54.918000000000006 C 461.04200000000003 47.10300000000001 460.87800000000004 45.85000000000001 456.05 45.482000000000006 L 454.003 45.334 C 453.51099999999997 45.039 453.67699999999996 43.711000000000006 454.167 43.49 C 458.25899999999996 43.637 461.042 43.712 464.47799999999995 43.712 C 467.75299999999993 43.712 470.53499999999997 43.637 474.626 43.49 C 475.118 43.712 475.28 45.039 474.78999999999996 45.334 L 472.74499999999995 45.482000000000006 C 467.91499999999996 45.85000000000001 467.75299999999993 47.10300000000001 467.75299999999993 54.918000000000006 L 467.75299999999993 81.167 C 467.75299999999993 88.982 467.9149999999999 90.015 472.74499999999995 90.531 L 474.78999999999996 90.751 C 475.28 91.046 475.11799999999994 92.372 474.626 92.59400000000001 C 470.534 92.44600000000001 467.753 92.37100000000001 464.47799999999995 92.37100000000001 C 461.042 92.37100000000001 458.25899999999996 92.44600000000001 454.167 92.59400000000001 C 453.67699999999996 92.37100000000001 453.51099999999997 91.19300000000001 454.003 90.751 L 456.05 90.531 C 460.878 90.01400000000001 461.04200000000003 88.982 461.04200000000003 81.167 z M 506.444 81.31400000000001 C 506.444 89.055 506.596 90.161 511.046 90.53 L 513.499 90.75 C 513.958 91.045 513.806 92.371 513.347 92.593 C 508.976 92.44500000000001 506.368 92.37 503.29999999999995 92.37 C 500.234 92.37 497.54999999999995 92.44500000000001 492.64399999999995 92.593 C 492.18299999999994 92.37 492.02899999999994 91.119 492.64399999999995 90.75 L 495.40399999999994 90.53 C 499.7749999999999 90.16 500.15599999999995 89.054 500.15599999999995 81.31400000000001 L 500.15599999999995 48.355000000000004 C 500.15599999999995 46.07000000000001 500.15599999999995 45.998000000000005 497.85699999999997 45.998000000000005 L 493.64 45.998000000000005 C 490.34299999999996 45.998000000000005 486.126 46.145 484.20799999999997 47.84 C 482.368 49.463 481.60099999999994 51.085 480.75899999999996 52.92700000000001 C 480.14399999999995 53.370000000000005 479.07099999999997 53.001000000000005 478.76499999999993 52.41100000000001 C 479.98999999999995 49.09400000000001 481.14199999999994 44.37500000000001 481.6769999999999 41.42600000000001 C 481.90899999999993 41.27900000000001 482.9059999999999 41.20500000000001 483.1339999999999 41.42600000000001 C 483.5949999999999 43.784000000000006 486.1259999999999 43.71100000000001 489.6539999999999 43.71100000000001 L 520.7069999999999 43.71100000000001 C 524.8479999999998 43.71100000000001 525.5369999999999 43.564000000000014 526.6869999999999 41.64800000000001 C 527.0719999999999 41.50000000000001 527.9159999999999 41.57400000000001 528.0679999999999 41.86800000000001 C 527.2239999999998 44.89200000000001 526.6869999999999 50.86400000000001 526.9179999999999 53.07600000000001 C 526.6109999999999 53.66600000000001 525.3089999999999 53.66600000000001 524.9259999999999 53.22400000000001 C 524.6959999999999 51.37900000000001 524.1579999999999 48.65200000000001 523.0079999999999 47.84100000000001 C 521.2439999999999 46.58700000000001 518.3319999999999 45.99900000000001 514.1129999999999 45.99900000000001 L 508.66999999999996 45.99900000000001 C 506.36899999999997 45.99900000000001 506.44499999999994 46.07200000000001 506.44499999999994 48.50400000000001 L 506.44499999999994 81.31400000000002 z M 539.309 54.918000000000006 C 539.309 47.10300000000001 539.145 45.85000000000001 534.317 45.482000000000006 L 532.27 45.334 C 531.78 45.039 531.944 43.711000000000006 532.434 43.49 C 536.526 43.637 539.309 43.712 542.746 43.712 C 546.019 43.712 548.8009999999999 43.637 552.8919999999999 43.49 C 553.3839999999999 43.712 553.5479999999999 45.039 553.058 45.334 L 551.009 45.482000000000006 C 546.181 45.85000000000001 546.019 47.10300000000001 546.019 54.918000000000006 L 546.019 81.167 C 546.019 88.982 546.181 90.015 551.009 90.531 L 553.058 90.751 C 553.548 91.046 553.384 92.372 552.8919999999999 92.59400000000001 C 548.8 92.44600000000001 546.0189999999999 92.37100000000001 542.746 92.37100000000001 C 539.308 92.37100000000001 536.525 92.44600000000001 532.434 92.59400000000001 C 531.944 92.37100000000001 531.78 91.19300000000001 532.27 90.751 L 534.317 90.531 C 539.145 90.01400000000001 539.309 88.982 539.309 81.167 z M 575.983 93.349 C 568.674 93.349 564.063 91.432 562.411 90.622 C 561.366 88.999 560.2349999999999 83.765 560.0609999999999 80.299 C 560.497 79.78200000000001 561.8009999999999 79.635 562.1489999999999 80.07700000000001 C 563.4559999999999 83.83800000000001 567.0219999999999 91.06200000000001 577.1139999999999 91.06200000000001 C 584.4229999999999 91.06200000000001 587.9889999999999 87.007 587.9889999999999 82.58300000000001 C 587.9889999999999 79.34000000000002 587.2059999999999 75.72800000000001 580.8539999999999 72.26100000000001 L 572.5899999999999 67.68900000000001 C 568.2399999999999 65.256 563.194 61.05400000000001 563.194 55.00800000000001 C 563.194 48.00400000000001 569.632 42.32600000000001 580.942 42.32600000000001 C 583.6370000000001 42.32600000000001 586.77 42.769000000000005 589.032 43.28500000000001 C 590.163 43.58000000000001 591.3820000000001 43.72700000000001 592.077 43.72700000000001 C 592.86 45.49800000000001 593.645 49.62600000000001 593.645 52.72300000000001 C 593.295 53.16600000000001 591.903 53.38600000000001 591.4689999999999 52.94400000000001 C 590.338 49.40600000000001 587.9889999999999 44.613000000000014 579.637 44.613000000000014 C 571.1099999999999 44.613000000000014 569.2829999999999 49.40600000000001 569.2829999999999 52.796000000000014 C 569.2829999999999 57.073000000000015 573.459 60.171000000000014 576.6779999999999 61.865000000000016 L 583.6369999999998 65.55100000000002 C 589.1189999999998 68.42600000000002 594.5139999999998 72.70200000000001 594.5139999999998 79.70800000000001 C 594.5139999999998 87.81900000000002 587.2929999999998 93.34900000000002 575.9829999999998 93.34900000000002 z M 619.7719999999999 68.558 C 615.9649999999999 68.558 615.8069999999999 68.70500000000001 615.8069999999999 70.917 L 615.8069999999999 81.31400000000001 C 615.8069999999999 89.055 616.2029999999999 90.087 620.6469999999999 90.53 L 622.9459999999999 90.75 C 623.4229999999999 91.045 623.2639999999999 92.371 622.7879999999999 92.593 C 618.5049999999999 92.44500000000001 615.8079999999999 92.37 612.7119999999999 92.37 C 609.2999999999998 92.37 606.6029999999998 92.518 603.5089999999999 92.593 C 603.0339999999999 92.37 602.8739999999999 91.19200000000001 603.3509999999999 90.75 L 604.6989999999998 90.53 C 609.1439999999999 89.792 609.3009999999998 89.054 609.3009999999998 81.31400000000001 L 609.3009999999998 54.77100000000001 C 609.3009999999998 47.02900000000001 608.7479999999998 45.77700000000001 604.6209999999999 45.482000000000006 L 602.5589999999999 45.334 C 602.0819999999999 45.039 602.2409999999999 43.711000000000006 602.7169999999999 43.49 C 606.6039999999998 43.565000000000005 609.3009999999998 43.712 612.7129999999999 43.712 C 615.8089999999999 43.712 618.5059999999999 43.637 621.9159999999998 43.49 C 622.3929999999998 43.712 622.5509999999998 45.039 622.0759999999998 45.334 L 620.5659999999998 45.482000000000006 C 615.9659999999998 45.92400000000001 615.8079999999998 47.029 615.8079999999998 54.77100000000001 L 615.8079999999998 63.25000000000001 C 615.8079999999998 65.53500000000001 615.9659999999998 65.60900000000001 619.7729999999998 65.60900000000001 L 642.4639999999998 65.60900000000001 C 646.2729999999998 65.60900000000001 646.4309999999998 65.534 646.4309999999998 63.25000000000001 L 646.4309999999998 54.77100000000001 C 646.4309999999998 47.02900000000001 646.2729999999998 45.92400000000001 641.5929999999998 45.482000000000006 L 640.0849999999998 45.334 C 639.6079999999998 45.039 639.7669999999998 43.711000000000006 640.2429999999998 43.49 C 643.8929999999998 43.637 646.5909999999998 43.712 649.8429999999998 43.712 C 652.9369999999999 43.712 655.6339999999999 43.637 659.2039999999998 43.49 C 659.6809999999998 43.712 659.8389999999998 45.039 659.3619999999999 45.334 L 657.6979999999999 45.482000000000006 C 653.0959999999999 45.92400000000001 652.9359999999999 47.029 652.9359999999999 54.77100000000001 L 652.9359999999999 81.31400000000001 C 652.9359999999999 89.055 653.0959999999999 90.01400000000001 657.6979999999999 90.53 L 659.6019999999999 90.75 C 660.0769999999999 91.045 659.9179999999999 92.371 659.4439999999998 92.593 C 655.6329999999998 92.44500000000001 652.9359999999998 92.37 649.8419999999999 92.37 C 646.5899999999999 92.37 643.7329999999998 92.44500000000001 640.2419999999998 92.593 C 639.7649999999999 92.37 639.6069999999999 91.19200000000001 640.0839999999998 90.75 L 641.5919999999999 90.53 C 646.4299999999998 89.792 646.4299999999998 89.054 646.4299999999998 81.31400000000001 L 646.4299999999998 70.917 C 646.4299999999998 68.705 646.2719999999998 68.558 642.4629999999999 68.558 z M 307.84299999999996 108.79400000000001 C 314.364 103.721 322.67199999999997 101.22900000000001 331.96299999999997 101.22900000000001 C 336.78599999999994 101.22900000000001 343.575 102.20800000000001 347.775 103.36600000000001 C 348.847 103.63300000000001 349.472 103.811 350.27599999999995 103.72100000000002 C 350.36499999999995 105.76900000000002 350.81199999999995 111.37500000000001 351.52599999999995 116.80600000000001 C 351.0799999999999 117.42900000000002 349.73999999999995 117.519 349.11499999999995 116.98600000000002 C 347.775 110.93200000000002 343.75499999999994 103.98800000000001 330.80199999999996 103.98800000000001 C 317.13399999999996 103.98800000000001 305.52099999999996 112.62400000000001 305.52099999999996 131.05 C 305.52099999999996 149.74300000000002 317.40199999999993 160.07100000000003 332.05199999999996 160.07100000000003 C 343.575 160.07100000000003 348.66799999999995 152.592 350.722 147.34000000000003 C 351.34799999999996 146.89700000000002 352.68899999999996 147.07300000000004 353.044 147.69700000000003 C 352.41999999999996 152.32600000000002 350.096 158.20000000000005 348.756 159.89200000000002 C 347.68399999999997 160.07100000000003 346.61199999999997 160.42600000000002 345.63 160.78100000000003 C 343.664 161.49600000000004 337.233 162.83000000000004 331.515 162.83000000000004 C 323.47499999999997 162.83000000000004 315.793 161.22800000000004 309.272 156.86500000000004 C 302.125 151.96900000000005 296.586 143.87100000000004 296.586 132.38700000000003 C 296.586 122.50300000000003 301.05400000000003 114.04700000000003 307.843 108.79400000000003 z M 356.69899999999996 137.58800000000002 C 356.69899999999996 122.84200000000003 368.311 111.56200000000003 384.25999999999993 111.56200000000003 C 402.14199999999994 111.56200000000003 411.12199999999996 123.87400000000002 411.12199999999996 136.85100000000003 C 411.12199999999996 151.74600000000004 399.19999999999993 162.58300000000003 384.25999999999993 162.58300000000003 C 367.07399999999996 162.58300000000003 356.69899999999996 150.85800000000003 356.69899999999996 137.58800000000002 z M 403.37899999999996 139.13700000000003 C 403.37899999999996 126.97100000000003 397.729 113.84700000000004 382.94199999999995 113.84700000000004 C 374.88999999999993 113.84700000000004 364.43999999999994 119.08200000000004 364.43999999999994 135.23000000000005 C 364.43999999999994 146.14100000000005 370.0129999999999 160.29800000000006 385.2629999999999 160.29800000000006 C 394.5549999999999 160.29800000000006 403.3789999999999 153.66200000000006 403.3789999999999 139.13700000000006 z M 498.46099999999996 131.24800000000002 C 498.46099999999996 126.67700000000002 498.30499999999995 118.19600000000003 496.97499999999997 115.98600000000002 C 496.42799999999994 115.10000000000002 495.022 114.58400000000002 493.06899999999996 114.43600000000002 L 491.116 114.28900000000002 C 490.647 113.77300000000001 490.80199999999996 112.81500000000001 491.27 112.51800000000001 C 494.241 112.66500000000002 497.133 112.74100000000001 500.18 112.74100000000001 C 503.463 112.74100000000001 505.575 112.66600000000001 508.387 112.52100000000002 C 509.012 112.88900000000001 508.934 113.84600000000002 508.543 114.28900000000002 L 506.666 114.43600000000002 C 504.713 114.58300000000003 503.227 115.24800000000002 502.76 116.20700000000002 C 501.666 118.63900000000002 501.666 127.11900000000003 501.666 131.24800000000002 L 501.666 139.579 C 501.666 145.995 500.57 152.77700000000002 496.195 157.20000000000002 C 492.834 160.66600000000003 487.05 162.58300000000003 481.267 162.58300000000003 C 475.874 162.58300000000003 470.48199999999997 161.62400000000002 466.652 158.52800000000002 C 462.509 155.28500000000003 460.556 149.90200000000002 460.556 141.12900000000002 L 460.556 123.72700000000002 C 460.556 116.06000000000002 460.4 114.80600000000001 455.868 114.43700000000001 L 453.913 114.29 C 453.444 113.995 453.599 112.74300000000001 454.067 112.519 C 457.97700000000003 112.66600000000001 460.633 112.742 463.76 112.742 C 466.96299999999997 112.742 469.543 112.667 473.371 112.522 C 473.84 112.74300000000001 473.998 113.995 473.529 114.29 L 471.652 114.43700000000001 C 467.11899999999997 114.80600000000001 466.96299999999997 116.06000000000002 466.96299999999997 123.727 L 466.96299999999997 139.654 C 466.96299999999997 151.524 470.871 159.341 482.828 159.341 C 494.15999999999997 159.341 498.45899999999995 150.934 498.45899999999995 139.73000000000002 L 498.45899999999995 131.24800000000002 z M 589.299 122.03800000000001 C 589.299 116.52600000000001 588.953 115.11100000000002 585.067 114.81400000000001 L 582.301 114.545 C 581.9870000000001 114.261 581.8190000000001 112.769 582.3870000000001 112.727 C 587.0530000000001 112.378 592.926 112.13300000000001 600.961 112.13300000000001 C 606.402 112.13300000000001 611.5840000000001 112.50500000000001 615.473 114.21600000000001 C 619.188 115.781 622.0369999999999 118.76 622.0369999999999 123.52700000000002 C 622.0369999999999 128.88700000000003 618.4079999999999 131.644 613.2259999999999 133.729 C 613.2259999999999 134.47400000000002 613.9149999999998 134.697 614.8669999999998 134.846 C 619.5329999999999 135.59 626.4429999999999 139.315 626.4429999999999 147.282 C 626.4429999999999 155.92000000000002 619.0129999999999 161.728 603.4639999999998 161.728 C 600.9599999999998 161.728 596.7259999999998 161.505 593.0989999999998 161.505 C 589.2979999999998 161.505 586.3609999999998 161.652 583.1649999999998 161.728 C 582.6449999999999 161.505 582.4719999999999 160.31400000000002 582.9909999999999 159.869 L 584.5459999999998 159.644 C 589.1259999999999 158.97400000000002 589.2979999999998 158.154 589.2979999999998 150.336 L 589.2979999999998 122.03800000000001 z M 596.3829999999999 131.94 C 596.3829999999999 134.027 596.4689999999999 134.175 600.8729999999999 134.027 C 609.685 133.72899999999998 614.435 131.49599999999998 614.435 124.49499999999999 C 614.435 117.19599999999998 608.13 114.44 601.564 114.44 C 599.664 114.44 598.3689999999999 114.589 597.591 114.88799999999999 C 596.726 115.11099999999999 596.3820000000001 115.48299999999999 596.3820000000001 116.82399999999998 L 596.3820000000001 131.94 z M 596.3829999999999 149.219 C 596.3829999999999 151.9 596.555 155.697 598.1949999999999 157.33599999999998 C 599.838 159.04899999999998 602.429 159.421 605.0189999999999 159.421 C 612.7079999999999 159.421 618.5809999999999 156.44199999999998 618.5809999999999 148.995 C 618.5809999999999 143.111 615.1259999999999 136.263 601.3919999999999 136.263 C 596.7259999999999 136.263 596.382 136.707 596.382 138.199 L 596.382 149.21900000000002 z M 448.5319999999999 90.752 L 446.4849999999999 90.57499999999999 C 446.1066342716276 90.53466204422423 445.72948379119543 90.48364168745489 445.3539999999999 90.42199999999998 C 442.3599999999999 89.89099999999998 441.16099999999994 87.22599999999998 439.74999999999994 84.75099999999998 L 432.6739999999999 72.42699999999998 C 431.4509999999999 70.37199999999997 430.1409999999999 67.60799999999998 427.34399999999994 67.21399999999998 C 434.59599999999995 66.34399999999998 441.15099999999995 62.15799999999999 441.15099999999995 54.96899999999999 C 441.15099999999995 46.67199999999998 432.936 42.95999999999999 424.63499999999993 42.95999999999999 C 419.6549999999999 42.95999999999999 415.11499999999995 43.094999999999985 410.0469999999999 43.094999999999985 C 407.2519999999999 43.094999999999985 403.92599999999993 42.95999999999999 401.1309999999999 42.95999999999999 C 399.5779999999999 42.95999999999999 399.5589999999999 43.27599999999999 399.5589999999999 44.14499999999999 C 399.5589999999999 45.42799999999999 400.0999999999999 45.06899999999999 401.7449999999999 45.16199999999999 C 407.6489999999999 45.49399999999999 407.4229999999999 46.59499999999999 407.4229999999999 51.65099999999999 L 407.4229999999999 83.964 C 407.4229999999999 88.589 407.82299999999987 89.969 402.9679999999999 90.404 C 402.9679999999999 90.404 402.2239999999999 90.47999999999999 401.8019999999999 90.52499999999999 L 399.7449999999999 90.73599999999999 C 399.2529999999999 91.17699999999999 399.41899999999987 92.35699999999999 399.9089999999999 92.57799999999999 C 401.0029999999999 92.53799999999998 402.9419999999999 92.46199999999999 402.9419999999999 92.46199999999999 C 405.6299999999999 92.38199999999999 408.3169999999999 92.17699999999999 411.0039999999999 92.17699999999999 C 413.7069999999999 92.17699999999999 416.2929999999999 92.38499999999999 418.9509999999999 92.463 L 418.9509999999999 92.46499999999999 C 419.8939999999999 92.49399999999999 420.88999999999993 92.52699999999999 421.9819999999999 92.567 C 422.47399999999993 92.34599999999999 422.6379999999999 91.166 422.1459999999999 90.725 L 420.0759999999999 90.529 C 419.6935718033718 90.48988580454188 419.31089730713177 90.45321838765477 418.9279999999999 90.419 C 414.0259999999999 90.087 414.3259999999999 88.704 414.3259999999999 83.963 L 414.3259999999999 71.79499999999999 C 414.3259999999999 71.08399999999999 414.23599999999993 69.189 414.7619999999999 68.63499999999999 C 415.1999999999999 68.15899999999999 415.9849999999999 68.23899999999999 416.6839999999999 68.23899999999999 C 423.3269999999999 68.23899999999999 423.2369999999999 68.87199999999999 426.3829999999999 74.40199999999999 L 434.94499999999994 89.80699999999999 C 435.64399999999995 90.99399999999999 436.16799999999995 92.493 437.91799999999995 92.493 L 445.35599999999994 92.493 C 446.2939999999999 92.523 447.2799999999999 92.55499999999999 448.36799999999994 92.595 C 448.85799999999995 92.373 449.02199999999993 91.193 448.5319999999999 90.752 z M 418.70399999999995 66.524 C 417.21799999999996 66.524 414.24699999999996 67.077 414.24699999999996 65.104 L 414.24699999999996 50.961 C 414.24699999999996 45.431 414.42299999999994 44.641 421.06299999999993 44.641 C 428.8379999999999 44.641 433.6449999999999 48.589999999999996 433.6449999999999 55.858 C 433.6449999999999 59.018 432.5079999999999 61.940999999999995 429.62499999999994 63.916999999999994 C 426.30499999999995 66.20899999999999 422.72099999999995 66.524 418.70399999999995 66.524 z M 420.30699999999996 123.97800000000001 C 420.30699999999996 116.23700000000001 420.145 115.055 415.037 114.68700000000001 L 413.008 114.54100000000001 C 412.522 114.245 412.68399999999997 112.92000000000002 413.16999999999996 112.69600000000001 C 417.71299999999997 112.84400000000001 420.46899999999994 112.918 423.71299999999997 112.918 C 426.87699999999995 112.918 429.633 112.84500000000001 433.68999999999994 112.69900000000001 C 434.17599999999993 112.92000000000002 434.33799999999997 114.24500000000002 433.8519999999999 114.54100000000001 L 431.9049999999999 114.68700000000001 C 427.1219999999999 115.055 426.9579999999999 116.23700000000001 426.9579999999999 123.97800000000001 L 426.9579999999999 149.637 C 426.9579999999999 154.282 427.20199999999994 156.199 428.6609999999999 157.599 C 429.55399999999986 158.409 431.0949999999999 159.295 437.50099999999986 159.295 C 444.39599999999984 159.295 446.0989999999999 158.999 447.3969999999999 158.337 C 449.01799999999986 157.45 451.1269999999999 154.798 452.74899999999985 151.036 C 453.23699999999985 150.67 454.77599999999984 150.962 454.77599999999984 151.478 C 454.77599999999984 152.29000000000002 452.5049999999998 159.811 451.36999999999983 161.8 C 447.23499999999984 161.65300000000002 439.52799999999985 161.578 431.17499999999984 161.578 L 423.7139999999998 161.578 C 420.3079999999998 161.578 417.7139999999998 161.65200000000002 413.1709999999998 161.8 C 412.68499999999983 161.578 412.5229999999998 160.399 413.00899999999984 159.95700000000002 L 415.44299999999987 159.73600000000002 C 420.14599999999984 159.294 420.3079999999999 158.26000000000002 420.3079999999999 150.52 L 420.3079999999999 123.97800000000001 z M 637.5709999999999 124.12400000000001 C 637.5709999999999 116.31 637.4129999999999 115.055 632.7159999999999 114.686 L 630.7239999999999 114.54 C 630.247 114.244 630.406 112.91900000000001 630.886 112.69500000000001 C 634.865 112.843 637.572 112.917 640.9169999999999 112.917 C 644.103 112.917 646.81 112.84400000000001 650.7919999999999 112.69800000000001 C 651.2689999999999 112.91900000000001 651.4289999999999 114.24400000000001 650.9499999999999 114.54 L 648.958 114.686 C 644.261 115.054 644.103 116.30900000000001 644.103 124.12400000000001 L 644.103 150.37400000000002 C 644.103 158.18900000000002 644.261 159.22100000000003 648.958 159.73700000000002 L 650.9499999999999 159.95800000000003 C 651.429 160.25300000000001 651.2679999999999 161.57900000000004 650.7919999999999 161.80100000000002 C 646.81 161.65400000000002 644.103 161.579 640.9169999999999 161.579 C 637.5709999999999 161.579 634.8639999999999 161.65300000000002 630.886 161.80100000000002 C 630.406 161.579 630.247 160.4 630.7239999999999 159.95800000000003 L 632.7159999999999 159.73700000000002 C 637.4129999999999 159.22000000000003 637.5709999999999 158.18900000000002 637.5709999999999 150.37400000000002 z M 573.9419999999999 159.72 C 573.5517127150449 159.68118323684737 573.1610239945085 159.646514613182 572.7699999999999 159.61599999999999 C 571.9319999999999 159.53099999999998 571.1779999999999 159.41099999999997 570.5819999999999 158.761 C 569.5489999999999 157.66299999999998 569.6349999999999 154.535 569.6349999999999 153.283 L 569.6349999999999 120.975 C 569.6349999999999 119.56599999999999 569.2909999999998 116.51599999999999 570.3239999999998 115.419 C 570.8419999999999 114.842 571.9159999999998 114.74499999999999 572.8729999999998 114.69 L 572.8729999999998 114.68599999999999 C 573.4549999999998 114.642 573.4689999999998 114.63999999999999 573.9779999999998 114.616 L 576.0249999999999 114.47 C 576.5149999999999 114.17399999999999 576.3509999999999 112.848 575.8609999999999 112.626 C 574.7669999999998 112.664 573.7729999999999 112.649 572.8279999999999 112.679 L 572.8279999999999 112.683 L 564.1289999999999 112.683 C 563.1819999999999 112.683 562.3199999999999 112.683 561.805 113.70100000000001 L 544.078 150.62400000000002 L 528.42 114.95300000000003 C 527.9019999999999 113.70100000000004 527.818 112.68300000000004 526.1819999999999 112.68300000000004 L 517.127 112.68300000000004 C 516.184 112.65400000000004 515.1429999999999 112.66400000000003 514.049 112.62600000000003 C 513.559 112.84800000000003 513.393 114.17400000000004 513.885 114.47000000000003 L 515.932 114.61600000000003 C 516.354 114.64900000000003 517.118 114.70200000000003 517.118 114.70200000000003 C 520.514 114.92000000000003 520.725 115.67900000000003 520.417 119.25400000000002 L 517.749 153.907 C 517.517 157.38600000000002 517.325 159.22500000000002 513.681 159.56400000000002 C 513.681 159.56400000000002 512.9110000000001 159.66100000000003 512.488 159.70600000000002 L 510.44300000000004 159.92800000000003 C 509.951 160.36800000000002 510.11500000000007 161.54800000000003 510.607 161.76900000000003 C 511.685 161.72900000000004 513.6030000000001 161.67300000000003 513.6030000000001 161.67300000000003 C 515.451 161.58200000000002 517.3320000000001 161.41800000000003 519.214 161.41800000000003 C 521.243 161.41800000000003 523.2760000000001 161.60900000000004 525.3100000000001 161.69000000000003 L 525.3100000000001 161.69400000000002 C 526.2510000000001 161.723 527.248 161.75600000000003 528.341 161.79500000000002 C 528.833 161.574 528.997 160.395 528.505 159.953 L 526.46 159.731 C 525.921 159.689 525.317 159.629 525.317 159.629 C 520.057 159.26899999999998 520.174 155.55599999999998 520.503 151.01399999999998 L 522.999 118.78499999999998 L 523.6030000000001 118.78499999999998 L 540.5540000000001 158.444 C 540.724 158.992 540.9820000000001 159.92999999999998 541.8430000000001 159.92999999999998 C 542.618 159.92999999999998 542.8760000000001 159.07199999999997 543.1340000000001 158.521 L 562.2360000000001 117.84199999999998 L 562.8400000000001 117.84199999999998 L 562.8400000000001 153.27999999999997 C 562.8400000000001 154.68699999999998 563.0120000000002 157.58299999999997 561.5490000000001 158.67599999999996 C 560.7850000000001 159.24499999999995 558.2990000000001 159.58699999999996 558.2990000000001 159.58699999999996 C 557.9307445775246 159.6458440347616 557.5609375587961 159.6945291787962 557.19 159.73299999999995 L 555.1450000000001 159.95399999999995 C 554.6530000000001 160.39499999999995 554.8170000000001 161.57499999999996 555.3090000000001 161.79699999999994 C 556.3870000000001 161.75799999999995 558.2990000000001 161.69799999999995 558.2990000000001 161.69799999999995 C 561.0720000000001 161.62099999999995 563.8910000000001 161.41499999999996 566.7110000000001 161.41499999999996 C 568.7380000000002 161.41499999999996 572.7090000000002 161.60699999999997 572.7090000000002 161.60699999999997 C 573.6540000000002 161.63599999999997 574.7320000000002 161.73999999999998 575.8260000000001 161.77899999999997 C 576.3180000000001 161.55699999999996 576.4820000000001 160.37899999999996 575.9900000000001 159.93699999999995 z M 706.9169999999999 159.92 L 706.6419999999999 159.69899999999998 C 706.2696393315259 159.66008882610527 705.8984837295211 159.61040132862215 705.5289999999999 159.54999999999998 C 702.3399999999999 158.838 701.0969999999999 154.998 699.9199999999998 152.26199999999997 L 683.5119999999998 113.42799999999997 C 683.3479999999998 112.96199999999997 683.0239999999998 111.95699999999997 682.3729999999998 111.95699999999997 C 681.4779999999998 111.95699999999997 681.2359999999999 113.03999999999996 680.9919999999998 113.65699999999997 L 665.3159999999998 152.41699999999997 C 664.7459999999998 153.88699999999997 663.2849999999999 157.44799999999998 662.2279999999998 158.52799999999996 C 661.4189999999999 159.35699999999997 660.3649999999998 159.51499999999996 659.2419999999998 159.63199999999998 C 659.2419999999998 159.63199999999998 658.3569999999999 159.71599999999998 657.9349999999998 159.76199999999997 L 656.0069999999998 159.95799999999997 C 655.5169999999998 160.39899999999997 655.6809999999998 161.57899999999998 656.1709999999998 161.80099999999996 L 659.2039999999998 161.69199999999995 C 661.3489999999998 161.66299999999995 663.4929999999998 161.39099999999996 665.6399999999999 161.39099999999996 C 667.4469999999999 161.39099999999996 669.2509999999999 161.58299999999997 671.0539999999999 161.66299999999995 C 671.0539999999999 161.66299999999995 672.9929999999998 161.73199999999994 674.0869999999999 161.77299999999997 C 674.5769999999999 161.54999999999995 674.7409999999999 160.37099999999998 674.2509999999999 159.92899999999997 L 672.2039999999998 159.70699999999997 C 671.7979999999999 159.66499999999996 671.0949999999998 159.59899999999996 671.0949999999998 159.59899999999996 C 669.2079999999999 159.38999999999996 666.8589999999998 159.05299999999997 666.8589999999998 156.97899999999996 C 666.8589999999998 155.58699999999996 667.5089999999998 153.96199999999996 667.9959999999998 152.72399999999996 L 670.4319999999998 146.92399999999995 C 671.6529999999998 144.13999999999996 671.1639999999998 143.82799999999995 674.4119999999998 143.82799999999995 L 685.4609999999998 143.82799999999995 C 689.3589999999998 143.82799999999995 688.7889999999998 143.82799999999995 690.4979999999998 147.77599999999995 L 693.0959999999998 153.65199999999996 C 693.5019999999997 154.65999999999997 694.2329999999997 156.36099999999996 694.2329999999997 157.44699999999995 C 694.2329999999997 159.38899999999995 692.1099999999997 159.51699999999994 690.1279999999997 159.68499999999995 C 690.1279999999997 159.68499999999995 689.4699999999997 159.74099999999996 688.8989999999997 159.78499999999994 L 686.9299999999996 159.92799999999994 C 686.4399999999996 160.36899999999994 686.6039999999996 161.54899999999995 687.0959999999997 161.77099999999993 C 688.1879999999996 161.73199999999994 690.1269999999996 161.65299999999993 690.1269999999996 161.65299999999993 C 692.4379999999996 161.56899999999993 694.7639999999996 161.38999999999993 696.9939999999996 161.38999999999993 C 699.8399999999996 161.38999999999993 702.6849999999996 161.58299999999994 705.5289999999995 161.66399999999993 L 705.5289999999995 161.66099999999994 C 706.4629999999995 161.68899999999994 705.6739999999995 161.72299999999996 706.7539999999996 161.76199999999994 C 707.2429999999996 161.54099999999994 707.4069999999996 160.36099999999993 706.9169999999996 159.91999999999993 z M 685.4219999999999 141.67 L 675.848 141.67 C 675.514 141.67 672.8499999999999 141.98299999999998 672.8499999999999 141.202 C 672.8499999999999 140.96699999999998 673.016 140.498 673.0999999999999 140.264 L 678.8459999999999 126.03600000000002 C 679.012 125.64400000000002 679.5939999999999 123.68900000000002 680.2599999999999 123.68900000000002 C 680.7599999999999 123.68900000000002 681.4259999999999 125.72200000000002 681.5919999999999 126.03600000000002 L 687.2539999999999 139.324 C 687.2539999999999 139.48100000000002 687.8359999999999 140.73100000000002 687.8359999999999 141.04500000000002 C 687.8359999999999 141.906 685.9219999999999 141.67000000000002 685.4219999999999 141.67000000000002 z" stroke-linecap="round" />
</g>
</g>
</g>
</svg>