<?xml version="1.0" encoding="UTF-8"?>
<svg width="128pt" height="128pt" version="1.1" viewBox="0 0 128 128" xmlns="http://www.w3.org/2000/svg">
 <path d="m82.418 10.012c-2.7891-2.793-4.7695-3.6133-8.7148-3.6133h-50.043c-5.5 0-7.6602 2.1641-7.6602 7.6602v99.883c0 5.5 2.1602 7.6602 7.6602 7.6602h80.68c5.5 0 7.6602-2.1602 7.6602-7.6602v-69.246c0-3.9492-0.82031-5.9258-3.6094-8.7188zm22.883 102.85c0 1.4688-0.57812 2.043-2.043 2.043h-78.516c-1.4688 0-2.043-0.57422-2.043-2.043v-24.777h82.602zm-57.508-34.797c1.5234 0 3.2148-0.33203 4.2109-0.72656l0.76172 3.9453c-0.92578 0.46484-3.0156 0.96094-5.7344 0.96094-7.7227 0-11.703-4.8047-11.703-11.172 0-7.625 5.4375-11.867 12.199-11.867 2.6172 0 4.6094 0.53125 5.5039 0.99609l-1.0273 4.0117c-1.0273-0.42969-2.4531-0.82813-4.2422-0.82813-4.0117 0-7.1289 2.4219-7.1289 7.3945 0 4.4688 2.6523 7.2852 7.1602 7.2852zm13.852-5.5352c-3.7109-1.293-6.1328-3.3477-6.1328-6.5977 0-3.8125 3.1836-6.7305 8.4531-6.7305 2.5195 0 4.375 0.53125 5.7031 1.1289l-1.125 4.0781c-0.89453-0.42969-2.4883-1.0625-4.6758-1.0625s-3.25 0.99609-3.25 2.1562c0 1.4258 1.2578 2.0547 4.1445 3.1484 3.9453 1.457 5.8008 3.5156 5.8008 6.6641 0 3.7461-2.8828 6.9297-9.0156 6.9297-2.5508 0-5.0742-0.66406-6.332-1.3594l1.0273-4.1758c1.3594 0.69531 3.4453 1.3945 5.6016 1.3945 2.3203 0 3.5469-0.96094 3.5469-2.4219 0-1.3945-1.0586-2.1914-3.7461-3.1523zm10.441-12.961h5.5352l2.7188 9.4492c0.76172 2.6523 1.4609 5.2031 1.9922 7.9883h0.097657c0.5625-2.6836 1.2578-5.3359 2.0234-7.8906l2.8516-9.5469h5.3672l-7.5273 22.344h-5.9023zm33.215-6.207h-82.602v-38.219c0-1.4688 0.57422-2.043 2.043-2.043h51.004c0.73047 0 1.0195 0.28906 1.0195 1.0195v19.855c0 5.5 2.1602 7.6602 7.6602 7.6602h19.855c0.73438 0 1.0195 0.28906 1.0195 1.0195z" fill="#169bd5"/>
</svg>
