<?xml version="1.0" encoding="utf-8"?>
<svg version="1.1" xmlns:xlink="http://www.w3.org/1999/xlink" width="15px" height="15px" xmlns="http://www.w3.org/2000/svg">
  <g transform="matrix(1 0 0 1 -25 -20 )">
    <path d="M 12.1768465909091 6.9140625  C 12.2407670454545 6.97798295454546  12.2727272727273 7.05965909090909  12.2727272727273 7.15909090909091  L 12.2727272727273 7.84090909090909  C 12.2727272727273 7.94034090909091  12.2407670454545 8.02201704545454  12.1768465909091 8.0859375  C 12.1129261363636 8.14985795454546  12.03125 8.18181818181818  11.9318181818182 8.18181818181818  L 8.18181818181818 8.18181818181818  L 8.18181818181818 11.9318181818182  C 8.18181818181818 12.03125  8.14985795454546 12.1129261363636  8.0859375 12.1768465909091  C 8.02201704545454 12.2407670454545  7.94034090909091 12.2727272727273  7.84090909090909 12.2727272727273  L 7.15909090909091 12.2727272727273  C 7.05965909090909 12.2727272727273  6.97798295454546 12.2407670454545  6.9140625 12.1768465909091  C 6.85014204545454 12.1129261363636  6.81818181818182 12.03125  6.81818181818182 11.9318181818182  L 6.81818181818182 8.18181818181818  L 3.06818181818182 8.18181818181818  C 2.96875 8.18181818181818  2.88707386363636 8.14985795454546  2.82315340909091 8.0859375  C 2.75923295454545 8.02201704545454  2.72727272727273 7.94034090909091  2.72727272727273 7.84090909090909  L 2.72727272727273 7.15909090909091  C 2.72727272727273 7.05965909090909  2.75923295454545 6.97798295454546  2.82315340909091 6.9140625  C 2.88707386363636 6.85014204545454  2.96875 6.81818181818182  3.06818181818182 6.81818181818182  L 6.81818181818182 6.81818181818182  L 6.81818181818182 3.06818181818182  C 6.81818181818182 2.96875  6.85014204545454 2.88707386363636  6.9140625 2.82315340909091  C 6.97798295454546 2.75923295454545  7.05965909090909 2.72727272727273  7.15909090909091 2.72727272727273  L 7.84090909090909 2.72727272727273  C 7.94034090909091 2.72727272727273  8.02201704545454 2.75923295454545  8.0859375 2.82315340909091  C 8.14985795454546 2.88707386363636  8.18181818181818 2.96875  8.18181818181818 3.06818181818182  L 8.18181818181818 6.81818181818182  L 11.9318181818182 6.81818181818182  C 12.03125 6.81818181818182  12.1129261363636 6.85014204545454  12.1768465909091 6.9140625  Z M 13.1356534090909 13.1356534090909  C 13.4694602272727 12.8018465909091  13.6363636363636 12.4005681818182  13.6363636363636 11.9318181818182  L 13.6363636363636 3.06818181818182  C 13.6363636363636 2.59943181818182  13.4694602272727 2.19815340909091  13.1356534090909 1.86434659090909  C 12.8018465909091 1.53053977272727  12.4005681818182 1.36363636363636  11.9318181818182 1.36363636363636  L 3.06818181818182 1.36363636363636  C 2.59943181818182 1.36363636363636  2.19815340909091 1.53053977272727  1.86434659090909 1.86434659090909  C 1.53053977272727 2.19815340909091  1.36363636363636 2.59943181818182  1.36363636363636 3.06818181818182  L 1.36363636363636 11.9318181818182  C 1.36363636363636 12.4005681818182  1.53053977272727 12.8018465909091  1.86434659090909 13.1356534090909  C 2.19815340909091 13.4694602272727  2.59943181818182 13.6363636363636  3.06818181818182 13.6363636363636  L 11.9318181818182 13.6363636363636  C 12.4005681818182 13.6363636363636  12.8018465909091 13.4694602272727  13.1356534090909 13.1356534090909  Z M 14.0997869318182 0.900213068181819  C 14.6999289772727 1.50035511363636  15 2.22301136363636  15 3.06818181818182  L 15 11.9318181818182  C 15 12.7769886363636  14.6999289772727 13.4996448863636  14.0997869318182 14.0997869318182  C 13.4996448863636 14.6999289772727  12.7769886363636 15  11.9318181818182 15  L 3.06818181818182 15  C 2.22301136363636 15  1.50035511363636 14.6999289772727  0.900213068181818 14.0997869318182  C 0.300071022727273 13.4996448863636  0 12.7769886363636  0 11.9318181818182  L 0 3.06818181818182  C 0 2.22301136363636  0.300071022727273 1.50035511363636  0.900213068181818 0.900213068181819  C 1.50035511363636 0.300071022727271  2.22301136363636 0  3.06818181818182 0  L 11.9318181818182 0  C 12.7769886363636 0  13.4996448863636 0.300071022727271  14.0997869318182 0.900213068181819  Z " fill-rule="nonzero" fill="#169bd5" stroke="none" transform="matrix(1 0 0 1 25 20 )" />
  </g>
</svg>