<svg width="673" height="505" viewBox="0 0 673 505" fill="none" xmlns="http://www.w3.org/2000/svg">
<g clip-path="url(#clip0_2397_16548)">
<path fill-rule="evenodd" clip-rule="evenodd" d="M130.7 387.025V435.414L262.068 435.919V384.069L130.7 387.025Z" fill="#C8D9F4"/>
<path fill-rule="evenodd" clip-rule="evenodd" d="M262.07 435.919V384.069L130.702 387.025V435.414H142.61C142.61 435.414 140.874 416.45 149.122 414.117C166.551 409.186 226.719 406.192 243.379 409.742C253.019 411.796 252.102 435.919 252.102 435.919H262.071H262.07ZM207.16 435.414H201.572L204.637 425.38L207.16 435.414Z" fill="#A5BFEC"/>
<path fill-rule="evenodd" clip-rule="evenodd" d="M207.536 435.33L205.134 421.045C205.088 420.771 204.828 420.584 204.552 420.631C204.277 420.677 204.092 420.938 204.138 421.214L206.54 435.499C206.587 435.773 206.847 435.96 207.122 435.913C207.397 435.867 207.583 435.606 207.536 435.33Z" fill="#546ABB"/>
<path fill-rule="evenodd" clip-rule="evenodd" d="M175.406 216.176L173.604 262.383H214.552L213.015 233.76C195.559 237.086 185.738 230.075 178.291 216.176H175.406Z" fill="#52362C"/>
<path fill-rule="evenodd" clip-rule="evenodd" d="M174.953 227.791C181.089 235.758 194.124 248.6 213.748 247.407L213.015 233.76C195.559 237.086 185.738 230.075 178.291 216.176H175.406L174.953 227.791Z" fill="#1D120E"/>
<path fill-rule="evenodd" clip-rule="evenodd" d="M174.391 244.984C174.391 244.984 194.002 259.717 203.051 259.106C213.676 258.387 213.625 246.993 213.625 246.993C213.625 246.993 246.274 255.111 254.016 260.858C261.758 266.605 269.284 296.542 269.284 296.542L266.939 387.026C266.939 402.413 139.715 405.117 127.751 394.752C116.779 385.25 127.751 325.919 127.751 325.919C127.751 325.919 110.041 297.437 117.412 274.333C124.327 252.66 174.393 244.986 174.393 244.986L174.391 244.984Z" fill="#FDC12F"/>
<path fill-rule="evenodd" clip-rule="evenodd" d="M212.836 251.447C213.632 249.036 213.624 246.993 213.624 246.993C213.624 246.993 246.273 255.111 254.014 260.858C259.566 264.979 265.007 281.54 267.64 290.579C263.313 281.141 255.683 266.701 247.975 262.754C239.943 258.64 214.105 250.817 214.105 250.817C213.677 251.041 213.255 251.25 212.836 251.447ZM116.772 276.586C116.959 275.83 117.171 275.077 117.41 274.332C124.325 252.659 174.391 244.984 174.391 244.984C174.391 244.984 177.401 247.247 181.607 249.96C180.446 249.725 179.257 249.511 178.03 249.331C178.03 249.331 142.102 250.842 120.413 271.473L116.776 276.586H116.772Z" fill="#FAA54B"/>
<path fill-rule="evenodd" clip-rule="evenodd" d="M127.749 325.919C127.749 325.919 154.228 277.02 155.451 278.255C169.763 292.7 186.037 313.558 186.037 313.558L232.981 294.237L235.272 296.939C237.278 295.981 238.521 295.387 238.521 295.387C238.521 295.387 242.6 284.076 247.141 283.349C251.682 282.622 251.544 295.387 251.544 295.387C251.544 295.387 260.062 292.049 262.181 294.311C267.539 300.036 266.967 394.751 266.967 394.751L251.016 395.341C251.016 395.341 250.835 346.173 248.832 347.538C232.387 358.756 192.133 384.245 170.094 381.158C159.467 379.67 148.63 373.478 135.244 361.37C134.174 360.402 130.668 371.689 131.223 384.137C131.42 388.542 132.507 393.022 133.532 397.213C130.799 396.496 128.816 395.675 127.749 394.751C116.777 385.248 127.749 325.917 127.749 325.917V325.919Z" fill="#FAA54B"/>
<path fill-rule="evenodd" clip-rule="evenodd" d="M238.452 180.015C238.452 180.015 241.106 203.612 232.616 210.319L229.907 184.414L238.452 180.014V180.015Z" fill="#171D43"/>
<path fill-rule="evenodd" clip-rule="evenodd" d="M179.965 208.669C178.04 205.905 171.718 196.832 165.773 204.03C159.052 212.168 170.123 221.489 177.091 217.552C177.091 217.552 180.482 229.978 191.374 235.34C206.379 242.724 225.038 237.164 229.907 228.573C237.966 214.352 234.162 189.021 230.827 185.685L179.965 187.366V208.669Z" fill="#52362C"/>
<path fill-rule="evenodd" clip-rule="evenodd" d="M196.311 237.284C192.434 232.843 186.281 224.721 188.625 220.205C191.882 213.928 191.373 197.613 190.23 194.896C190.23 194.896 198.893 196.488 202.758 194.046C208.982 190.113 217.034 193.951 222.119 193.918C226.212 193.891 230.302 192.864 233.247 191.903C232.543 188.78 231.668 186.528 230.825 185.685L179.963 187.366V208.669C178.039 205.905 171.716 196.832 165.772 204.03C159.05 212.168 170.121 221.489 177.09 217.552C177.09 217.552 180.48 229.978 191.373 235.34C192.983 236.132 194.635 236.775 196.309 237.282L196.311 237.284Z" fill="#34241E"/>
<path fill-rule="evenodd" clip-rule="evenodd" d="M175.539 212.483C175.656 211.44 175.046 210.219 174.053 209.339C172.571 208.024 170.301 207.476 168.615 209.245C168.455 209.413 168.462 209.679 168.629 209.839C168.797 209.999 169.063 209.994 169.222 209.825C170.547 208.435 172.328 208.937 173.494 209.969C174.267 210.654 174.795 211.576 174.702 212.387C174.675 212.618 174.842 212.827 175.073 212.854C175.303 212.881 175.512 212.714 175.539 212.483Z" fill="#1B110E"/>
<path fill-rule="evenodd" clip-rule="evenodd" d="M179.676 208.45C179.676 208.45 180.906 217.603 183.904 215.527C186.902 213.45 186.98 191.607 186.98 191.607C186.98 191.607 196.358 194.376 200.51 191.607C204.661 188.838 212.15 189.993 217.147 191.607C222.144 193.221 231.786 190.823 234.709 188.439C237.63 186.055 242.919 182.332 241.986 177.076C241.045 171.777 236.654 170.109 235.949 166.14C235.03 160.964 238.484 154.161 229.515 150.397C222.183 147.32 212.907 154.821 202.644 156.242C193.94 157.447 177.287 148.943 168.353 166.14C160.036 169.296 155.209 182.561 164.315 206.584C166.645 200.614 173.091 198.229 179.678 208.45H179.676Z" fill="#171D43"/>
<path fill-rule="evenodd" clip-rule="evenodd" d="M241.954 176.915C241.964 176.967 241.974 177.021 241.984 177.074C242.918 182.331 237.628 186.053 234.707 188.437C231.786 190.821 222.142 193.221 217.145 191.605C212.148 189.991 204.661 188.836 200.509 191.605C196.358 194.374 186.978 191.605 186.978 191.605C186.978 191.605 186.901 213.448 183.902 215.525C180.904 217.602 179.674 208.448 179.674 208.448C173.087 198.226 166.643 200.612 164.311 206.582C162.806 202.609 161.68 198.929 160.889 195.537C165.536 194.581 172.774 194.159 178.929 198.446C178.929 198.446 183.26 193.327 182.28 184.946C182.28 184.946 193.991 190.598 198.715 185.873C202.1 182.486 214.529 184.454 218.145 185.873C225.314 188.689 236.555 184.023 241.954 176.911V176.915Z" fill="#111635"/>
<path fill-rule="evenodd" clip-rule="evenodd" d="M498.14 139.637C498.14 137.087 496.07 135.017 493.521 135.017H348.816C346.267 135.017 344.198 137.087 344.198 139.637V360.984C344.198 363.534 346.267 365.605 348.816 365.605H493.521C496.07 365.605 498.14 363.534 498.14 360.984V139.637Z" fill="#8AAED0"/>
<path fill-rule="evenodd" clip-rule="evenodd" d="M481.836 334.537H360.503V342.452H481.836V334.537ZM481.836 314.941H360.503V322.856H481.836V314.941ZM481.836 295.346H360.503V303.261H481.836V295.346ZM481.836 275.75H360.503V283.665H481.836V275.75ZM481.836 256.154H360.503V264.069H481.836V256.154ZM481.836 236.559H360.503V244.474H481.836V236.559ZM481.836 216.963H360.503V224.878H481.836V216.963ZM481.836 197.367H360.503V205.282H481.836V197.367ZM481.836 177.771H360.503V185.686H481.836V177.771ZM481.836 158.176H360.503V166.091H481.836V158.176Z" fill="#002850"/>
<path fill-rule="evenodd" clip-rule="evenodd" d="M557.268 269.498L515.612 227.822H422.831C418.643 227.822 415.248 231.219 415.248 235.409V428.129C415.248 432.319 418.643 435.716 422.831 435.716H549.685C553.872 435.716 557.268 432.319 557.268 428.129V269.498Z" fill="#FAD351"/>
<path fill-rule="evenodd" clip-rule="evenodd" d="M515.612 227.822L557.268 269.498L557.316 272.52H512.042V227.82H515.614L515.612 227.822Z" fill="#E3A222"/>
<path fill-rule="evenodd" clip-rule="evenodd" d="M536.44 408.556H436.075V415.399H536.44V408.556ZM536.44 391.613H436.075V398.456H536.44V391.613ZM536.44 374.671H436.075V381.513H536.44V374.671ZM536.44 357.728H436.075V364.571H536.44V357.728ZM536.44 340.785H436.075V347.628H536.44V340.785ZM536.44 323.842H436.075V330.685H536.44V323.842ZM536.44 306.9H436.075V313.742H536.44V306.9ZM536.44 289.957H436.075V296.8H536.44V289.957ZM536.44 273.014H436.075V279.857H536.44V273.014ZM536.44 256.071H436.075V262.914H536.44V256.071Z" fill="#C6880C"/>
<path d="M536.44 256.073H512.042V262.916H536.44V256.073Z" fill="#AA6C0D"/>
<path fill-rule="evenodd" clip-rule="evenodd" d="M515.612 227.822L557.268 269.498H515.612V227.822Z" fill="#FFE8B9"/>
<path fill-rule="evenodd" clip-rule="evenodd" d="M431.231 306.575V198.687C431.231 153.735 394.809 117.296 349.881 117.296C304.951 117.296 268.53 153.735 268.53 198.687V306.575H293.768V198.687C293.768 167.681 318.891 142.546 349.881 142.546C380.871 142.546 405.994 167.681 405.994 198.687V306.575H431.231Z" fill="#205285"/>
<path fill-rule="evenodd" clip-rule="evenodd" d="M349.881 142.546H350.063C380.972 142.647 405.994 167.743 405.994 198.686V306.575H414.312V198.686C414.312 171.802 388.604 136.627 349.881 136.627C321.61 136.627 286.136 156.276 286.136 198.686V306.575H293.768V198.686C293.768 167.681 318.891 142.546 349.881 142.546Z" fill="#003366"/>
<path fill-rule="evenodd" clip-rule="evenodd" d="M273.928 306.575V198.687C273.928 160.398 302.476 121.538 350.803 121.538C393.259 121.538 424.533 156.326 427.676 198.687V306.575H431.23V198.687C431.23 153.735 394.807 117.296 349.879 117.296C304.95 117.296 268.529 153.735 268.529 198.687V306.575H273.928Z" fill="#3E78B3"/>
<path fill-rule="evenodd" clip-rule="evenodd" d="M446.105 297.131C446.105 292.249 442.142 288.285 437.263 288.285H262.497C257.618 288.285 253.655 292.249 253.655 297.131V426.869C253.655 431.751 257.618 435.715 262.497 435.715H437.263C442.142 435.715 446.105 431.751 446.105 426.869V297.131Z" fill="#003366"/>
<path fill-rule="evenodd" clip-rule="evenodd" d="M275.851 288.287H262.497C257.618 288.287 253.655 292.251 253.655 297.133V426.871C253.655 431.753 257.618 435.717 262.497 435.717H275.851C276.633 435.717 277.267 435.082 277.267 434.299V289.706C277.267 288.923 276.633 288.289 275.851 288.289V288.287Z" fill="#002850"/>
<path fill-rule="evenodd" clip-rule="evenodd" d="M340.437 355.624C337.237 352.906 335.206 348.852 335.206 344.329C335.206 336.153 341.84 329.516 350.012 329.516C358.184 329.516 364.818 336.153 364.818 344.329C364.818 348.956 362.693 353.089 359.368 355.808L364.818 377.617H334.942L340.437 355.626V355.624Z" fill="#AEC4FE"/>
<path fill-rule="evenodd" clip-rule="evenodd" d="M228.216 301.438C229.306 300.983 238.78 296.433 238.78 296.433C238.78 296.433 242.393 285.175 246.934 284.448C251.475 283.721 249.94 296.433 249.94 296.433C249.94 296.433 260.061 291.543 262.181 293.807C267.539 299.532 266.691 317.616 265.179 320.975C263.315 325.116 242.403 328.607 242.403 328.607C242.403 328.607 227.127 301.894 228.216 301.44V301.438Z" fill="#52362C"/>
<path fill-rule="evenodd" clip-rule="evenodd" d="M236.751 297.406C239.144 301.667 248.786 318.818 253.144 326.329C247.662 327.728 242.401 328.607 242.401 328.607C242.401 328.607 230.514 307.823 228.46 302.609L228.399 301.36C229.572 300.839 234.076 298.689 236.751 297.408V297.406Z" fill="#34241E"/>
<path fill-rule="evenodd" clip-rule="evenodd" d="M144.99 269.005C161.359 279.078 183.963 318.623 183.963 318.623L232.335 295.107L251.933 337.963C251.933 337.963 198.845 374.989 170.693 371.047C149.822 368.123 121.889 327.297 113.532 307.876C101.896 280.837 123.386 255.712 144.99 269.006V269.005Z" fill="#FDC12F"/>
<path fill-rule="evenodd" clip-rule="evenodd" d="M222.048 300.107L232.335 295.105L251.932 337.961C251.932 337.961 248.224 340.547 242.248 344.281L222.048 300.107Z" fill="#FFF6F9"/>
<path fill-rule="evenodd" clip-rule="evenodd" d="M183.736 318.172L171.849 324.17C171.6 324.296 171.501 324.599 171.625 324.848C171.75 325.097 172.054 325.196 172.303 325.072L184.19 319.074C184.439 318.948 184.538 318.645 184.414 318.396C184.288 318.147 183.985 318.047 183.736 318.172Z" fill="#EF8D26"/>
<path fill-rule="evenodd" clip-rule="evenodd" d="M126.384 332.039C126.384 332.039 135.152 345.896 146.719 357.245C154.495 364.876 163.546 371.35 172.047 371.843C184.513 372.565 199.859 367.514 213.782 361.174C234.593 351.699 252.222 339.367 252.222 339.367C252.451 339.207 252.506 338.892 252.346 338.663C252.186 338.434 251.872 338.379 251.643 338.539C251.643 338.539 234.088 350.818 213.363 360.255C199.597 366.524 184.431 371.549 172.105 370.835C163.808 370.354 155.014 363.972 147.424 356.525C135.941 345.257 127.236 331.499 127.236 331.499C127.086 331.263 126.775 331.193 126.539 331.342C126.304 331.492 126.233 331.804 126.383 332.039H126.384Z" fill="#EF8D26"/>
</g>
<defs>
<clipPath id="clip0_2397_16548">
<rect width="673" height="505" fill="white"/>
</clipPath>
</defs>
</svg>
