<svg width="17" height="17" viewBox="0 0 17 17" fill="none" xmlns="http://www.w3.org/2000/svg">
<path d="M8.5 0C13.1956 0 17 3.80444 17 8.5C17 13.1956 13.1956 17 8.5 17C3.80444 17 0 13.1956 0 8.5C0 3.80444 3.80444 0 8.5 0ZM7.50948 4.92177L10.0972 7.40323H3.83871C3.38286 7.40323 3.01613 7.76996 3.01613 8.22581V8.77419C3.01613 9.23004 3.38286 9.59677 3.83871 9.59677H10.0972L7.50948 12.0782C7.17702 12.397 7.17016 12.9282 7.49577 13.2538L7.87278 13.6274C8.19496 13.9496 8.71593 13.9496 9.03468 13.6274L13.5829 9.08266C13.905 8.76048 13.905 8.23952 13.5829 7.92077L9.03468 3.36915C8.7125 3.04698 8.19153 3.04698 7.87278 3.36915L7.49577 3.74274C7.17016 4.07177 7.17702 4.60302 7.50948 4.92177Z" fill="#1A5A96"/>
</svg>
