<svg width="155" height="41" viewBox="0 0 155 41" fill="none" xmlns="http://www.w3.org/2000/svg">
<path d="M143.7 39.6118H75.2002V40.4118H143.7V39.6118Z" fill="#E3A82B"/>
<path d="M8.5998 34.0118C18.2998 34.0118 31.7998 39.5118 41.5998 39.5118C48.5998 39.5118 55.3998 37.6118 59.2998 34.9118C61.7998 18.7118 50.6998 3.61179 34.5998 1.11179C18.4998 -1.38821 3.2998 9.71179 0.799805 25.8118C0.299805 28.8118 0.299805 31.9118 0.799805 34.9118C3.3998 34.4118 5.9998 34.1118 8.5998 34.0118Z" fill="white"/>
<path d="M49.1001 23.1118L50.3001 23.6118L52.9001 21.8118L49.1001 23.1118Z" fill="#E3A82B"/>
<path d="M5.4998 21.1118L2.3998 20.0118L2.5998 19.6118L5.9998 20.8118L6.4998 20.5118H6.6998L2.8998 18.8118L3.0998 18.4118L11.4998 21.8118H11.7998L3.3998 17.6118L3.5998 17.2118L12.4998 21.3118H12.5998L3.9998 16.4118L4.1998 16.0118L16.5998 22.8118L16.9998 22.1118C13.9998 19.3118 10.8998 16.7118 7.6998 14.3118C11.0998 16.5118 14.5998 18.5118 18.1998 20.3118L18.6998 19.6118L8.1998 10.4118L8.4998 10.1118L16.9998 17.4118L9.0998 9.51175L9.3998 9.21175L18.2998 17.8118L9.9998 8.61175L10.2998 8.31175L17.9998 16.5118L10.9998 7.71175L11.2998 7.41175L20.2998 18.3118L20.9998 17.8118C19.2998 14.1118 17.3998 10.6118 15.2998 7.11175C17.5998 10.4118 20.0998 13.6118 22.6998 16.6118L23.4998 16.2118L17.0998 3.71175L17.4998 3.51175L22.6998 13.5118L18.2998 3.11175L18.6998 2.91175L23.6998 14.2118L19.4998 2.61175H19.8998L23.8998 13.1118L20.6998 2.21175H21.0998L25.2998 15.6118L26.1998 15.4118C25.9998 11.3118 25.5998 7.21175 24.8998 3.21175C25.7998 7.11175 26.8998 10.9118 28.1998 14.7118H28.9998L27.8998 0.711751H28.2998L29.3998 11.9118L29.1998 0.711751H29.5998L29.9998 13.1118L30.3998 0.711751H30.9998L30.7998 11.9118L31.7998 0.711751H32.1998L31.0998 14.7118H31.9998C33.2998 11.0118 34.3998 7.21175 35.2998 3.31175C34.6998 7.21175 34.1998 11.2118 33.9998 15.2118L34.7998 15.5118L38.9998 2.11175H39.3998L36.1998 13.0118L40.1998 2.51175H40.5998L36.3998 14.3118L41.3998 3.01175L41.7998 3.21175L37.4998 13.5118L42.6998 3.51175L43.0998 3.71175L36.7998 16.2118L37.5998 16.6118C40.1998 13.6118 42.6998 10.5118 44.9998 7.21175C42.8998 10.6118 41.0998 14.2118 39.3998 17.8118L40.0998 18.4118L48.7998 7.51175L49.0998 7.81175L42.0998 16.6118L49.7998 8.41175L50.0998 8.71175L41.7998 17.9118L50.6998 9.31175L50.9998 9.61175L43.0998 17.5118L51.5998 10.2118L51.8998 10.5118L41.4998 19.7118L41.9998 20.3118C45.5998 18.5118 48.9998 16.5118 52.3998 14.3118C49.1998 16.7118 46.0998 19.3118 43.1998 22.0118L43.6998 22.8118L55.8998 16.1118L56.0998 16.5118L46.2998 22.0118L56.4998 17.3118L56.6998 17.7118L47.1998 22.3118H47.3998L56.9998 18.5118L57.1998 18.9118L48.1998 22.7118H48.3998L54.3998 20.7118L55.2998 20.1118L55.5998 20.3118L57.5998 19.7118L57.7998 20.1118L56.0998 20.7118L58.4998 22.6118L59.2998 23.0118C55.3998 6.91175 39.1998 -2.98825 23.0998 0.811751C11.8998 3.51175 3.1998 12.4118 0.799805 23.7118L1.1998 23.5118H1.3998L5.4998 21.1118Z" fill="#E3A82B"/>
<path d="M0.499851 35.5118C3.19985 35.0118 5.89985 34.7118 8.59985 34.6118C18.2999 34.6118 31.7998 40.1118 41.5998 40.1118C48.7998 40.1118 55.7998 38.1118 59.5998 35.3118C60.2998 31.2118 60.1999 27.1118 59.1999 23.1118L55.0998 20.8118L50.2999 24.1118L47.0998 22.9118C45.9998 23.4118 39.2999 27.9118 39.2999 27.9118L36.6999 26.0118L33.9999 25.5118L30.2999 22.8118L26.0999 25.7118L21.1999 28.4118C20.9999 28.4118 15.4999 24.0118 15.4999 24.0118L12.9999 21.4118L10.7999 22.5118H10.6999L8.99985 22.0118L6.99985 20.9118L0.799851 23.7118H0.699851C-0.100149 27.6118 -0.200149 31.6118 0.499851 35.5118Z" fill="#65799E"/>
<path d="M99.2998 19.4117H98.6998C98.4998 19.7117 98.4998 20.0117 98.6998 20.3117H103.5C103.6 20.2117 103.7 20.0117 103.7 19.8117C103.7 19.6117 103.6 19.5117 103.5 19.4117H102.9C102.1 19.4117 102.1 19.2117 102.1 17.6117V12.0117C102.1 10.4117 102.1 10.0117 102.9 10.0117H103.4C103.6 10.0117 103.7 10.0117 103.7 9.71174C103.7 9.41174 103.5 9.31174 103.3 9.31174H98.6998C98.5998 9.41174 98.4998 9.61174 98.4998 9.81174C98.4998 9.91174 98.5998 10.0117 98.6998 10.0117H99.2998C100.1 10.0117 100.1 10.3117 100.1 11.8117V17.5117C100.1 19.3117 100.1 19.3117 99.2998 19.4117ZM87.3998 19.4117H86.6998C86.4998 19.7117 86.4998 20.0117 86.6998 20.3117H91.8998C92.0998 20.0117 92.0998 19.7117 91.8998 19.4117H90.9998C90.2998 19.4117 90.2998 19.1117 90.2998 18.4117V15.2117H90.4998C91.6998 15.2117 91.6998 15.2117 92.1998 16.2117L94.1998 19.7117C94.3998 20.1117 94.6998 20.3117 95.0998 20.3117H97.4998C97.6998 20.1117 97.7998 19.7117 97.5998 19.4117H96.7998C96.3998 19.3117 96.2998 19.1117 95.9998 18.7117L94.3998 16.0117L93.7998 14.9117C95.1998 14.7117 96.1998 13.5117 96.2998 12.1117C96.2998 10.0117 94.1998 9.31174 92.3998 9.31174H86.6998V9.51174C86.6998 9.71174 86.6998 10.0117 86.8998 10.1117H87.4998C88.3998 10.2117 88.3998 10.2117 88.3998 11.1117V18.2117C88.1998 19.3117 88.0998 19.4117 87.3998 19.4117ZM90.2998 10.3117H91.4998C92.6998 10.3117 93.8998 10.9117 93.8998 12.2117C93.8998 12.8117 93.6998 13.4117 93.1998 13.7117C92.5998 14.0117 91.9998 14.2117 91.2998 14.2117H90.2998V10.3117ZM153.9 34.5117H153.5C153.1 34.4117 153 33.9117 152.8 33.4117V33.2117L149.3 24.9117C149.3 24.9117 149.1 24.3117 148.8 24.3117C148.5 24.3117 148.2 24.8117 148.1 25.0117L144.7 33.5117C144.5 34.0117 144.3 34.5117 143.9 34.5117H143C142.8 34.8117 142.7 35.1117 142.9 35.4117H146.8C147 35.1117 147 34.8117 146.8 34.5117H146.1C145.6 34.5117 145.6 34.4117 145.6 34.2117C145.6 34.0117 145.7 33.9117 145.8 33.7117L146.3 32.4117C146.3 32.4117 146.5 31.8117 146.8 31.8117H149.5C150 31.8117 150.1 32.5117 150.1 32.5117L150.5 33.6117L150.8 34.3117C150.8 34.4117 150.7 34.6117 150.1 34.6117H149.2C149 34.9117 149 35.2117 149.2 35.5117H154C154.3 35.5117 154.3 35.3117 154.3 34.9117C154.3 34.7117 154.2 34.6117 154 34.6117L153.9 34.5117ZM149.2 30.5117H146.8L148 27.3117L149.3 30.5117H149.2ZM104.2 11.6117C104.3 11.8117 104.5 11.9117 104.7 11.9117C104.7 11.9117 105 12.0117 105.1 11.8117C105.3 11.4117 105.5 11.0117 105.7 10.7117C106.2 10.3117 106.8 10.1117 107.4 10.2117H108.5V18.4117C108.5 19.1117 108.5 19.4117 107.9 19.4117H107C106.8 19.7117 106.8 20.0117 107 20.3117H112C112.1 20.2117 112.2 20.0117 112.2 19.8117C112.2 19.6117 112.1 19.5117 112 19.4117H111.3C110.6 19.4117 110.6 19.1117 110.6 17.9117V10.2117H112C112.6 10.1117 113.1 10.4117 113.5 10.8117C113.7 11.0117 113.8 11.4117 113.8 11.7117H114.8C114.8 11.0117 114.8 10.2117 115 9.51174V9.11174H114.1C113.9 9.41174 113.9 9.41174 113.1 9.41174H106.8C106 9.41174 105.8 9.41174 105.7 9.11174H104.8C104.7 9.81174 104.5 10.5117 104.2 11.2117C104.2 11.3117 104.2 11.5117 104.2 11.6117ZM122.5 20.1117C123.5 20.5117 124.5 20.6117 125.5 20.6117H125.7C128.3 20.6117 130 19.2117 130 17.3117C130 15.4117 129.2 14.8117 127.4 13.9117L125.9 13.1117C125.2 12.7117 124.4 12.1117 124.4 11.4117C124.4 10.7117 125.1 9.91174 126.4 9.91174H126.7C127.7 9.91174 128.5 10.6117 128.7 11.5117H129.8V11.3117C129.8 10.6117 129.7 9.91174 129.4 9.21174H128.5L126.7 9.01174C123.8 9.11174 122.5 10.6117 122.6 12.2117C122.8 13.5117 123.6 14.7117 124.9 15.2117L126.7 16.2117C128 16.9117 128.1 17.6117 128.1 18.2117C128.1 18.8117 127.5 19.8117 126 19.8117C124.7 19.8117 123.5 19.0117 123.1 17.7117C123 17.5117 122.9 17.4117 122.7 17.4117H122C122 18.2117 122.2 19.0117 122.5 19.7117V20.1117ZM116.5 19.5117H116.1C115.9 19.7117 115.9 20.1117 116.1 20.3117H120.9C121 20.2117 121.1 20.0117 121.1 19.8117C121.1 19.6117 121 19.5117 120.9 19.4117H120.3C119.5 19.3117 119.5 19.3117 119.5 17.7117V12.1117C119.5 10.4117 119.5 10.1117 120.3 10.1117H120.8C121 10.0117 121.2 10.0117 121.1 9.71174C121.1 9.51174 120.9 9.31174 120.7 9.31174H116.1C116 9.41174 115.9 9.61174 115.9 9.81174C115.9 10.0117 116 10.0117 116.1 10.1117H116.7C117.5 10.1117 117.5 10.2117 117.5 11.9117V17.5117C117.4 19.3117 117.4 19.3117 116.6 19.4117L116.5 19.5117ZM131.3 10.2117H131.9C132.5 10.2117 132.6 10.3117 132.6 12.0117V18.1117C132.6 19.3117 132.5 19.4117 131.9 19.4117H131.3C131.1 19.7117 131.1 20.0117 131.3 20.3117H135.9C136 20.2117 136.1 20.0117 136.1 19.8117C136.1 19.6117 136 19.5117 135.9 19.4117H135.4C134.9 19.4117 134.7 19.2117 134.7 17.7117V15.5117C134.7 15.4117 134.7 15.4117 134.7 15.3117H140.5C140.5 15.4117 140.5 18.1117 140.5 18.1117C140.5 18.1117 140.5 19.4117 139.8 19.4117H139.3C139.1 19.7117 139.1 20.0117 139.3 20.3117H143.8C143.9 20.2117 144 20.0117 144 19.8117C144 19.6117 143.9 19.5117 143.8 19.4117H143.2C142.5 19.4117 142.5 19.3117 142.5 17.8117V11.9117C142.5 10.3117 142.5 10.3117 143.2 10.2117H143.6C143.8 10.2117 144 9.91174 143.9 9.71174C143.9 9.51174 143.7 9.31174 143.5 9.31174H139.2C139.1 9.41174 139 9.51174 139 9.71174C139 9.91174 139.1 10.1117 139.2 10.2117H139.6C140.4 10.2117 140.4 10.3117 140.4 11.9117C140.4 11.9117 140.4 13.9117 140.4 14.0117H134.6C134.6 13.9117 134.6 12.0117 134.6 12.0117C134.6 10.4117 134.6 10.2117 135.2 10.2117H135.7C136 10.2117 136 10.0117 136 9.71174C136 9.41174 136 9.31174 135.6 9.31174H131.3C131.2 9.41174 131.1 9.51174 131.1 9.71174C131.1 9.91174 131.2 10.1117 131.3 10.2117ZM141.5 25.2117H142C142.2 25.2117 142.3 25.0117 142.3 24.8117C142.3 24.6117 142 24.4117 141.8 24.4117H137.1C136.9 24.6117 136.9 24.8117 136.9 25.0117C136.9 25.1117 137 25.2117 137.1 25.3117H137.7C138.5 25.3117 138.5 25.4117 138.5 27.2117V32.9117C138.5 34.5117 138.5 34.5117 137.7 34.6117H137.1C136.9 34.9117 136.9 35.2117 137.1 35.5117H142C142.1 35.4117 142.2 35.2117 142.2 35.0117C142.2 34.8117 142.1 34.7117 142 34.6117H141.4C140.6 34.5117 140.6 34.5117 140.6 32.9117V27.1117C140.6 25.4117 140.6 25.2117 141.2 25.2117H141.5ZM99.0998 32.7117H98.2998C98.0998 33.3117 97.6998 33.8117 97.1998 34.2117C96.5998 34.4117 96.0998 34.4117 95.4998 34.4117H95.2998C94.6998 34.5117 94.1998 34.4117 93.6998 34.1117C93.4998 33.9117 93.2998 33.7117 93.2998 32.7117V27.0117C93.2998 25.4117 93.4998 25.3117 94.2998 25.3117H94.7998C94.9998 25.3117 95.0998 25.2117 95.0998 24.8117C95.0998 24.6117 94.8998 24.4117 94.6998 24.4117H89.7998C89.6998 24.5117 89.5998 24.7117 89.5998 24.9117C89.5998 25.1117 89.6998 25.2117 89.7998 25.3117H90.3998C91.2998 25.3117 91.2998 25.4117 91.2998 27.1117V32.9117C91.2998 34.5117 91.2998 34.6117 90.4998 34.6117H89.7998C89.5998 34.9117 89.5998 35.2117 89.7998 35.5117H98.5998C98.8998 34.8117 99.1998 34.0117 99.3998 33.2117C99.4998 33.0117 99.2998 32.8117 99.0998 32.7117ZM88.2998 25.8117C87.0998 24.6117 85.3998 23.9117 83.6998 24.0117H83.3998C80.1998 24.0117 77.5998 26.6117 77.5998 29.8117C77.5998 29.9117 77.5998 29.9117 77.5998 30.0117C77.5998 32.9117 79.5998 35.7117 83.6998 35.7117H83.8998C87.1998 35.8117 89.7998 33.2117 89.8998 29.9117C89.8998 28.4117 89.3998 26.9117 88.2998 25.8117ZM83.8998 34.7117C82.2998 34.7117 79.6998 33.5117 79.6998 29.4117C79.6998 25.3117 81.8998 25.0117 83.3998 25.0117C84.8998 25.0117 87.6998 27.1117 87.6998 29.9117V30.4117C87.5998 32.6117 86.4998 34.7117 83.8998 34.7117ZM125.7 34.5117H125.1L124.5 34.3117C124.4 34.2117 124.3 34.1117 124.3 33.9117V26.2117C124.3 25.9117 124.3 25.7117 124.4 25.4117C124.5 25.2117 125.5 25.2117 125.5 25.2117C125.5 25.2117 125.7 25.1117 125.7 25.0117C125.7 24.9117 125.8 24.5117 125.6 24.3117H123C122.5 24.3117 122.4 24.6117 122.3 24.9117L118.8 32.3117L115.8 24.9117C115.7 24.5117 115.5 24.3117 115.2 24.3117H112L111.7 24.5117C111.7 24.8117 111.6 25.0117 111.9 25.2117H112.9C113.1 25.2117 113.2 25.4117 113.2 25.9117L113 33.5117C112.9 34.3117 112.8 34.5117 112.2 34.5117H111.4C111.2 34.8117 111.3 35.1117 111.5 35.4117H115.7C115.9 35.1117 115.9 34.8117 115.7 34.5117H114.9C114.7 34.5117 114.4 34.4117 114.3 34.2117C114.1 33.8117 114.1 33.3117 114.2 32.8117V26.5117L117.6 34.9117C117.7 35.1117 117.9 35.2117 118.1 35.2117H118.5L122.4 26.7117V33.5117C122.4 33.7117 122.4 33.8117 122.4 34.0117C122.4 34.2117 122.3 34.3117 122.2 34.4117L121.6 34.6117H120.8C120.6 34.9117 120.6 35.2117 120.8 35.5117H125.8C126 35.2117 126 34.8117 125.7 34.5117ZM110.7 24.3117H106.5C106.3 24.5117 106.2 24.8117 106.4 25.1117H107.7C107.9 25.4117 107.9 28.6117 107.9 30.3117C107.9 32.0117 106.3 34.3117 104.8 34.3117C103.3 34.3117 101.8 33.1117 101.8 30.3117V26.6117C101.8 25.3117 101.8 25.2117 102.5 25.2117H103.1C103.3 25.1117 103.4 25.0117 103.3 24.7117C103.2 24.4117 103.2 24.3117 103 24.3117H98.3998C98.2998 24.4117 98.1998 24.6117 98.1998 24.8117C98.1998 25.0117 98.2998 25.1117 98.3998 25.2117H99.0998C99.7998 25.2117 99.7998 25.2117 99.7998 26.8117V30.7117C99.6998 32.2117 100.3 33.7117 101.4 34.7117C102.3 35.3117 103.3 35.7117 104.4 35.7117H104.7C106 35.7117 107.2 35.2117 108.2 34.4117C109.2 33.3117 109.3 32.3117 109.3 30.3117C109.3 28.7117 109.4 27.0117 109.5 25.4117C109.6 25.3117 109.8 25.2117 110 25.2117H110.7C110.9 25.1117 110.9 25.0117 110.9 24.7117C110.9 24.5117 110.8 24.4117 110.7 24.3117ZM75.8998 8.61174C76.4998 8.61174 76.5998 8.71174 76.5998 10.1117V17.3117C76.5998 19.2117 76.5998 19.2117 75.6998 19.4117H75.0998C74.8998 19.6117 74.7998 19.9117 74.9998 20.2117H80.1998C83.8998 20.2117 85.9998 18.7117 85.9998 16.1117C85.8998 14.5117 84.6998 13.1117 83.0998 12.9117C84.1998 12.5117 84.8998 11.5117 84.8998 10.3117C84.7998 9.31174 84.2998 8.51174 83.3998 8.01174C82.3998 7.61174 81.3998 7.41174 80.2998 7.41174H79.7998L75.2998 7.61174C75.1998 7.61174 74.9998 7.81174 74.9998 7.91174C74.8998 8.21174 74.9998 8.41174 75.1998 8.61174H75.8998V8.61174ZM83.6998 16.9117C83.6998 18.8117 82.0998 19.2117 80.6998 19.2117H80.4998C80.0998 19.2117 79.5998 19.1117 79.2998 18.8117C78.9998 18.3117 78.8998 17.6117 78.8998 17.0117V14.2117H79.7998C83.1998 14.0117 83.6998 15.9117 83.6998 16.9117ZM78.8998 8.71174H79.8998C81.1998 8.71174 82.6998 9.31174 82.6998 10.9117C82.6998 12.5117 82.1998 12.9117 79.6998 13.0117H78.8998V8.91174C78.8998 8.81174 78.8998 8.81174 78.8998 8.71174ZM76.5998 31.8117H76.0998C75.5998 33.4117 74.0998 34.4117 72.4998 34.4117H72.2998C68.9998 34.4117 66.7998 31.9117 66.7998 28.3117C66.5998 25.4117 68.8998 22.9117 71.7998 22.7117C71.8998 22.7117 71.8998 22.7117 71.9998 22.7117C74.4998 22.7117 75.2998 23.6117 75.6998 25.3117H76.8998C76.6998 24.4117 76.5998 23.4117 76.5998 22.5117V22.2117H75.8998C74.7998 21.9117 73.5998 21.7117 72.3998 21.7117H71.9998C70.0998 21.7117 68.2998 22.3117 66.7998 23.4117C65.1998 24.7117 64.1998 26.8117 64.2998 28.9117C64.1998 31.1117 65.2998 33.3117 67.1998 34.5117C68.5998 35.4117 70.1998 35.9117 71.8998 35.9117H72.1998C73.2998 35.9117 74.3998 35.7117 75.3998 35.4117L75.9998 35.2117H76.1998C76.6998 34.3117 77.0998 33.4117 77.1998 32.4117C77.1998 32.1117 76.8998 31.8117 76.5998 31.8117ZM134.3 29.2117C135.5 28.7117 136.1 27.3117 135.6 26.1117C135.3 25.4117 134.8 24.9117 134.2 24.7117C133.2 24.4117 132.2 24.3117 131.2 24.3117H126.9L126.6 24.5117C126.5 24.7117 126.5 25.0117 126.7 25.2117H127.5C128.1 25.2117 128.1 25.3117 128.1 26.5117V32.8117C128.1 34.4117 128.1 34.4117 127.4 34.5117H126.9C126.8 34.6117 126.7 34.7117 126.7 34.9117C126.7 35.1117 126.8 35.3117 126.9 35.4117H131.6C135.8 35.4117 136.8 34.5117 136.8 31.8117C136.6 30.5117 135.5 29.4117 134.2 29.2117H134.3ZM130.2 25.2117H131.1C132.3 25.2117 133.7 25.7117 133.7 27.1117C133.7 28.5117 133.1 28.9117 130.9 28.9117H130.2V25.2117ZM130.6 34.2117C130.3 34.0117 130.1 33.2117 130.1 32.7117V30.0117H131.1C133.9 30.0117 134.5 31.4117 134.5 32.6117C134.5 33.8117 133 34.5117 131.7 34.5117C131.3 34.5117 130.9 34.4117 130.6 34.2117Z" fill="white"/>
</svg>
