<?xml version="1.0" encoding="UTF-8"?> <!--Generator: Apple Native CoreSVG 232.5--> <!DOCTYPE svg PUBLIC "-//W3C//DTD SVG 1.1//EN" "http://www.w3.org/Graphics/SVG/1.1/DTD/svg11.dtd"> <svg version="1.1" xmlns="http://www.w3.org/2000/svg" xmlns:xlink="http://www.w3.org/1999/xlink" width="28.2991" height="27.92"> <g> <rect height="27.92" opacity="0" width="28.2991" x="0" y="0"/> <path d="M13.9545 27.9091C21.5927 27.9091 27.9231 21.5927 27.9231 13.9545C27.9231 6.3164 21.5787 0 13.9405 0C6.3164 0 0 6.3164 0 13.9545C0 21.5927 6.33042 27.9091 13.9545 27.9091ZM13.9545 24.8869C7.89857 24.8869 3.05018 20.0245 3.05018 13.9545C3.05018 7.88456 7.88456 3.02215 13.9405 3.02215C20.0105 3.02215 24.8869 7.88456 24.8869 13.9545C24.8869 20.0245 20.0245 24.8869 13.9545 24.8869Z" fill="#ffffff"/> <path d="M9.60892 19.6383C9.99378 19.6383 10.326 19.5094 10.5618 19.2456L13.9405 15.8559L17.3363 19.2456C17.5861 19.4954 17.9043 19.6383 18.3032 19.6383C19.0405 19.6383 19.6335 19.0453 19.6335 18.2909C19.6335 17.9276 19.4845 17.6203 19.2377 17.3595L15.8529 13.9716L19.2517 10.5557C19.5125 10.2949 19.6475 9.98763 19.6475 9.63832C19.6475 8.88397 19.0545 8.30497 18.3172 8.30497C17.9464 8.30497 17.6562 8.41981 17.3783 8.69769L13.9405 12.1044L10.5478 8.71171C10.298 8.44784 9.99378 8.31899 9.60892 8.31899C8.87167 8.31899 8.27865 8.89799 8.27865 9.65233C8.27865 10.0016 8.42768 10.3229 8.67445 10.5697L12.0624 13.9716L8.67445 17.3735C8.42768 17.6203 8.27865 17.9416 8.27865 18.2909C8.27865 19.0453 8.87167 19.6383 9.60892 19.6383Z" fill="#ffffff"/> </g> </svg>
