<svg width="184" height="113" viewBox="0 0 184 113" fill="none" xmlns="http://www.w3.org/2000/svg">
<path d="M40.9369 14.9416L6.66235 37.8691L40.4226 88.3377L74.6972 65.4102L40.9369 14.9416Z" fill="#F5F5F5"/>
<path d="M56.9857 63.0234L56.5978 65.4306L39.5583 62.9745L39.9463 60.5674L56.9857 63.0234Z" fill="#E0E0E0"/>
<path d="M48.4048 54.4365L50.8486 54.7878L48.139 71.5645L45.6921 71.2102L48.4048 54.4365Z" fill="#E0E0E0"/>
<path d="M32.7248 33.1142C32.7493 33.1478 29.3157 35.4908 25.0544 38.3378C20.793 41.1849 17.3197 43.4698 17.2953 43.4332C17.2709 43.3965 20.7044 41.0566 24.9658 38.2065C29.2272 35.3564 32.6851 33.0775 32.7248 33.1142Z" fill="#E0E0E0"/>
<path d="M45.3164 29.9495C45.3408 29.9861 39.6285 33.8473 32.5598 38.5761C25.4911 43.3049 19.7298 47.108 19.7115 47.0744C19.6931 47.0408 25.3933 43.1735 32.4712 38.4447C39.549 33.716 45.292 29.9128 45.3164 29.9495Z" fill="#E0E0E0"/>
<path d="M47.8428 33.7254C47.8672 33.762 42.1548 37.6263 35.0861 42.355C28.0174 47.0838 22.2562 50.887 22.2378 50.8503C22.2195 50.8136 27.9258 46.9524 34.9975 42.2206C42.0693 37.4888 47.8183 33.6887 47.8428 33.7254Z" fill="#E0E0E0"/>
<path d="M50.3691 37.5037C50.3935 37.5403 44.6811 41.4046 37.6124 46.1303C30.5437 50.856 24.7825 54.6653 24.7825 54.6286C24.7825 54.592 30.4674 50.7277 37.5391 45.9989C44.6109 41.2702 50.3446 37.467 50.3691 37.5037Z" fill="#E0E0E0"/>
<path d="M52.8863 41.283C52.9108 41.3196 47.1984 45.1808 40.1297 49.9096C33.061 54.6383 27.2997 58.4415 27.2845 58.4049C27.2692 58.3682 32.9785 54.507 40.0564 49.7782C47.1342 45.0495 52.8863 41.2463 52.8863 41.283Z" fill="#E0E0E0"/>
<path d="M155.547 48.7592L126.762 68.0146L155.114 110.399L183.899 91.1435L155.547 48.7592Z" fill="#F5F5F5"/>
<path d="M169.028 89.1479L168.701 91.1701L154.389 89.1082L154.719 87.0859L169.028 89.1479Z" fill="#E0E0E0"/>
<path d="M161.822 81.9355L163.875 82.2319L161.599 96.3204L159.543 96.0241L161.822 81.9355Z" fill="#E0E0E0"/>
<path d="M148.64 64.0435C148.665 64.0802 145.784 66.0505 142.204 68.4423C138.624 70.8342 135.704 72.7465 135.679 72.719C135.655 72.6915 138.538 70.7151 142.115 68.3202C145.693 65.9252 148.616 63.9916 148.64 64.0435Z" fill="#E0E0E0"/>
<path d="M159.225 61.3709C159.25 61.4076 154.457 64.6578 148.534 68.626C142.61 72.5941 137.763 75.7893 137.738 75.7527C137.714 75.716 142.507 72.4658 148.43 68.4946C154.353 64.5234 159.192 61.3343 159.225 61.3709Z" fill="#E0E0E0"/>
<path d="M161.348 64.5418C161.373 64.5784 156.58 67.8287 150.657 71.7999C144.734 75.771 139.886 78.9602 139.861 78.9235C139.837 78.8869 144.614 75.6519 150.553 71.6807C156.491 67.7095 161.33 64.5082 161.348 64.5418Z" fill="#E0E0E0"/>
<path d="M163.468 67.7097C163.493 67.7463 158.697 70.9966 152.777 74.9678C146.856 78.939 142.005 82.1281 141.981 82.0915C141.957 82.0548 146.75 78.8076 152.673 74.8334C158.596 70.8591 163.447 67.6791 163.468 67.7097Z" fill="#E0E0E0"/>
<path d="M165.607 70.889C165.631 70.9256 160.838 74.1728 154.915 78.144C148.992 82.1152 144.144 85.3044 144.119 85.2708C144.095 85.2371 148.888 81.9838 154.811 78.0127C160.734 74.0415 165.567 70.8523 165.607 70.889Z" fill="#E0E0E0"/>
<path d="M110.007 16.7986L78.5991 0L53.8637 46.2477L85.2719 63.0463L110.007 16.7986Z" fill="#F5F5F5"/>
<path d="M79.8963 48.5774L77.9046 49.2586L72.8459 35.277L74.8407 34.5928L79.8963 48.5774Z" fill="#E0E0E0"/>
<path d="M82.9511 38.5459L83.6781 40.5529L69.7912 45.3091L69.0642 43.3021L82.9511 38.5459Z" fill="#E0E0E0"/>
<path d="M92.8178 17.9169C92.7934 17.9627 89.6103 16.3071 85.7033 14.2207C81.7963 12.1343 78.6529 10.4022 78.6774 10.3564C78.7018 10.3106 81.8879 11.9663 85.795 14.0526C89.702 16.139 92.8423 17.868 92.8178 17.9169Z" fill="#E0E0E0"/>
<path d="M100.357 26.235C100.333 26.2808 95.0601 23.5071 88.581 20.043C82.1019 16.579 76.8721 13.7319 76.8966 13.6861C76.921 13.6403 82.1905 16.4109 88.6696 19.8781C95.1487 23.3452 100.381 26.1892 100.357 26.235Z" fill="#E0E0E0"/>
<path d="M98.5057 29.696C98.4813 29.7418 93.2088 26.9711 86.7297 23.504C80.2505 20.0368 75.0208 17.1929 75.0453 17.147C75.0697 17.1012 80.3391 19.8749 86.8183 23.339C93.2974 26.8031 98.5302 29.6501 98.5057 29.696Z" fill="#E0E0E0"/>
<path d="M96.6547 33.157C96.6302 33.2028 91.3577 30.4322 84.8786 26.9681C78.3995 23.504 73.1697 20.6661 73.1942 20.6112C73.2186 20.5562 78.4881 23.336 84.9672 26.8001C91.4463 30.2642 96.6791 33.1112 96.6547 33.157Z" fill="#E0E0E0"/>
<path d="M94.8036 36.6182C94.7792 36.664 89.5067 33.8934 83.0276 30.4293C76.5484 26.9652 71.3156 24.1182 71.3431 24.0723C71.3706 24.0265 76.637 26.7972 83.1161 30.2613C89.5953 33.7254 94.8281 36.5724 94.8036 36.6182Z" fill="#E0E0E0"/>
<path d="M176.503 111.951C176.503 111.994 137.02 112.03 88.3245 112.03C39.6287 112.03 0.139893 112.003 0.139893 111.951C0.139893 111.899 39.6164 111.872 88.3245 111.872C137.032 111.872 176.503 111.905 176.503 111.951Z" fill="#263238"/>
<path d="M65.1052 49.2401L54.2914 104.776L52.8862 112.046L124.978 111.698C128.216 111.682 131.088 108.808 132.123 104.537L144.911 52.1085C145.702 48.8674 143.967 45.495 141.511 45.498L68.5266 45.5744C66.9381 45.5714 65.5146 47.0743 65.1052 49.2401Z" fill="#FCBA19"/>
<g opacity="0.5">
<path d="M65.1052 49.2401L54.2914 104.776L52.8862 112.046L124.978 111.698C128.216 111.682 131.088 108.808 132.123 104.537L144.911 52.1085C145.702 48.8674 143.967 45.495 141.511 45.498L68.5266 45.5744C66.9381 45.5714 65.5146 47.0743 65.1052 49.2401Z" fill="black"/>
</g>
<path d="M118.072 101.006L110.435 39.4807C110.129 36.9605 108.116 35.0788 105.743 35.0879L89.0026 35.1399C88.3805 35.1469 87.7663 35.2805 87.1976 35.5326C86.6288 35.7847 86.1173 36.1499 85.6943 36.6061L77.7519 45.0586L31.1975 45.3091C28.3536 45.3244 26.1664 48.0187 26.5421 51.0429L33.6322 107.907C33.9377 110.424 35.9507 112.303 38.3182 112.3L119.468 112.138C128.504 112.324 129.368 109.657 129.368 109.657C118.994 111.952 118.072 101.022 118.072 101.006Z" fill="#FCBA19"/>
<g opacity="0.5">
<path d="M83.0795 88.7017L80.3424 91.6404L59.2646 72.6765L62.0017 69.7378L83.0795 88.7017Z" fill="white"/>
<path d="M79.1969 69.0869L82.2211 71.8087L63.1503 92.2908L60.123 89.569L79.1969 69.0869Z" fill="white"/>
</g>
</svg>
