<svg width="564" height="662" viewBox="0 0 564 662" fill="none" xmlns="http://www.w3.org/2000/svg">
<path opacity="0.1" fill-rule="evenodd" clip-rule="evenodd" d="M264.002 59.3308C314.091 66.5549 368.873 54.1594 410.972 82.244C452.86 110.188 463.271 164.763 487.888 208.688C515.11 257.26 566.822 298.394 563.252 353.959C559.665 409.792 502.621 443.957 469.859 489.309C433.274 539.954 419.538 618.885 359.468 636.059C299.336 653.251 242.123 601.177 187.961 569.907C144.549 544.842 109.233 511.363 76.9971 472.974C45.2322 435.146 10.943 397.188 2.11588 348.587C-6.86517 299.138 14.8385 251.657 27.991 203.151C43.8143 144.795 35.3724 66.9827 87.0043 35.5194C138.891 3.90079 203.863 50.6571 264.002 59.3308Z" fill="#1A5A96"/>
<path d="M221.742 260.903L221.251 260.952C216.664 261.373 193.752 270.616 176.583 248.623C176.583 248.623 187.749 203.737 204.749 202.075C204.749 202.075 212.323 199.361 219.659 201.697C226.995 204.032 243.076 207.742 249.907 198.407C249.907 198.407 260.743 211.908 267.406 213.409C267.406 213.409 277.926 213.577 287.239 193.912C287.239 193.912 294.905 200.112 301.736 199.775C308.567 199.438 323.905 194.241 332.734 198.744C341.564 203.247 348.732 204.909 362.232 245.403C362.232 245.403 346.901 267.236 315.573 258.729L315.903 281.059L220.914 280.898L221.742 260.903Z" fill="#477FB5"/>
<path d="M237.872 169.779C237.872 169.779 239.205 182.782 251.373 198.442L246.87 202.447C246.87 202.447 248.371 232.773 269.867 237.107C269.867 237.107 282.203 239.106 287.533 225.275C290.822 216.489 292.843 207.279 293.537 197.923C293.537 197.923 286.699 196.423 288.031 193.26C289.364 190.097 296.083 172.444 296.083 172.444L293.916 146.446L245.419 141.452C242.243 145.38 239.93 149.932 238.63 154.812C237.33 159.693 237.072 164.792 237.872 169.779Z" fill="white"/>
<path d="M248.806 200.988C248.806 200.988 262.559 220.857 271.536 216.866C280.513 212.876 289.771 196.24 289.771 196.24L286.769 193.996C286.769 193.996 277.897 210.989 269.145 212.231C269.145 212.231 263.064 215.394 251.359 198.435L248.771 200.981" fill="#6B96BE"/>
<path d="M239.563 179.114C239.563 179.114 248.806 164.617 248.561 156.363C248.561 156.363 286.054 158.866 291.931 155.114L296.083 172.444L293.586 148.368C293.586 148.368 258.961 150.472 256.71 148.865C254.459 147.259 246.464 142.988 246.464 142.988L237.466 172.865L239.563 179.114Z" fill="#6B96BE"/>
<path d="M400.623 2V76.2498H248.308L225.143 91.9876L230.389 76.2498H224.393V2H400.623Z" fill="white"/>
<path d="M224.393 2C224.393 2 241.302 71.4316 400.623 46.9973V76.2428H248.301L225.157 91.9876L230.403 76.2428H224.407L224.393 2Z" fill="#C7DDF2"/>
<path d="M400.623 2V76.2498H248.308L225.143 91.9876L230.389 76.2498H224.393V2H400.623Z" stroke="#222221" stroke-width="3" stroke-linejoin="bevel"/>
<path d="M425.408 653.711H432.905L432.905 399.738H425.408L425.408 653.711Z" fill="white" stroke="#222221" stroke-width="3" stroke-linejoin="bevel"/>
<path d="M408.913 611.098H415.379V399.738H408.913V611.098Z" fill="white" stroke="#222221" stroke-width="3" stroke-linejoin="bevel"/>
<path d="M130.218 403.736H122.721V659.714H130.218V403.736Z" fill="white" stroke="#222221" stroke-width="3" stroke-linejoin="bevel"/>
<path d="M146.721 403.736H140.254V616.765H146.721V403.736Z" fill="white" stroke="#222221" stroke-width="3" stroke-linejoin="bevel"/>
<path d="M360.43 321.393L406.591 321.743L434.09 397.732L121.368 395.481L139.616 319.737L172.284 319.983" fill="white"/>
<path d="M360.43 321.393L406.591 321.743L434.09 397.732L121.368 395.481L139.616 319.737L172.284 319.983" stroke="#222221" stroke-width="3" stroke-linejoin="bevel"/>
<path d="M178.575 253.16L166.407 306.16C166.407 306.16 165.074 313.825 169.914 317.493C174.753 321.161 201.403 334.823 201.403 334.823L191.234 281.157L197.897 280.687L203.065 264.024C203.065 264.024 184.571 257.992 178.575 253.16Z" fill="white"/>
<path d="M187.278 258.245C187.278 258.245 170.783 302.239 179.115 310.571C187.447 318.903 200.947 327.073 200.947 327.073L201.775 334.571L172.95 319.408C172.95 319.408 164.45 314.239 165.937 307.576C167.424 300.914 173.434 277.573 173.434 277.573L179.599 253.911L187.278 258.245Z" fill="#6B96BE"/>
<path d="M332.601 262.081L339.93 278.745L346.943 280.912L336.949 333.07L366.111 317.907C366.111 317.907 372.423 313.741 371.777 307.906C371.132 302.071 363.614 267.411 363.614 267.411L359.364 250.369C359.364 250.369 344.447 261.59 332.615 262.081" fill="white"/>
<path d="M348.43 258.743C348.43 258.743 363.263 294.076 357.435 301.741C351.607 309.407 339.769 319.071 339.6 319.576C339.432 320.081 336.935 333.904 336.935 333.904L368.93 316.406C368.93 316.406 373.264 309.744 372.598 306.405C371.932 303.067 359.35 250.369 359.35 250.369C359.35 250.369 351.6 258.946 348.43 258.743Z" fill="#6B96BE"/>
<path d="M251.857 565.722L257.538 584.475C258.046 586.152 257.945 587.954 257.254 589.563C256.562 591.172 255.324 592.485 253.758 593.27C252.789 593.753 251.726 594.019 250.643 594.049C249.561 594.078 248.485 593.871 247.491 593.441C246.497 593.012 245.609 592.371 244.889 591.562C244.169 590.753 243.634 589.797 243.322 588.761L236.856 567.216L251.857 565.722Z" fill="white" stroke="#222221" stroke-width="3" stroke-linejoin="bevel"/>
<path d="M221.272 223.817V320.488" stroke="#222221" stroke-width="3" stroke-linejoin="bevel"/>
<path d="M315.706 222.337V320.488" stroke="#222221" stroke-width="3" stroke-linejoin="bevel"/>
<path d="M199.447 320.186L338.934 321.231" stroke="#222221" stroke-width="3" stroke-linejoin="bevel"/>
<path d="M434.14 395.481H120.014V405.98H434.14V395.481Z" fill="#222221"/>
<path d="M213.326 418.372H207.245V599.666H213.326V418.372Z" fill="white" stroke="#222221" stroke-width="3" stroke-linejoin="bevel"/>
<path d="M226.714 418.372H221.468V569.243H226.714V418.372Z" fill="white" stroke="#222221" stroke-width="3" stroke-linejoin="bevel"/>
<path d="M337.756 602.465H343.837V421.171H337.756V602.465Z" fill="white" stroke="#222221" stroke-width="3" stroke-linejoin="bevel"/>
<path d="M324.367 572.048H329.613V421.178H324.367V572.048Z" fill="white" stroke="#222221" stroke-width="3" stroke-linejoin="bevel"/>
<path d="M195.61 402.985C195.61 402.985 227.871 573.219 230.859 574.72C233.847 576.221 260.104 564.2 260.104 564.2L251.857 402.964L195.61 402.985Z" fill="#222221"/>
<path d="M184.361 405.229C184.361 405.229 145.367 433.732 165.636 436.733C185.904 439.735 214.385 405.98 214.385 405.98L184.361 405.229Z" fill="#222221"/>
<path d="M237.606 405.98L272.855 421.732L273.605 405.229L237.606 405.98Z" fill="white" stroke="#222221" stroke-width="3" stroke-linejoin="bevel"/>
<path d="M272.939 405.068L272.855 433.732L287.106 432.981L287.274 405.068H272.939Z" fill="white" stroke="#222221" stroke-width="3" stroke-linejoin="bevel"/>
<path d="M287.106 427.728L378.594 447.232C378.594 447.232 398.098 414.971 365.851 402.985L287.302 405.089L287.106 427.728Z" fill="#222221"/>
<path d="M179.199 252.992L166.337 305.234C165.661 308.126 165.977 311.162 167.235 313.852C168.493 316.543 170.62 318.732 173.273 320.067L202.301 334.711L191.136 280.218L199.131 279.713L203.465 262.881C203.465 262.881 185.862 261.576 179.199 252.992Z" stroke="#222221" stroke-width="3" stroke-linejoin="bevel"/>
<path d="M359.35 250.369L371.932 304.273C372.607 307.166 372.29 310.202 371.032 312.894C369.774 315.585 367.648 317.776 364.995 319.113L335.967 333.75L347.14 279.285L340.968 279.453L331.353 261.92C331.353 261.92 351.488 258.869 359.35 250.369Z" stroke="#222221" stroke-width="3" stroke-linejoin="bevel"/>
<path d="M297.906 160.76C297.906 181.463 278.122 212.715 268.808 212.715C257.755 212.715 236.224 182.501 236.224 161.805C236.224 141.109 248.147 125.448 267.644 125.448C287.141 125.448 297.906 140.029 297.906 160.76Z" stroke="#222221" stroke-width="3" stroke-linejoin="bevel"/>
<path d="M261.241 165.55C261.241 165.55 250.188 157.983 242.038 166.132" stroke="#222221" stroke-width="3" stroke-linejoin="bevel"/>
<path d="M276.957 165.55C276.957 165.55 281.025 159.147 290.921 163.804" stroke="#222221" stroke-width="3" stroke-linejoin="bevel"/>
<path d="M246.478 202.279C245.222 204.79 252.79 238.622 272.911 237.345C293.032 236.069 293.186 197.538 293.186 197.538" stroke="#222221" stroke-width="3" stroke-linejoin="bevel"/>
<path d="M242.08 204.193C240.573 207.202 249.451 247.613 273.535 246.105C297.619 244.597 297.584 199.431 297.584 199.431" stroke="#222221" stroke-width="3" stroke-linejoin="bevel"/>
<path d="M252.839 179.654C253.59 179.654 254.199 178.665 254.199 177.445C254.199 176.225 253.59 175.235 252.839 175.235C252.087 175.235 251.478 176.225 251.478 177.445C251.478 178.665 252.087 179.654 252.839 179.654Z" fill="#222221"/>
<path d="M283.143 179.324C283.894 179.324 284.504 178.335 284.504 177.115C284.504 175.895 283.894 174.906 283.143 174.906C282.392 174.906 281.782 175.895 281.782 177.115C281.782 178.335 282.392 179.324 283.143 179.324Z" fill="#222221"/>
<path d="M257.559 102.367C235.312 113.119 238.812 121.366 233.812 131.62C229.148 141.172 228.559 152.618 237.809 174.611C241.516 165.631 244.444 156.348 246.562 146.867C246.562 146.867 267.293 158.733 292.492 146.074C293.649 152.028 296.616 168.376 295.802 174.864C295.802 174.864 301.869 159.792 298.439 142.666C301.468 140.698 304.346 138.509 307.051 136.115C338.303 108.616 279.805 91.6229 257.559 102.367Z" fill="#222221"/>
<path d="M231.561 109.619C232.079 111.667 232.507 113.687 232.921 115.707C233.335 117.726 233.742 119.718 234.198 121.703C234.653 123.688 235.102 125.658 235.684 127.594C236.252 129.564 236.955 131.493 237.788 133.366C236.228 131.905 234.983 130.142 234.127 128.183C233.237 126.256 232.564 124.235 232.122 122.159C231.661 120.104 231.377 118.013 231.273 115.91C231.141 113.809 231.237 111.699 231.561 109.619Z" fill="#222221"/>
<path d="M240.558 105.867C240.558 105.867 234.057 119.894 237.557 129.866" stroke="#222221" stroke-width="3" stroke-linejoin="bevel"/>
<path d="M296.553 141.866C298.194 142.078 299.785 142.579 301.252 143.346C302.736 144.097 304.106 145.056 305.319 146.193C306.547 147.358 307.558 148.73 308.307 150.247C309.033 151.763 309.375 153.435 309.303 155.114C308.605 153.71 307.796 152.364 306.883 151.089C305.967 149.89 304.961 148.762 303.875 147.715C302.767 146.677 301.595 145.695 300.368 144.742C299.141 143.788 297.878 142.855 296.553 141.866Z" fill="#222221"/>
<path d="M294.056 140.365C295.751 139.711 297.555 139.382 299.372 139.398C301.212 139.382 303.041 139.671 304.786 140.253C306.56 140.846 308.191 141.801 309.576 143.058C309.906 143.388 310.236 143.718 310.551 144.047C310.867 144.377 311.098 144.798 311.365 145.169C311.491 145.366 311.624 145.548 311.736 145.745C311.849 145.941 311.94 146.151 312.031 146.369C312.22 146.783 312.403 147.196 312.557 147.617C312.199 147.316 311.856 147.014 311.561 146.712C311.4 146.565 311.253 146.404 311.105 146.257C310.958 146.109 310.762 145.99 310.593 145.857L309.611 145.057C309.247 144.833 308.91 144.601 308.559 144.356C307.165 143.479 305.669 142.772 304.106 142.252C302.517 141.725 300.89 141.322 299.239 141.046C297.563 140.744 295.844 140.548 294.056 140.365Z" fill="#222221"/>
<path d="M250.644 198.281C250.644 198.281 246.148 208.654 225.711 203.001C205.275 197.348 192.433 198.611 177.25 246.953C177.25 246.953 184.964 269.992 221.749 259.949" stroke="#222221" stroke-width="3" stroke-linejoin="bevel"/>
<path d="M287.667 193.365C289.96 196.303 292.836 201.192 312.298 198.008C332.804 194.655 346.915 196.268 361.762 244.611C361.762 244.611 351.13 267.867 315.145 257.824" stroke="#222221" stroke-width="3" stroke-linejoin="bevel"/>
<path d="M281.72 208.78C284.756 208.78 287.218 207.436 287.218 205.778C287.218 204.121 284.756 202.777 281.72 202.777C278.683 202.777 276.221 204.121 276.221 205.778C276.221 207.436 278.683 208.78 281.72 208.78Z" fill="#222221"/>
<path d="M286.39 205.645C286.39 205.645 296.391 199.81 297.885 173.146" stroke="#222221" stroke-width="3" stroke-linejoin="bevel"/>
<path d="M304.793 153.627C305.951 142.708 305.712 112.179 266.557 112.452C224.337 112.747 226.055 145.731 226.995 153.256C224.949 154.311 223.232 155.909 222.034 157.875C220.835 159.84 220.2 162.098 220.199 164.4V168.187C220.199 171.515 221.521 174.706 223.874 177.059C226.227 179.412 229.418 180.734 232.746 180.734H236.533V151.853H235.242C235.481 144.433 237.879 118.189 260.224 120.784C285.416 123.688 296.525 115.019 299.007 152.674H296.202V181.554H299.989C303.317 181.554 306.508 180.233 308.861 177.88C311.214 175.527 312.536 172.335 312.536 169.008V165.22C312.537 162.739 311.801 160.313 310.423 158.25C309.045 156.186 307.086 154.578 304.793 153.627Z" fill="#477FB5"/>
<path d="M202.645 80.7453H120.652V179.738H202.645V80.7453Z" fill="white"/>
<path d="M244.64 21.2515H377.634" stroke="#222221" stroke-width="3" stroke-linejoin="bevel"/>
<path d="M244.64 28.9661H377.634" stroke="#222221" stroke-width="3" stroke-linejoin="bevel"/>
<path d="M244.64 36.6808H377.634" stroke="#222221" stroke-width="3" stroke-linejoin="bevel"/>
<path d="M244.64 43.6941H377.634" stroke="#222221" stroke-width="3" stroke-linejoin="bevel"/>
<path d="M244.64 50.006H377.634" stroke="#222221" stroke-width="3" stroke-linejoin="bevel"/>
<path d="M463.623 112.992H363.13V233.733H463.623V112.992Z" fill="#477FB5"/>
<path d="M242.361 587.821L244.605 604.323L222.106 641.066C222.106 641.066 225.859 656.067 244.605 646.319C263.352 636.57 261.858 614.822 261.858 614.822L269.355 614.072L260.357 584.819C260.357 584.819 247.607 599.792 242.361 587.821Z" fill="#222221"/>
<path d="M120.652 80.7453C120.652 80.7453 153.65 160.451 202.645 151.93V178.581H120.652V80.7453Z" fill="#C7DDF2"/>
<path d="M160.649 100.242C160.649 100.242 151.153 115.91 136.65 117.909C136.65 117.909 139.02 162.436 160.32 164.239C179.957 165.908 185.315 117.572 185.315 117.572C185.315 117.572 167.648 116.24 160.649 100.242Z" fill="#477FB5"/>
<path d="M202.645 80.7453H120.652V179.738H202.645V80.7453Z" stroke="#222221" stroke-width="3" stroke-linejoin="bevel"/>
<path d="M160.649 100.242L160.32 164.267C160.32 164.267 141.903 167.072 136.65 117.937C136.65 117.909 149.898 116.24 160.649 100.242Z" fill="#FCBA19"/>
<path d="M148.649 130.238L160.397 141.992L182.145 103.742" stroke="#222221" stroke-width="3" stroke-linejoin="bevel"/>
<path d="M363.13 112.992C363.13 112.992 377.297 204.242 463.623 196.528V233.698H363.13V112.992Z" fill="#13538F"/>
<path d="M373.629 206.732C373.629 206.732 393.133 189.486 406.626 198.485C420.12 207.483 408.878 179.738 428.367 183.483C447.857 187.228 457.62 216.481 457.62 216.481V226.236H372.878C372.878 226.236 371.756 204.86 373.629 206.732Z" fill="#3A3A38"/>
<path d="M412.63 172.241C420.086 172.241 426.13 166.196 426.13 158.74C426.13 151.284 420.086 145.24 412.63 145.24C405.174 145.24 399.129 151.284 399.129 158.74C399.129 166.196 405.174 172.241 412.63 172.241Z" fill="white"/>
<path d="M390.51 197.068C390.51 197.068 402.629 215.878 416.88 209.804C416.88 209.804 450.712 223.831 452.921 205.905L457.627 216.481V226.236H372.878L373.012 207.195C373.012 207.195 381.385 199.522 390.51 197.068Z" fill="#222221"/>
<path d="M406.128 149.988C406.128 149.988 398.007 165.739 416.88 170.74C416.88 170.74 392.866 169.113 406.128 149.988Z" fill="white"/>
<path d="M261.241 105.867C261.241 105.867 278.22 93.6217 301.385 107.452C324.55 121.282 307.052 132.553 307.052 132.553C307.052 132.553 296.595 102.949 261.241 105.867Z" fill="#424240"/>
<path d="M253.561 116.709C253.561 116.709 283.059 110.033 296.055 125.743H294.056C294.056 125.743 284.223 114.136 253.561 116.709Z" fill="#FCBA19"/>
<path d="M299.484 154.806C299.484 154.806 312.108 156.805 311.056 166.728C310.004 176.652 306.413 161.328 299.484 154.806Z" fill="#FCBA19"/>
<path d="M227.226 154.785C227.226 154.785 218.235 166.946 222.892 171.28C227.549 175.614 227.226 154.785 227.226 154.785Z" fill="#FCBA19"/>
<path d="M250.644 127.615C250.644 127.615 250.342 127.706 249.844 127.917C247.165 129.046 238.665 133.717 238.546 147.617C238.574 147.617 248.561 138.114 250.644 127.615Z" fill="#424240"/>
<path d="M271.038 167.549L266.711 189.185L263.373 192.593C263.373 192.593 273.226 198.26 272.925 194.985C272.623 191.71 271.368 192.881 271.2 188.554C271.031 184.227 271.901 166.967 271.901 166.967L271.038 167.549Z" fill="#6B96BE"/>
<path d="M272.301 166.714C272.301 166.714 269.972 188.245 272.883 194.066C275.793 199.887 262.987 192.32 262.987 192.32" stroke="#222221" stroke-width="3" stroke-linejoin="bevel"/>
<path d="M312.557 223.817V276.416H240.559C240.559 276.416 283.887 263.189 312.557 223.817Z" fill="#13538F"/>
<path d="M217.534 219.777V256.772C217.534 256.772 199.229 264.774 188.078 251.772C176.927 238.769 205.233 248.777 217.534 219.777Z" fill="#13538F"/>
<path d="M319.227 256.141C319.227 256.141 348.058 262.137 358.557 243.145C358.557 243.145 324.227 218.507 320.896 222.807C317.565 227.106 319.227 256.141 319.227 256.141Z" fill="#13538F"/>
<path d="M239.184 207.237C239.184 207.237 243.687 244.73 270.807 248.735C270.807 248.735 243.455 249.359 230.186 213.731C230.158 213.731 227.437 206.108 239.184 207.237Z" fill="#13538F"/>
<path d="M245.307 206.346C245.307 206.346 248.308 238.096 270.807 240.094C270.835 240.108 249.185 243.98 245.307 206.346Z" fill="#13538F"/>
<path d="M278.55 204.733C278.55 204.733 278.943 204.607 279.525 204.439C281.243 203.948 284.644 203.148 284.925 204.362C285.304 205.989 280.303 207.483 278.55 204.733Z" fill="#424240"/>
<path d="M172.319 326.765L142.162 326.056L128.114 390.137H423.339L402.587 328.644H355.093L343.591 342.054L345.891 370.64L201.361 371.811L199.446 341.352L172.319 326.765Z" fill="#C7DDF2"/>
<path d="M206.312 372.071C206.312 372.071 292.267 409.395 331.935 369.756H206.312V372.071Z" fill="#6B96BE"/>
<path d="M339.004 321.182L330.602 361.067L207.61 361.986L191.115 280.246L347.596 280.407L339.004 321.182Z" fill="white" stroke="#222221" stroke-width="3" stroke-linejoin="bevel"/>
<path d="M331.935 361.733H206.277V369.735H331.935V361.733Z" fill="white" stroke="#222221" stroke-width="3" stroke-linejoin="bevel"/>
<path d="M201.361 286.782H336.851L322.6 353.443L212.274 355.442L201.361 286.782Z" fill="#6B96BE"/>
<path d="M270.232 345.49C281.209 345.49 290.107 336.592 290.107 325.615C290.107 314.638 281.209 305.739 270.232 305.739C259.255 305.739 250.356 314.638 250.356 325.615C250.356 336.592 259.255 345.49 270.232 345.49Z" stroke="#222221" stroke-width="3" stroke-linejoin="bevel"/>
<path d="M265.056 310.767C265.056 310.767 248.07 331.737 275.723 342.762C275.744 342.762 239.724 333.287 265.056 310.767Z" fill="#FCBA19"/>
<path d="M209.398 363.928L210.289 367.428H329.55V364.594L209.398 363.928Z" fill="#FCBA19"/>
<path d="M187.075 409.262C187.075 409.262 164.401 420.596 165.067 430.092C165.067 430.071 192.412 425.926 187.075 409.262Z" fill="#424240"/>
<path d="M247.361 428.591L222.815 435.092L239.057 567.082L256.808 560.834L247.361 428.591Z" fill="#424240"/>
<path d="M294.308 413.484L295.879 413.646L374.8 421.732C374.8 421.732 384.535 432.343 372.696 442.344L295.052 425.105L294.308 413.484Z" fill="#424240"/>
<path d="M251.057 408.596L270.183 417.215L269.474 409.262L251.057 408.596Z" fill="#6B96BE"/>
<path d="M275.723 410.216L274.931 430.842L283.929 430.092L284.434 410.216H275.723Z" fill="#6B96BE"/>
<path d="M125.07 397.732H431.545L125.07 402.985V397.732Z" fill="#424240"/>
<path d="M124.404 406.345L124.65 416.051L128.528 410.174V406.345H124.404Z" fill="#C7DDF2"/>
<path d="M141.776 406.345V414.508L145.444 417.299L145.192 406.513L141.776 406.345Z" fill="#C7DDF2"/>
<path d="M208.936 479.339L211.439 490.462L211.937 533.58L208.936 539.583V479.339Z" fill="#C7DDF2"/>
<path d="M222.815 548.083L224.933 555.083V562.082H222.815V548.083Z" fill="#C7DDF2"/>
<path d="M241.435 573.577L250.433 570.337L254.431 583.459C254.431 583.459 246.436 591.58 241.435 573.577Z" fill="#C7DDF2"/>
<path d="M325.552 436.838L328.175 437.715V466.589L326.05 458.839L325.552 436.838Z" fill="#C7DDF2"/>
<path d="M339.137 439.84L342.637 440.591V467.003L339.137 462.423V439.84Z" fill="#C7DDF2"/>
<path d="M410.294 407.095H413.549V444.967L410.294 441.089V407.095Z" fill="#C7DDF2"/>
<path d="M427.421 407.095H430.921V449.967L427.421 446.089V407.095Z" fill="#C7DDF2"/>
<path d="M246.891 146.116C246.891 146.116 266.227 119.781 285.219 122.453L285.92 126.781L300.221 127.798C300.221 127.798 311.884 145.127 290.886 150.465C269.888 155.802 252.558 158.116 246.891 146.116Z" fill="#222221"/>
<path d="M259.894 129.902C259.894 129.902 299.106 126.191 299.498 132.588C299.891 138.984 279.426 154.448 261.241 151.867C243.055 149.286 249.725 130.603 259.894 129.902Z" fill="#424240"/>
</svg>
