<?xml version="1.0" encoding="UTF-8"?> <!--Generator: Apple Native CoreSVG 232.5--> <!DOCTYPE svg PUBLIC "-//W3C//DTD SVG 1.1//EN" "http://www.w3.org/Graphics/SVG/1.1/DTD/svg11.dtd"> <svg version="1.1" xmlns="http://www.w3.org/2000/svg" xmlns:xlink="http://www.w3.org/1999/xlink" width="19.3818" height="19.2065"> <g> <rect height="19.2065" opacity="0" width="19.3818" x="0" y="0"/> <path d="M0 7.90429C0 12.2681 3.54052 15.7986 7.90429 15.7986C9.48193 15.7986 10.9363 15.3298 12.1606 14.5234L16.3941 18.7668C16.7031 19.0659 17.0996 19.2043 17.5083 19.2043C18.3833 19.2043 19.0278 18.5376 19.0278 17.6648C19.0278 17.2505 18.8716 16.8684 18.5981 16.575L14.3935 12.3604C15.2832 11.0972 15.7986 9.56738 15.7986 7.90429C15.7986 3.54052 12.2681 0 7.90429 0C3.54052 0 0 3.54052 0 7.90429ZM2.25999 7.90429C2.25999 4.77904 4.77904 2.25999 7.90429 2.25999C11.0195 2.25999 13.5486 4.77904 13.5486 7.90429C13.5486 11.0195 11.0195 13.5486 7.90429 13.5486C4.77904 13.5486 2.25999 11.0195 2.25999 7.90429ZM4.62109 7.90429C4.62109 8.36132 4.99047 8.73071 5.45751 8.73071L7.06567 8.73071L7.06567 10.3411C7.06567 10.8081 7.43505 11.1775 7.90429 11.1775C8.36132 11.1775 8.72851 10.8081 8.72851 10.3411L8.72851 8.73071L10.3389 8.73071C10.8059 8.73071 11.1753 8.36132 11.1753 7.90429C11.1753 7.43725 10.8059 7.06787 10.3389 7.06787L8.72851 7.06787L8.72851 5.45971C8.72851 4.99267 8.35912 4.62329 7.90209 4.62329C7.43505 4.62329 7.06567 4.99267 7.06567 5.45971L7.06567 7.06787L5.45751 7.06787C4.99047 7.06787 4.62109 7.43725 4.62109 7.90429Z" fill="#000000"/> </g> </svg>
