<?xml version="1.0" encoding="UTF-8"?> <!--Generator: Apple Native CoreSVG 232.5--> <!DOCTYPE svg PUBLIC "-//W3C//DTD SVG 1.1//EN" "http://www.w3.org/Graphics/SVG/1.1/DTD/svg11.dtd"> <svg version="1.1" xmlns="http://www.w3.org/2000/svg" xmlns:xlink="http://www.w3.org/1999/xlink" width="28.2991" height="27.92"> <g> <rect height="27.92" opacity="0" width="28.2991" x="0" y="0"/> <path d="M13.9545 27.9091C21.5927 27.9091 27.9231 21.5927 27.9231 13.9545C27.9231 6.3164 21.5787 0 13.9405 0C6.3164 0 0 6.3164 0 13.9545C0 21.5927 6.33042 27.9091 13.9545 27.9091ZM13.9545 24.8869C7.89857 24.8869 3.05018 20.0245 3.05018 13.9545C3.05018 7.88456 7.88456 3.02215 13.9405 3.02215C20.0105 3.02215 24.8869 7.88456 24.8869 13.9545C24.8869 20.0245 20.0245 24.8869 13.9545 24.8869Z" fill="#ffffff"/> <path d="M9.06854 15.3641L18.8405 15.3641C19.7289 15.3641 20.3608 14.8521 20.3608 13.9856C20.3608 13.1052 19.7569 12.5791 18.8405 12.5791L9.06854 12.5791C8.13817 12.5791 7.53422 13.1052 7.53422 13.9856C7.53422 14.8521 8.1662 15.3641 9.06854 15.3641Z" fill="#ffffff"/> </g> </svg>
