<svg width="330" height="226" viewBox="0 0 330 226" fill="none" xmlns="http://www.w3.org/2000/svg">
<path fill-rule="evenodd" clip-rule="evenodd" d="M99.6557 118.669C102.516 98.824 97.6083 77.1196 108.727 60.4405C119.79 43.845 141.397 39.7204 158.787 29.9672C178.017 19.1822 194.302 -1.30571 216.3 0.108652C238.405 1.52981 251.931 24.1302 269.886 37.1101C289.937 51.6047 321.185 57.0469 327.985 80.846C334.791 104.67 314.175 127.337 301.795 148.795C291.872 165.995 278.617 179.987 263.419 192.758C248.443 205.343 233.415 218.928 214.173 222.425C194.596 225.984 175.799 217.385 156.595 212.174C133.491 205.905 102.685 209.249 90.2286 188.793C77.7107 168.236 96.2218 142.495 99.6557 118.669Z" fill="#EAF4FE"/>
<g clip-path="url(#clip0_1957_18681)">
<path d="M186.212 175.147C186.212 175.147 173.212 221.578 160.211 223.436C147.211 225.292 165.784 154.719 167.64 147.908C169.498 141.098 186.212 175.147 186.212 175.147Z" fill="#C27046"/>
<path d="M151.544 42.6662C151.544 42.6662 142.878 27.1898 146.592 19.1417C150.306 11.0935 162.689 0.569238 174.451 9.23744C186.213 17.9036 192.403 14.8096 197.975 11.7135C203.547 8.61742 211.42 4.37391 228.928 12.3335C249.358 21.6197 240.69 54.4305 230.786 62.4787C220.88 70.5269 238.834 72.3829 259.883 71.1449C280.931 69.9068 316.836 77.953 320.552 100.86C322.263 111.408 320.552 166.481 262.979 151.623C205.405 136.764 173.213 181.957 136.688 124.384C124.205 104.706 166.405 58.1426 151.546 42.6662H151.544Z" fill="#222957"/>
<path d="M208.499 99.0024C208.499 99.0024 194.879 95.9063 181.878 107.051C168.878 118.193 161.243 149.766 161.243 149.766L187.656 186.085L214.689 151.004C214.689 151.004 232.023 95.9063 208.499 99.0024Z" fill="#FDC12F"/>
<path d="M171.356 67.4297C171.356 67.4297 166.403 79.192 167.021 82.9061C167.641 86.6202 172.594 97.7644 172.594 97.7644L148.449 190.625C148.449 190.625 147.211 215.387 154.021 221.577C160.831 227.767 161.449 225.291 167.021 220.339C172.594 215.387 177.546 146.05 179.404 121.907C181.262 97.7644 183.738 88.4762 183.738 88.4762C183.738 88.4762 177.548 84.7621 175.072 83.5241C172.596 82.2861 171.978 69.2858 171.358 67.4277L171.356 67.4297Z" fill="#E29058"/>
<path d="M179.402 66.1915C181.26 67.4295 197.975 83.5259 197.355 102.098C196.735 120.671 195.497 120.671 196.117 126.861C196.737 133.051 194.261 152.243 208.499 162.768C212.513 165.735 218.403 131.813 223.975 114.481C228.146 101.5 236.356 101.48 218.403 85.3839C200.451 69.2876 197.355 53.8112 196.117 45.763C194.879 37.7149 179.402 66.1935 179.402 66.1935V66.1915Z" fill="#F1A069"/>
<path d="M234.5 97.1467C234.5 97.1467 249.646 83.146 273.5 142.785C278.453 155.165 305.073 225.567 305.073 225.567H202.307C202.307 225.567 193.021 185.502 188.068 171.881C183.116 158.263 196.735 103.458 196.735 103.458L197.973 139.407C197.973 139.407 221.497 78.369 234.498 97.1467H234.5Z" fill="#FBAA19"/>
<path d="M250.596 145.434L227.692 220.341C227.692 220.341 224.596 227.77 206.643 222.197C185.514 215.641 119.353 200.531 119.353 200.531C119.353 200.531 116.257 203.625 111.923 209.199C107.589 214.771 97.6849 210.127 97.6849 210.127L91.4948 214.769C91.4948 214.769 85.7817 218.173 83.1386 218.173C81.2805 218.173 103.877 198.673 103.877 198.673L126.474 191.553L202.309 198.673L222.12 131.193L250.596 145.432V145.434Z" fill="#E29058"/>
<path d="M53.5379 191.845C53.8842 193.168 55.237 193.959 56.5616 193.613L66.7416 190.947C68.0641 190.601 68.8553 189.246 68.509 187.924L29.7779 39.9984C29.4317 38.6759 28.0789 37.8847 26.7543 38.229L16.5743 40.8942C15.2517 41.2405 14.4606 42.5933 14.8068 43.9158L53.5379 191.841V191.845Z" fill="#4166B0"/>
<path d="M16.529 42.1992L55.2602 190.124C55.6064 191.447 56.9592 192.238 58.2838 191.892L68.4638 189.227" stroke="#345AA9" stroke-width="1.99667" stroke-miterlimit="10"/>
<path d="M35.5903 117.6C35.5903 117.6 1.71864 203.342 1.71864 211.643C1.71864 222.554 10.3969 223.842 10.3969 223.842H49.3555" stroke="#345AA9" stroke-width="3.991" stroke-miterlimit="10"/>
<path d="M60.5371 225.567V223.506C60.5371 222.139 60.7203 222.127 62.0872 222.127H123.375C124.741 222.127 127.638 222.139 127.638 223.506V225.567H60.5371Z" fill="#345AA9"/>
<path d="M196.117 45.7625C196.982 51.391 198.764 60.6531 205.892 71.2176C205.608 85.2747 202.359 98.1422 197.097 108.266C197.19 106.47 197.278 104.431 197.355 102.098C197.975 83.5254 181.259 67.429 179.402 66.191C179.402 66.191 194.879 37.7143 196.117 45.7605V45.7625Z" fill="#C27046"/>
<path d="M168.555 74.9907C169.812 71.1015 171.358 67.4297 171.358 67.4297C171.978 69.2877 172.596 82.288 175.072 83.5261C177.548 84.7641 183.738 88.4782 183.738 88.4782C183.738 88.4782 182.759 92.148 181.574 100.862C174.941 95.6889 170.049 86.2497 168.555 74.9907Z" fill="#C27046"/>
<path d="M170.735 22.2383C170.735 22.2383 163.307 38.9527 165.783 52.573C168.259 66.1933 170.117 81.0516 176.927 86.6217C183.738 92.1939 189.815 82.7587 198.594 72.3834C205.404 64.3352 211.755 50.4552 207.88 48.2409C199.214 43.2888 201.07 53.813 199.832 55.051C196.736 58.1471 196.118 42.6688 197.356 40.8127C203.743 31.2306 178.166 45.7648 170.735 22.2403V22.2383Z" fill="#E29058"/>
<path d="M173.397 56.7769C174.572 61.2398 177.94 64.2211 180.915 63.4381C183.891 62.653 185.348 58.3994 184.173 53.9365C182.997 49.4735 179.629 46.4922 176.654 47.2753C173.679 48.0604 172.221 52.3139 173.397 56.7769Z" stroke="#222957" stroke-width="0.997166" stroke-miterlimit="10"/>
<path d="M159.777 56.7769C160.954 61.2398 164.32 64.2211 167.295 63.4381C170.271 62.653 171.728 58.3994 170.553 53.9365C169.375 49.4735 166.009 46.4922 163.034 47.2753C160.058 48.0604 158.601 52.3139 159.777 56.7769Z" stroke="#222957" stroke-width="0.997166" stroke-miterlimit="10"/>
<path d="M163.032 47.2754C160.057 48.0605 158.599 52.3141 159.775 56.777C160.953 61.2399 164.318 64.2213 167.294 63.4382" stroke="white" stroke-width="0.997166" stroke-miterlimit="10"/>
<path d="M182.498 53.8093L199.832 47.6191" stroke="#222957" stroke-width="0.997166" stroke-miterlimit="10"/>
<path d="M192.589 213.091C209.165 216.169 220.851 218.073 228.979 216.119L227.689 220.34C227.689 220.34 224.593 227.768 206.64 222.196C186.913 216.074 127.928 202.496 120.198 200.723C123.767 198.895 162.48 207.499 192.589 213.091Z" fill="#C27046"/>
<path d="M135.802 189.024L138.81 189.756L133.239 212.661L130.231 211.929L135.802 189.024Z" fill="#6FACDD"/>
<path d="M140.738 189.823L143.808 190.227L140.715 213.752L137.645 213.348L140.738 189.823Z" fill="#003366"/>
<path d="M244.572 165.136C235.58 161.637 222.986 157.478 214.346 157.673L219.924 138.67L249.568 148.794L244.572 165.136Z" fill="#C27046"/>
<path d="M275.979 169.578L211.595 145.433C211.595 145.433 212.213 105.814 220.261 90.9558C224.368 83.3746 234.711 83.9645 251.214 103.336C265.452 120.052 275.977 169.578 275.977 169.578H275.979Z" fill="#FDC12F"/>
</g>
<defs>
<clipPath id="clip0_1957_18681">
<rect width="320.931" height="219.58" fill="white" transform="matrix(-1 0 0 1 320.931 5.98633)"/>
</clipPath>
</defs>
</svg>
