<?xml version="1.0" encoding="UTF-8"?> <!--Generator: Apple Native CoreSVG 232.5--> <!DOCTYPE svg PUBLIC "-//W3C//DTD SVG 1.1//EN" "http://www.w3.org/Graphics/SVG/1.1/DTD/svg11.dtd"> <svg version="1.1" xmlns="http://www.w3.org/2000/svg" xmlns:xlink="http://www.w3.org/1999/xlink" width="28.2991" height="27.92"> <g> <rect height="27.92" opacity="0" width="28.2991" x="0" y="0"/> <path d="M13.9545 27.9091C21.5927 27.9091 27.9231 21.5927 27.9231 13.9545C27.9231 6.3164 21.5787 0 13.9405 0C6.3164 0 0 6.3164 0 13.9545C0 21.5927 6.33042 27.9091 13.9545 27.9091ZM13.9545 24.8869C7.89857 24.8869 3.05018 20.0245 3.05018 13.9545C3.05018 7.88456 7.88456 3.02215 13.9405 3.02215C20.0105 3.02215 24.8869 7.88456 24.8869 13.9545C24.8869 20.0245 20.0245 24.8869 13.9545 24.8869Z" fill="#ffffff"/> <path d="M7.70238 13.9515C7.70238 14.7619 8.27831 15.3299 9.11058 15.3299L12.548 15.3299L12.548 18.7954C12.548 19.6137 13.1161 20.1896 13.9265 20.1896C14.7649 20.1896 15.333 19.6137 15.333 18.7954L15.333 15.3299L18.7985 15.3299C19.6167 15.3299 20.1927 14.7619 20.1927 13.9515C20.1927 13.127 19.6167 12.545 18.7985 12.545L15.333 12.545L15.333 9.09349C15.333 8.26122 14.7649 7.68529 13.9265 7.68529C13.1161 7.68529 12.548 8.26122 12.548 9.09349L12.548 12.545L9.11058 12.545C8.27831 12.545 7.70238 13.127 7.70238 13.9515Z" fill="#ffffff"/> </g> </svg>
