<svg width="303" height="240" viewBox="0 0 303 240" fill="none" xmlns="http://www.w3.org/2000/svg">
<g clip-path="url(#clip0_1957_18518)">
<path d="M122.112 164.535L122.112 43.2943H159.785C168.526 43.2943 175.623 50.379 175.623 59.1061V164.535H122.113H122.112Z" fill="#2D2E4A"/>
<path d="M160.848 164.535V43.2943C169.001 43.2943 175.621 49.9037 175.621 58.0438V164.535H160.848Z" fill="#0555A2"/>
<path d="M125.95 175.566H150.146V164.65H125.95V175.566Z" fill="#202A54"/>
<path d="M135.489 214.824H140.609V175.569H135.489V214.824Z" fill="#222957"/>
<path d="M110.596 218.307C110.596 215.355 112.991 212.965 115.948 212.965H135.374H140.725H160.152C163.108 212.965 165.503 215.357 165.503 218.307V225.221C165.503 225.444 165.323 225.623 165.1 225.623H160.556C160.332 225.623 160.153 225.442 160.153 225.221V220.256C160.153 219.179 159.278 218.307 158.2 218.307H141.13C140.908 218.307 140.728 218.487 140.728 218.709V225.219C140.728 225.442 140.547 225.621 140.325 225.621H135.78C135.558 225.621 135.377 225.441 135.377 225.219V218.709C135.377 218.487 135.196 218.307 134.974 218.307H117.987C116.863 218.307 115.952 219.217 115.952 220.339V225.221C115.952 225.444 115.771 225.623 115.549 225.623H111.004C110.782 225.623 110.601 225.442 110.601 225.221V218.307H110.596Z" fill="#222957"/>
<path d="M137.583 175.566H150.147V164.65H137.583V175.566Z" fill="#222957"/>
<path d="M164.029 234.612C166.796 233.96 168.509 231.192 167.856 228.43C167.203 225.667 164.431 223.957 161.664 224.609C158.897 225.261 157.184 228.028 157.837 230.791C158.49 233.553 161.262 235.264 164.029 234.612Z" fill="#0555A2"/>
<path d="M142.657 231.568C143.745 228.946 142.498 225.94 139.871 224.853C137.245 223.767 134.234 225.012 133.146 227.635C132.058 230.257 133.305 233.263 135.932 234.35C138.558 235.436 141.569 234.19 142.657 231.568Z" fill="#0555A2"/>
<path d="M117.462 233.236C119.473 231.229 119.473 227.975 117.462 225.968C115.452 223.961 112.193 223.961 110.183 225.968C108.172 227.975 108.172 231.229 110.183 233.236C112.193 235.243 115.452 235.243 117.462 233.236Z" fill="#0555A2"/>
<path d="M242.2 177.875H266.017V167.129H242.2V177.875Z" fill="#202A54"/>
<path d="M251.588 216.514H256.628V177.874H251.588V216.514Z" fill="#222957"/>
<path d="M253.649 177.875H266.015V167.129H253.649V177.875Z" fill="#222957"/>
<path d="M240.368 167.016V47.6775H277.449C286.053 47.6775 293.038 54.6507 293.038 63.2413V167.016H240.368Z" fill="#2D2E4A"/>
<path d="M227.086 219.945C227.086 217.04 229.445 214.686 232.354 214.686H251.476H256.743H275.865C278.774 214.686 281.133 217.039 281.133 219.943V226.748C281.133 226.967 280.955 227.145 280.735 227.145H276.263C276.043 227.145 275.865 226.967 275.865 226.748V221.863C275.865 220.803 275.004 219.943 273.943 219.943H257.141C256.921 219.943 256.743 220.121 256.743 220.34V226.748C256.743 226.967 256.565 227.145 256.346 227.145H251.873C251.654 227.145 251.476 226.967 251.476 226.748V220.34C251.476 220.121 251.298 219.943 251.078 219.943H234.358C233.251 219.943 232.354 220.839 232.354 221.944V226.748C232.354 226.967 232.176 227.145 231.956 227.145H227.484C227.264 227.145 227.086 226.967 227.086 226.748V219.943V219.945Z" fill="#222957"/>
<path d="M282.109 234.637C284.087 232.662 284.087 229.459 282.109 227.484C280.13 225.509 276.922 225.509 274.944 227.484C272.966 229.459 272.966 232.662 274.944 234.637C276.922 236.612 280.13 236.612 282.109 234.637Z" fill="#0555A2"/>
<path d="M255.122 235.998C257.845 235.356 259.532 232.632 258.889 229.913C258.246 227.195 255.518 225.511 252.794 226.153C250.071 226.794 248.385 229.518 249.028 232.237C249.67 234.956 252.399 236.64 255.122 235.998Z" fill="#0555A2"/>
<path d="M278.497 167.016V47.6775C286.523 47.6775 293.038 54.1836 293.038 62.1956V167.016H278.497Z" fill="#0555A2"/>
<path d="M234.944 232.997C236.014 230.416 234.787 227.458 232.202 226.389C229.617 225.32 226.653 226.545 225.583 229.126C224.512 231.707 225.74 234.665 228.324 235.734C230.909 236.803 233.873 235.578 234.944 232.997Z" fill="#4E5383"/>
<path d="M61.3884 220.462L63.2501 234.855L22.5348 235.56L33.7021 228.591L46.0327 225.571L50.2211 219.301L61.3884 220.462Z" fill="#FCCFC0"/>
<path d="M46.0328 225.572C46.0328 225.572 56.9668 231.379 62.3186 226.733L63.7138 236.721H50.2198L48.8232 235.095L44.287 235.617L42.5427 237.359L18.5797 237.65L32.772 228.59L46.0328 225.57V225.572Z" fill="#0555A2"/>
<path d="M91.0513 221.333L92.9129 235.726L52.199 236.431L63.3663 229.462L75.697 226.444L79.884 220.172L91.0513 221.333Z" fill="#FCCFC0"/>
<path d="M75.6966 226.445C75.6966 226.445 86.6307 232.252 91.9825 227.606L93.3791 237.594H79.885L78.4884 235.968L73.9522 236.49L72.2079 238.232L48.2449 238.523L62.4372 229.464L75.698 226.443L75.6966 226.445Z" fill="#0555A2"/>
<path d="M84.4219 122.724L50.5805 132.848C43.443 134.984 38.5162 141.494 38.41 148.934L38.3562 152.687L63.1334 157.565L84.4205 122.723L84.4219 122.724Z" fill="#202A54"/>
<path d="M38.3555 149.795L35.4478 227.134L61.7375 224.115L64.5293 148.508L38.3555 149.795Z" fill="#202A54"/>
<path d="M141.45 113.893C141.45 113.893 148.778 146.296 134.47 151.522C83.1694 151.871 96.9836 154.431 96.9836 154.431L82.6754 125.163L105.01 114.719L141.45 113.894V113.893Z" fill="#202A54"/>
<path d="M99.4275 154.351L63.3947 157.914L65.8084 136.901L101.434 122.027L99.4275 154.351Z" fill="#202A54"/>
<path d="M88.6082 149.553L96.4027 227.134L62.4358 228.644L58.4819 155.162C58.1135 148.304 60.8446 141.641 65.9259 137.01L88.6096 149.553H88.6082Z" fill="#202A54"/>
<path d="M61.7379 214.366C61.1031 207.054 60.5552 199.738 60.0377 192.419C59.7713 188.759 59.5367 185.098 59.287 181.439L58.5859 170.456L57.9318 159.471L57.624 153.976C57.5205 152.142 57.417 150.32 57.3328 148.475C57.2666 146.601 57.5481 144.71 58.1995 142.951C58.5293 142.075 58.9392 141.226 59.4484 140.441C59.9508 139.653 60.5331 138.913 61.1983 138.255C61.8621 137.595 62.6156 137.026 63.4298 136.57C63.532 136.514 63.6286 136.448 63.7348 136.4L64.0495 136.247L64.3641 136.095C64.4676 136.041 64.5794 136.008 64.687 135.963C64.9051 135.881 65.119 135.788 65.3398 135.717L66.0091 135.522C67.8101 135.055 69.6897 135.034 71.5072 135.274L70.8186 135.238L70.4749 135.22L70.3038 135.21L70.1313 135.213L69.444 135.224C69.3295 135.228 69.215 135.223 69.1018 135.235L68.7595 135.267C68.5318 135.289 68.3041 135.303 68.0778 135.329L67.403 135.441C67.2912 135.461 67.1766 135.472 67.0662 135.501L66.735 135.584L66.4038 135.665C66.2934 135.691 66.183 135.719 66.0767 135.759C64.3407 136.292 62.7412 137.244 61.5088 138.561C60.8878 139.213 60.3441 139.936 59.8818 140.708C59.4125 141.475 59.0413 142.299 58.7474 143.147C58.1691 144.846 57.9249 146.655 58.0256 148.444L58.7722 159.417L59.4733 170.4L60.126 181.385C60.3275 185.047 60.5442 188.71 60.7291 192.373C61.1155 199.7 61.4702 207.029 61.7379 214.363V214.366Z" fill="#4E5383"/>
<path d="M89.1913 155.368C88.4585 155.184 87.7285 154.99 86.9998 154.793L84.818 154.19L82.643 153.564L80.4736 152.919L80.9221 152.465C81.2892 153.453 81.6342 154.447 81.9903 155.438C82.3463 156.429 82.6913 157.425 83.0364 158.418C83.7236 160.409 84.3957 162.404 85.0512 164.406L86.0228 167.413C86.336 168.418 86.6576 169.421 86.9639 170.43C87.5794 172.446 88.1784 174.466 88.7263 176.503C87.9175 174.554 87.1599 172.588 86.4174 170.615C86.0448 169.63 85.6874 168.639 85.3231 167.65L84.2591 164.675C83.5566 162.689 82.8721 160.697 82.2014 158.701C81.8688 157.702 81.5335 156.703 81.2119 155.7C80.8904 154.697 80.555 153.699 80.2445 152.692L80.032 152.006L80.693 152.237L82.828 152.987L84.956 153.756L87.0785 154.545C87.7837 154.814 88.4889 155.083 89.1913 155.364V155.368Z" fill="#4E5383"/>
<path d="M144.215 134.811C144.215 134.811 144.68 145.495 141.888 145.96C136.304 141.082 96.2875 134.811 96.2875 134.811C96.2875 134.811 144.213 134.578 144.213 134.811H144.215Z" fill="#FFC969"/>
<path d="M289.031 167.129H214.947C209.954 167.129 205.901 163.082 205.901 158.097C205.901 153.112 209.954 149.066 214.947 149.066H289.031V167.128V167.129Z" fill="#657296"/>
<path d="M246.434 167.129H288.8V149.067H246.434V167.129Z" fill="#4E5383"/>
<path d="M206.475 135.121L189.53 147.009L203.269 158.212L233.269 140.379L206.475 135.121Z" fill="#AD6A53"/>
<path d="M189.53 147.009C189.53 147.009 184.798 150.215 183.464 159.959C183.074 162.812 183.206 165.714 183.808 168.53L197.316 231.831L205.789 231.374C205.789 231.374 212.659 165.528 204.644 155.467C196.629 145.408 189.53 147.007 189.53 147.007V147.009Z" fill="#AD6A53"/>
<path d="M238.078 16.462C238.078 16.462 231.723 19.7206 233.441 25.8932C235.16 32.0658 234.129 31.381 230.007 33.6089C225.884 35.8383 223.48 47.3265 234.129 50.2419C239.453 52.6421 238.766 52.9852 238.078 55.7298C237.391 58.473 247.868 67.0471 254.395 54.8728C264.185 45.2708 260.062 66.361 269.509 58.4744C278.955 50.5864 270.367 49.7294 282.219 47.5001C292.219 45.6194 292.68 32.0189 284.842 26.9913C282.851 25.7141 280.465 25.207 278.104 25.3737C275.875 25.5308 273.427 25.4743 271.335 24.6063C268.399 23.3883 267.749 20.0127 266.605 17.4031C265.061 13.8828 262.055 11.7347 258.533 10.306C250.838 7.1852 242.921 9.84438 238.078 16.4634V16.462Z" fill="#383761"/>
<path d="M248.383 60.3579C248.383 60.3579 237.849 63.3299 235.558 65.8458C233.268 68.3603 240.367 71.3336 238.535 84.5937C236.702 97.8538 237.618 103.799 242.886 116.373H281.817L272.885 80.9356C272.885 80.9356 270.596 60.5867 279.984 63.1025C274.946 60.8167 268.763 58.7583 248.383 60.3593V60.3579Z" fill="#FDC12F"/>
<path d="M263.211 44.9136L263.959 58.9246C264.025 60.1757 263.652 61.4102 262.903 62.4146L262.424 63.0567C260.857 65.1578 258.428 66.4461 255.806 66.566C253.788 66.6583 251.801 66.0507 250.181 64.8465L249.71 64.4965C249.184 64.1066 248.726 63.6464 248.342 63.1338C247.547 62.0715 247.077 60.7847 247.015 59.4316L246.783 54.3847L258.444 44.1641L263.209 44.915L263.211 44.9136Z" fill="#BB6A4E"/>
<path d="M261.639 42.752L258.538 46.574C258.538 46.574 258.11 59.5765 247.114 59.3202L246.929 55.297L258.59 45.0763L261.639 42.752Z" fill="#8C5D4D"/>
<path d="M256.691 52.4932C254.867 54.885 251.471 57.7206 246.078 56.4874C240.223 55.7861 238.065 51.0409 237.071 39.944C236.562 28.8264 237.243 22.4981 244.35 18.7821L261.295 18.0078L264.912 44.0003L264.373 44.4646C261.559 46.8868 258.942 49.5405 256.69 52.4918L256.691 52.4932Z" fill="#AD6A53"/>
<path d="M9.61652 134.093V235.606H-0.000976562L0.686283 119.689L9.61652 134.093Z" fill="#6FACDE"/>
<path d="M293.038 134.092V235.947H302.999L301.968 120.031L293.038 134.092Z" fill="#6FACDE"/>
<path d="M9.61609 134.093L13.7383 137.865V233.204L9.61609 235.605C9.61609 235.605 9.61609 133.407 9.61609 134.091V134.093Z" fill="#4166B0"/>
<path d="M293.038 134.093L288.916 137.865V233.204L293.038 235.605C293.038 235.605 293.038 133.407 293.038 134.091V134.093Z" fill="#4166B0"/>
<path d="M214.376 135.463C214.376 135.463 227.428 139.235 237.39 157.584C238.592 159.127 246.493 156.212 253.707 158.956C260.92 161.699 293.381 161.356 288.572 132.892L283.591 104.428L214.376 135.464V135.463Z" fill="#202A54"/>
<path d="M279.984 63.1006C279.984 63.1006 286.166 63.9576 290.289 78.8766L299.563 112.656C299.563 112.656 303.341 124.317 281.872 119.515C277.062 108.37 272.884 80.9336 272.884 80.9336C272.884 80.9336 268.476 61.0421 279.983 63.1006H279.984Z" fill="#AD6A53"/>
<path d="M236.188 65.3301C236.188 65.3301 232.753 66.1871 223.307 78.7045C219.7 92.5943 240.31 112.665 240.31 112.665C240.31 112.665 245.807 70.8165 236.188 65.3301Z" fill="#FDC12F"/>
<path d="M290.29 106.656L237.849 104.713L236.703 117.81L278.611 120.202L286.766 119.294C291.478 119.081 294.332 114.005 292.061 109.876L290.289 106.656H290.29Z" fill="#AD6A53"/>
<path d="M238.851 22.5489C238.851 22.5489 243.831 18.4333 246.236 25.4643C248.641 32.4953 252.592 37.8109 262.038 33.1801C264.271 28.7215 270.197 22.8134 256.285 13.3823C242.372 3.95112 232.84 18.0903 238.852 22.5489H238.851Z" fill="#383761"/>
<path d="M261.23 47.1041C264.688 46.9461 267.267 41.9493 266.992 35.9434C266.717 29.9374 263.691 25.1967 260.233 25.3546C256.776 25.5126 254.196 30.5094 254.471 36.5154C254.747 42.5213 257.773 47.2621 261.23 47.1041Z" fill="#FBAA19"/>
<path d="M262.312 46.983C265.769 46.8251 268.349 41.8282 268.074 35.8223C267.798 29.8163 264.773 25.0756 261.315 25.2335C257.858 25.3915 255.278 30.3883 255.553 36.3943C255.829 42.4002 258.855 47.141 262.312 46.983Z" fill="#FDC12F"/>
<path d="M265.461 36.1519C266.43 36.1076 267.154 34.7068 267.076 33.0231C266.999 31.3393 266.151 30.0103 265.182 30.0546C264.212 30.0989 263.489 31.4997 263.566 33.1834C263.644 34.8672 264.492 36.1962 265.461 36.1519Z" fill="white"/>
<path d="M259.019 43.9528C259.033 44.2421 256.29 50.8832 248.911 49.6996L248.954 50.6393C248.954 50.6393 256.491 52.1053 260.068 44.7009C262.463 38.4374 259.017 43.9528 259.017 43.9528H259.019Z" fill="#FDC12F"/>
<path d="M247.068 50.6167C247.104 51.3951 247.862 51.9917 248.761 51.9518C249.661 51.9104 250.361 51.2463 250.325 50.4679C250.289 49.6894 249.531 49.0928 248.632 49.1328C247.732 49.1741 247.032 49.8382 247.068 50.6167Z" fill="#FBAA19"/>
<path d="M259.84 28.6376C259.669 28.0658 256.953 9.94336 244.091 10.9657C246.966 10.3994 256.13 7.80912 261.261 27.9941C260.393 28.0341 259.84 28.6389 259.84 28.6389V28.6376Z" fill="#FBAA19"/>
<path d="M261.992 28.1053C261.992 28.1053 260.486 7.901 249.117 9.86715L244.091 10.9653C244.091 10.9653 257.662 6.43501 260.32 29.6292C261.01 28.8741 261.992 28.1053 261.992 28.1053Z" fill="#FDC12F"/>
<path d="M230.177 230.461L216.105 233.488L206.475 238.929L240.596 239.157L238.534 228.631L230.177 230.461Z" fill="#CA8167"/>
<path d="M197.658 230.461L183.587 233.488L173.957 238.929L208.079 239.157L206.017 228.631L197.658 230.461Z" fill="#CA8167"/>
<path d="M230.865 133.062C230.865 133.062 216.09 137.89 206.971 143.752C203.179 145.613 201.052 148.611 199.877 151.622C198.132 156.095 198.382 161.102 200.384 165.469L230.179 230.46L238.423 232.517C241.858 209.883 226.057 158.097 226.057 158.097L241.171 157.754C244.262 141.978 230.866 133.062 230.866 133.062H230.865Z" fill="#AD6A53"/>
<path d="M183.803 233.127L191.102 231.927L192.558 232.717C194.08 233.542 194.986 235.173 194.881 236.9C194.881 236.9 205.816 237.083 206.016 228.633L208.106 239.472L173.584 239.214L183.803 233.127Z" fill="#0555A2"/>
<path d="M216.608 233.127L223.908 231.927L225.363 232.717C226.886 233.542 227.791 235.173 227.686 236.9C227.686 236.9 238.622 237.083 238.822 228.633L240.911 239.472L206.389 239.214L216.608 233.127Z" fill="#0555A2"/>
<path d="M208.193 183.143C206.762 181.054 205.437 178.895 204.162 176.706C202.896 174.511 201.694 172.277 200.593 169.992C199.486 167.709 198.487 165.369 197.649 162.963C197.231 161.761 196.872 160.534 196.58 159.289C196.436 158.665 196.312 158.036 196.211 157.401C196.116 156.765 196.046 156.124 196.013 155.476C195.985 154.829 196.001 154.176 196.077 153.524C196.155 152.874 196.295 152.222 196.536 151.596C196.776 150.972 197.121 150.377 197.577 149.871C197.809 149.61 198.044 149.407 198.279 149.185C198.509 148.962 198.756 148.758 198.996 148.547C199.969 147.715 200.988 146.945 202.034 146.216C203.078 145.486 204.153 144.804 205.248 144.155C207.432 142.853 209.691 141.689 211.989 140.612C214.291 139.547 216.626 138.551 219.014 137.701C216.687 138.704 214.399 139.786 212.149 140.938C211.023 141.512 209.908 142.105 208.807 142.723C207.707 143.342 206.615 143.977 205.547 144.645C203.416 145.987 201.335 147.419 199.454 149.072C199.223 149.282 198.984 149.484 198.76 149.702C198.537 149.916 198.294 150.13 198.107 150.345C197.717 150.781 197.417 151.297 197.208 151.854C196.785 152.973 196.697 154.217 196.747 155.443C196.776 156.059 196.841 156.676 196.929 157.291C197.024 157.905 197.14 158.517 197.278 159.128C197.557 160.346 197.911 161.548 198.306 162.74C199.094 165.125 200.071 167.451 201.11 169.748C202.161 172.04 203.288 174.301 204.476 176.531C205.66 178.763 206.9 180.967 208.193 183.143Z" fill="#8C5D4D"/>
<path d="M12.9385 137.864H288.572L293.038 134.092H8.81633L12.9385 137.864Z" fill="#9EC5E9"/>
<path d="M239.451 63.9668C239.826 66.0941 239.941 68.2614 239.934 70.4219C239.927 70.962 239.93 71.5034 239.902 72.0436L239.821 73.6639C239.779 74.2026 239.727 74.7413 239.68 75.28C239.659 75.5501 239.625 75.8188 239.59 76.0861L239.488 76.8907L239.381 77.6953L239.248 78.4959C239.151 79.0291 239.069 79.5637 238.961 80.0941L238.608 81.6786C238.546 81.9418 238.497 82.2077 238.421 82.4681L238.203 83.2507C237.658 85.345 236.894 87.3773 236.015 89.3448C236.551 87.2533 237.124 85.192 237.538 83.0909C237.771 82.0479 237.949 80.9938 238.144 79.9439C238.231 79.4176 238.308 78.8885 238.392 78.3622L238.518 77.5713L238.619 76.7763L238.725 75.9827L238.777 75.5859L238.82 75.1877C238.878 74.6573 238.932 74.1254 238.996 73.595L239.136 71.9981C239.164 71.7322 239.174 71.4649 239.193 71.199L239.252 70.3984C239.387 68.2628 239.463 66.1217 239.451 63.9668Z" fill="#ED9736"/>
<path d="M275.52 99.0046C275.52 99.0046 291.092 94.7747 293.84 109.865C295.214 116.266 288.001 121.623 281.531 119.173C275.062 116.723 245.464 115.752 236.017 106.492L239.109 119.695H295.787C295.787 119.695 301.626 120.381 299.222 110.436L294.069 93.1172C294.069 93.1172 287.314 94.3173 275.52 99.0046Z" fill="#8C5D4D"/>
<path d="M278.782 62.4165C278.782 62.4165 266.245 61.3872 269.336 82.308C273.114 102.543 273.802 100.656 273.802 100.656C273.802 100.656 294.411 90.0251 300.595 93.7976C297.675 87.4527 292.523 66.7042 278.782 62.4178V62.4165Z" fill="#FDC12F"/>
<path d="M300.595 93.7954C300.595 93.7954 300.251 97.2248 295.958 99.4541L294.068 93.2815C294.068 93.2815 298.018 92.2523 300.595 93.7954Z" fill="#FAA83A"/>
<path d="M275.52 99.1191C274.716 97.4561 274.009 95.7462 273.336 94.0253C272.672 92.3003 272.052 90.556 271.5 88.7896C270.937 87.026 270.454 85.2362 270.026 83.4313C269.609 81.6236 269.27 79.7952 269.039 77.9462C268.928 77.0217 268.852 76.0917 268.813 75.1575C268.776 74.2247 268.769 73.2864 268.832 72.3495C268.9 71.4126 269.023 70.4757 269.233 69.5525C269.441 68.6294 269.747 67.7201 270.19 66.8699C270.632 66.0226 271.206 65.2262 271.939 64.5979C272.67 63.9683 273.531 63.5053 274.437 63.2215C275.345 62.9418 276.286 62.8219 277.219 62.8164C277.685 62.8316 278.15 62.8385 278.613 62.8977L278.959 62.9349C279.074 62.9473 279.188 62.9707 279.303 62.9886L279.987 63.103L279.296 63.0548C279.181 63.0479 279.067 63.0355 278.951 63.0341L278.606 63.03L278.261 63.0231L278.088 63.0203L277.916 63.0286L277.23 63.0603C276.319 63.1374 275.418 63.3055 274.579 63.6293C273.738 63.9448 272.966 64.4147 272.327 65.025C271.686 65.6354 271.183 66.3753 270.805 67.1772C270.055 68.7906 269.75 70.5969 269.662 72.4005C269.578 74.2096 269.684 76.0338 269.91 77.8442C270.119 79.6588 270.451 81.461 270.835 83.2535C271.027 84.1505 271.232 85.0447 271.455 85.9348C271.681 86.8248 271.913 87.7135 272.154 88.5995C272.396 89.4868 272.659 90.3672 272.92 91.249C273.182 92.1308 273.457 93.0099 273.74 93.8861C274.299 95.6415 274.895 97.3858 275.521 99.1218L275.52 99.1191Z" fill="#ED9736"/>
<path d="M265.557 83.3438C266.278 84.1994 266.968 85.0757 267.648 85.9602C268.33 86.8434 268.995 87.739 269.656 88.6373L270.636 89.9931C270.957 90.4491 271.283 90.9011 271.599 91.3613C272.235 92.2775 272.862 93.2006 273.458 94.1472C272.738 93.2916 272.048 92.4153 271.367 91.5307C271.024 91.0912 270.692 90.642 270.354 90.1984L269.359 88.8536C268.704 87.9512 268.052 87.0459 267.418 86.1283C266.781 85.2121 266.155 84.2889 265.559 83.3438H265.557Z" fill="#ED9736"/>
<path d="M236.016 91.7457C236.016 91.7457 236.016 102.549 244.775 102.034C253.534 101.518 256.281 102.72 262.809 104.777C269.335 106.834 273.972 93.1166 271.053 86.2578L278.267 106.834L237.848 104.711L236.016 91.7443V91.7457Z" fill="#FAA54B"/>
<path d="M185.693 73.2188L192.334 119.63H273.631V117.116H236.989L231.494 73.9049L185.693 73.2188Z" fill="#B5B5B5"/>
<path d="M185.693 73.218L189.357 71.8457L233.325 72.5319L231.494 73.9042L185.693 73.218Z" fill="#F0F0F0"/>
<path d="M233.325 72.5332L239.738 117.345L237.332 119.517L231.493 73.9055L233.325 72.5332Z" fill="#9C9C9C"/>
<path d="M226.055 158.099L241.169 157.756C242.738 149.747 240.058 143.508 237.039 139.303C234.272 141.737 222.238 152.064 215.178 153.877C208.2 155.668 231.76 181.716 238.434 215.879C236.111 191.056 226.055 158.099 226.055 158.099Z" fill="#8C5D4D"/>
<path d="M288.457 149.305H246.32V166.909H288.457V149.305Z" fill="#0555A2"/>
<path d="M229.031 149.304H246.435V166.908H229.031C224.165 166.908 220.214 162.964 220.214 158.106C220.214 153.247 224.165 149.303 229.031 149.303V149.304Z" fill="#4166B0"/>
<path d="M206.624 222.276C207.416 212.847 208.491 197.602 208.527 183.923C207.194 181.187 204.15 174.94 197.2 160.678C205.168 179.24 206.456 215.818 206.624 222.276Z" fill="#8C5D4D"/>
<path d="M240.311 21.4416C240.311 21.4416 237.22 19.3845 236.189 22.1278C235.158 24.871 239.624 32.9312 234.814 34.3021C230.005 35.6745 230.177 46.9918 237.734 44.9334C236.532 39.1038 237.391 27.2712 240.311 21.4416Z" fill="#4E5383"/>
<path d="M261.55 12.1247C261.55 12.1247 266.932 8.92406 269.68 16.2403C272.427 23.5565 275.748 24.2426 281.588 21.7281C287.428 19.2136 294.413 32.9311 286.168 35.6743" stroke="#657296" stroke-width="0.401928" stroke-miterlimit="10"/>
<path d="M268.305 24.4713C268.305 24.4713 277.237 26.1867 283.19 23.6708C289.144 21.1563 299.106 33.7302 286.854 41.2751" stroke="#657296" stroke-width="0.803856" stroke-miterlimit="10"/>
<path d="M234.3 26.5293C234.3 26.5293 235.56 31.331 231.781 31.4453C228.003 31.5597 222.735 36.4757 226.972 42.9914" stroke="#657296" stroke-width="0.803856" stroke-miterlimit="10"/>
<path d="M258 14.64C259.156 14.5614 260.329 14.9045 261.3 15.5411C262.284 16.1721 263.044 17.1063 263.598 18.1272C263.871 18.6425 264.089 19.1826 264.278 19.7338C264.364 20.0107 264.456 20.2876 264.524 20.5701C264.603 20.8498 264.66 21.135 264.72 21.4188C264.928 22.5486 265.272 23.644 265.763 24.6732L265.96 25.0521L266.06 25.2409L266.17 25.4241L266.391 25.7893L266.634 26.1392L266.755 26.3142L266.888 26.4809L267.151 26.8144L267.437 27.1299C267.485 27.1822 267.531 27.236 267.581 27.2869L267.734 27.4344C267.837 27.5322 267.937 27.6314 268.042 27.7265L268.369 27.9979C268.424 28.042 268.476 28.0902 268.534 28.1316L268.708 28.2542C268.824 28.3355 268.937 28.4209 269.056 28.4981L269.42 28.7171C269.481 28.7529 269.54 28.7915 269.602 28.8246L269.793 28.9197L270.172 29.1098L270.566 29.271L270.762 29.3523C270.828 29.3785 270.896 29.3978 270.963 29.4198C271.098 29.4625 271.231 29.5107 271.367 29.5493L271.779 29.654C271.915 29.6912 272.056 29.7092 272.196 29.7381C272.753 29.8359 273.32 29.891 273.892 29.8979C275.033 29.9227 276.182 29.8152 277.344 29.7808C277.925 29.7629 278.511 29.7739 279.094 29.8194C279.675 29.8538 280.277 29.9709 280.833 30.179C281.392 30.387 281.911 30.6874 282.386 31.0415C282.858 31.3983 283.28 31.8172 283.657 32.2678C284.406 33.1757 284.976 34.2174 285.379 35.3141C285.785 36.4095 286.03 37.5696 286.055 38.7421C286.084 39.9133 285.862 41.0927 285.401 42.1674C284.942 43.2448 284.252 44.212 283.43 45.0346C282.605 45.8571 281.656 46.5419 280.648 47.111C279.639 47.6814 278.569 48.1333 277.467 48.4805C278.556 48.0961 279.61 47.6139 280.6 47.0269C281.588 46.4372 282.51 45.7359 283.302 44.9092C284.096 44.0867 284.757 43.1318 285.187 42.0778C285.621 41.0265 285.818 39.8843 285.774 38.7504C285.76 38.4665 285.741 38.1841 285.705 37.9016C285.666 37.6206 285.621 37.3395 285.56 37.0626C285.442 36.5059 285.284 35.9589 285.084 35.4257C284.686 34.3607 284.127 33.3521 283.401 32.4827C283.036 32.0514 282.631 31.6532 282.18 31.3171C281.729 30.9836 281.238 30.7026 280.712 30.5097C280.183 30.3168 279.639 30.2107 279.068 30.179C278.501 30.1377 277.93 30.1308 277.355 30.15C276.209 30.179 275.054 30.2809 273.883 30.2506C273.3 30.241 272.713 30.1817 272.135 30.077C271.991 30.0467 271.845 30.0274 271.703 29.9875L271.275 29.8772C271.134 29.8359 270.995 29.7849 270.855 29.7395C270.786 29.7147 270.715 29.694 270.647 29.6678L270.443 29.5824L270.036 29.4129L269.642 29.2131L269.446 29.1126C269.382 29.0781 269.321 29.0368 269.257 28.9996L268.881 28.7695C268.758 28.6882 268.641 28.6 268.52 28.5146L268.341 28.3864C268.282 28.3437 268.228 28.2928 268.17 28.2473L267.832 27.9648C267.724 27.8656 267.619 27.7609 267.514 27.6603L267.356 27.5074C267.305 27.455 267.258 27.3986 267.208 27.3448L266.914 27.0169L266.642 26.6711L266.507 26.4975L266.384 26.3156L266.139 25.9505L265.916 25.5716L265.806 25.3814L265.707 25.1858L265.509 24.7945C265.021 23.7349 264.687 22.6038 264.494 21.4629C264.438 21.1819 264.386 20.9008 264.313 20.6238C264.251 20.3441 264.164 20.0713 264.084 19.7971C263.907 19.2543 263.697 18.7211 263.441 18.2099C262.922 17.1972 262.2 16.2658 261.249 15.621C261.016 15.4556 260.763 15.3179 260.507 15.1884C260.247 15.0657 259.979 14.961 259.705 14.8756C259.156 14.7075 258.579 14.6124 258.002 14.64H258Z" fill="#98A0C0"/>
<path d="M267.734 31.2152C268.577 30.9961 269.443 30.868 270.316 30.8156C270.752 30.7881 271.189 30.7826 271.627 30.8046C271.846 30.8101 272.064 30.8336 272.282 30.8515C272.5 30.8818 272.718 30.9024 272.934 30.9465C273.152 30.9796 273.364 31.0375 273.578 31.0898C273.684 31.1188 273.789 31.1532 273.894 31.1849L274.053 31.2345L274.207 31.2937C274.624 31.4412 275.02 31.6478 275.393 31.889L275.667 32.0791C275.754 32.148 275.839 32.221 275.926 32.2913C275.968 32.3271 276.012 32.3615 276.052 32.3987L276.17 32.5172C276.247 32.5972 276.328 32.6743 276.403 32.757C276.54 32.9333 276.694 33.0973 276.807 33.2902C276.868 33.3839 276.932 33.4762 276.988 33.5713L277.143 33.8675C277.544 34.6666 277.75 35.5471 277.805 36.433L277.813 36.7678L277.818 36.9359C277.818 36.9924 277.811 37.0475 277.807 37.104L277.78 37.4402C277.768 37.5518 277.739 37.662 277.72 37.7736C277.624 38.2145 277.459 38.654 277.184 39.0233C276.918 39.3967 276.574 39.7067 276.203 39.9616C275.832 40.2179 275.43 40.4121 275.029 40.594C274.224 40.9536 273.397 41.2305 272.626 41.6012C272.431 41.6894 272.244 41.7913 272.056 41.8905C271.875 42.0007 271.689 42.1027 271.522 42.2308C271.345 42.3466 271.192 42.4885 271.032 42.6235C270.888 42.7737 270.735 42.917 270.615 43.0878C270.479 43.2449 270.383 43.4309 270.27 43.6059L270.138 43.8884C270.116 43.9352 270.092 43.982 270.073 44.0303L270.023 44.1791L269.924 44.4767L269.856 44.7853C269.802 44.9892 269.79 45.2014 269.762 45.4108C269.724 45.8325 269.725 46.2596 269.746 46.6881C269.75 46.903 269.78 47.1152 269.795 47.3288C269.815 47.5423 269.853 47.7531 269.881 47.9653C269.958 48.3855 270.047 48.8058 270.175 49.2136C270.294 49.6242 270.445 50.0265 270.617 50.4206C270.786 50.816 270.979 51.2018 271.175 51.5903C271.369 51.9803 271.567 52.3729 271.714 52.7946C271.861 53.2148 271.934 53.6736 271.888 54.1228C271.843 54.5733 271.69 55.0004 271.493 55.3945C271.075 56.1757 270.519 56.8563 269.932 57.4998C269.344 58.1432 268.715 58.7453 268.073 59.335C268.686 58.7178 269.29 58.0923 269.859 57.4364C270.422 56.7792 270.952 56.0834 271.331 55.316C271.511 54.9302 271.649 54.5223 271.681 54.1049C271.715 53.6874 271.641 53.2685 271.493 52.8731C271.347 52.4749 271.146 52.0932 270.945 51.7088C270.742 51.3244 270.539 50.9373 270.357 50.5363C269.984 49.7399 269.718 48.8884 269.566 48.019C269.536 47.8013 269.496 47.5837 269.474 47.3646C269.456 47.1455 269.424 46.9264 269.419 46.706C269.394 46.2678 269.388 45.8228 269.427 45.3791C269.455 45.1573 269.467 44.9341 269.522 44.7164L269.593 44.3871L269.697 44.0661L269.75 43.9049C269.771 43.8525 269.795 43.8015 269.819 43.7506L269.961 43.4419C270.081 43.249 270.186 43.0465 270.334 42.8729C270.465 42.6869 270.629 42.5298 270.785 42.3645C270.956 42.2171 271.123 42.0627 271.309 41.9374C271.674 41.6728 272.064 41.4551 272.464 41.2677C273.265 40.8888 274.097 40.6174 274.882 40.2716C275.273 40.0966 275.659 39.912 276.007 39.6764C276.355 39.4408 276.667 39.1611 276.908 38.8276C277.157 38.4983 277.308 38.107 277.398 37.702C277.417 37.6 277.444 37.4994 277.456 37.3947L277.482 37.0819C277.485 37.0296 277.493 36.9772 277.493 36.9249L277.49 36.7664L277.485 36.4495C277.433 35.6022 277.252 34.7521 276.886 33.9887L276.745 33.7035C276.693 33.6126 276.633 33.5244 276.578 33.4335C276.475 33.2489 276.331 33.0918 276.204 32.9209C276.135 32.841 276.059 32.7666 275.988 32.6895L275.879 32.5737C275.84 32.5379 275.799 32.5035 275.759 32.469L275.517 32.261L275.258 32.075C274.906 31.838 274.528 31.6313 274.127 31.4797L273.978 31.4191L273.825 31.3681C273.723 31.3351 273.622 31.2993 273.519 31.2689C273.31 31.2138 273.103 31.156 272.892 31.116C272.682 31.0664 272.469 31.0388 272.256 31.0016C272.042 30.9782 271.827 30.9479 271.612 30.9355C271.181 30.9011 270.746 30.8928 270.313 30.9066C269.88 30.919 269.446 30.952 269.014 31.0016C268.582 31.0512 268.152 31.116 267.727 31.2097L267.734 31.2152Z" fill="#98A0C0"/>
<path d="M175.739 164.65H100.475C95.4029 164.65 91.2849 160.539 91.2849 155.476C91.2849 150.412 95.4029 146.301 100.475 146.301H175.739V164.65Z" fill="#4166B0"/>
<path d="M132.464 164.65H175.505V146.301H132.464V164.65Z" fill="#0555A2"/>
<path d="M96.0308 84.5684L60.815 90.3249L64.933 101.634L95.6196 109.242L96.0308 84.5684Z" fill="#FFC969"/>
<path d="M98.5502 55.3144C98.5502 55.3144 91.3961 58.6377 88.6125 71.636C84.2544 87.2948 83.8845 96.1583 83.8845 96.1583L94.9994 104.374L103.488 75.5448C103.488 75.5448 103.901 53.9311 98.5516 55.3158L98.5502 55.3144Z" fill="#FDC12F"/>
<path d="M99.5315 77.8848C99.5315 77.8848 87.3292 95.1557 83.1587 95.1557C78.9882 95.1557 70.9564 95.4643 70.4927 95.6186C70.029 95.7729 75.5892 105.642 76.362 105.488C77.1348 105.334 94.5702 114.59 94.5702 114.59C94.5702 114.59 97.6781 90.6847 99.5315 77.8848Z" fill="#FAA54B"/>
<path d="M129.198 46.6568C129.198 46.6568 156.582 50.2199 159.543 59.9968C155.899 61.1335 151.385 91.1368 152.068 108.643C153.89 126.946 134.55 120.889 134.55 120.889L119.862 121.344L92.6106 113.559L96.1118 96.2885C96.1118 96.2885 100.101 56.3773 97.1413 56.6047C99.9373 54.4566 107.192 49.5337 113.673 47.3747C117.483 46.1057 122.537 46.6995 129.198 46.6568Z" fill="#FFC969"/>
<path d="M152.98 117.146C152.98 117.146 92.7097 119.593 97.13 116.341C101.55 113.09 113.881 108.212 127.142 109.141C140.402 110.069 145.073 82.2266 145.073 82.2266" fill="#FAA54B"/>
<path d="M128.739 33.3639L129.446 46.5868C129.509 47.7676 129.156 48.9318 128.449 49.8797L127.998 50.4846C126.519 52.4687 124.226 53.6839 121.752 53.7969C119.848 53.8837 117.972 53.3105 116.443 52.1738L115.999 51.8445C115.503 51.4766 115.07 51.0412 114.708 50.5576C113.958 49.5546 113.515 48.3407 113.455 47.0635L113.237 42.3004L124.243 32.6543L128.741 33.3639H128.739Z" fill="#FCCFC0"/>
<path d="M127.255 31.3242L124.328 34.9313C124.328 34.9313 123.924 47.2022 113.546 46.961L113.372 43.1638L124.378 33.5177L127.255 31.3242Z" fill="#F7A18F"/>
<path d="M122.586 40.5161C120.864 42.7743 117.659 45.45 112.57 44.2858C107.044 43.6231 105.007 39.1452 104.07 28.6724C103.59 18.1789 104.232 12.2075 110.94 8.70095L126.933 7.9707L130.346 32.5013L129.837 32.9395C127.182 35.2253 124.711 37.7301 122.586 40.5147V40.5161Z" fill="#FCCFC0"/>
<path d="M125.202 20.8343C125.202 20.8343 120.014 12.6611 119.204 12.5812C118.394 12.4999 115.314 11.3674 110.532 16.3041C105.75 21.2394 93.2692 17.6791 95.7008 12.0962C98.1324 6.51333 102.347 9.91103 102.347 9.91103C102.347 9.91103 94.9721 9.10225 98.8625 2.79048C102.753 -3.5213 103.644 5.21819 109.803 3.76184C115.963 2.30548 127.634 -1.90236 129.904 4.24683C132.172 10.396 130.309 11.7725 130.309 11.7725C130.309 11.7725 139.387 11.1249 137.847 19.378C136.226 27.5512 130.552 28.6838 130.552 28.6838L125.203 20.8343H125.202Z" fill="#4E5383"/>
<path d="M128.746 35.0061C131.818 34.8658 134.109 30.4274 133.865 25.0927C133.62 19.7579 130.932 15.547 127.861 15.6873C124.79 15.8277 122.498 20.2661 122.742 25.6008C122.987 30.9355 125.675 35.1465 128.746 35.0061Z" fill="#FBAA19"/>
<path d="M129.709 34.8968C132.781 34.7564 135.073 30.318 134.828 24.9833C134.584 19.6485 131.895 15.4376 128.824 15.578C125.753 15.7183 123.461 20.1567 123.706 25.4914C123.95 30.8262 126.638 35.0371 129.709 34.8968Z" fill="#FDC12F"/>
<path d="M130.821 22.6393C130.89 24.1357 131.643 25.3151 132.504 25.2765C133.366 25.2365 134.007 23.9924 133.94 22.4974C133.871 21.0025 133.117 19.8217 132.256 19.8603C131.395 19.9003 130.753 21.1444 130.821 22.6393Z" fill="white"/>
<path d="M126.782 32.2033C126.794 32.4596 124.358 38.3594 117.803 37.3081L117.842 38.1431C117.842 38.1431 124.536 39.4451 127.715 32.8688C129.844 27.3052 126.782 32.2033 126.782 32.2033Z" fill="#FDC12F"/>
<path d="M116.165 38.1218C116.197 38.8134 116.87 39.3439 117.669 39.3067C118.468 39.2709 119.091 38.6798 119.059 37.9895C119.027 37.2978 118.354 36.7674 117.555 36.8046C116.756 36.8404 116.133 37.4315 116.165 38.1218Z" fill="#FBAA19"/>
<path d="M127.512 18.5989C127.36 18.0919 124.948 1.99351 113.522 2.90149C116.077 2.39859 124.216 0.0976384 128.774 18.0272C128.003 18.063 127.512 18.5989 127.512 18.5989Z" fill="#FBAA19"/>
<path d="M129.422 18.1248C129.422 18.1248 128.084 0.177366 117.987 1.92444L113.522 2.89993C113.522 2.89993 125.578 -1.12329 127.939 19.4792C128.554 18.8082 129.423 18.1248 129.423 18.1248H129.422Z" fill="#FDC12F"/>
<path d="M119.204 12.579C118.313 11.9177 117.351 11.3597 116.339 10.9174C115.332 10.471 114.275 10.1389 113.193 9.98597C112.112 9.8289 111.008 9.85921 109.955 10.1141C109.432 10.2505 108.912 10.4117 108.426 10.6528L108.241 10.7369L108.063 10.8347L107.707 11.0304C107.478 11.1792 107.253 11.3183 107.023 11.4781C106.102 12.1064 105.16 12.7072 104.177 13.2417C103.193 13.7708 102.173 14.2531 101.089 14.5672C100.548 14.7229 99.9901 14.84 99.4216 14.8717C98.8544 14.9061 98.2734 14.8414 97.7365 14.6361C97.2052 14.4225 96.7333 14.0615 96.4062 13.6027C96.0695 13.1494 95.8473 12.6272 95.7024 12.0927C95.89 12.6135 96.1454 13.1122 96.4917 13.5338C96.834 13.9596 97.2991 14.2737 97.8069 14.4446C98.3175 14.6127 98.8654 14.6554 99.4036 14.6003C99.9432 14.5479 100.476 14.4253 100.996 14.2572C102.035 13.9183 103.03 13.4388 103.99 12.8987C104.951 12.3613 105.882 11.7647 106.79 11.1378C107.016 10.9821 107.264 10.8306 107.5 10.679L107.876 10.4765L108.063 10.3759L108.258 10.2877C108.388 10.2298 108.516 10.1692 108.647 10.1141L109.047 9.96806C109.18 9.9157 109.318 9.88126 109.454 9.8413C109.591 9.8041 109.726 9.75863 109.867 9.73521C110.978 9.48858 112.134 9.46929 113.244 9.66907C114.358 9.85508 115.426 10.2381 116.426 10.7355C116.926 10.9876 117.409 11.2673 117.875 11.5732C118.341 11.8791 118.79 12.2098 119.206 12.579H119.204Z" fill="#4E5383"/>
<path d="M119.907 12.7761C119.626 11.6862 119.276 10.6143 118.82 9.59059C118.595 9.07805 118.347 8.57652 118.056 8.10117C117.763 7.62858 117.431 7.18079 117.032 6.80465C116.636 6.43126 116.167 6.12952 115.646 6.0317C115.39 5.96832 115.122 5.98347 114.861 6.01241C114.731 6.03859 114.602 6.07027 114.475 6.10472C114.349 6.15432 114.226 6.19841 114.099 6.25215L111.033 7.67267C108.978 8.60132 106.902 9.50792 104.736 10.1748C104.193 10.3401 103.646 10.4876 103.091 10.6047C102.536 10.7204 101.97 10.81 101.397 10.821C101.112 10.8224 100.823 10.8044 100.54 10.7411C100.262 10.6749 99.9787 10.5716 99.7593 10.3732C99.5344 10.1831 99.4005 9.90611 99.3494 9.62642C99.2984 9.34396 99.3232 9.05738 99.3715 8.78182C99.3398 9.06013 99.3329 9.34672 99.4005 9.61539C99.4626 9.88407 99.6006 10.1362 99.8173 10.3029C100.027 10.4765 100.298 10.562 100.565 10.6116C100.836 10.6598 101.115 10.6639 101.391 10.6501C101.945 10.6212 102.497 10.5206 103.04 10.3897C103.583 10.2588 104.12 10.0976 104.652 9.91851C105.714 9.5589 106.762 9.15383 107.798 8.71568C108.834 8.28167 109.863 7.82423 110.885 7.3544C111.912 6.89145 112.929 6.40922 113.961 5.9504C114.094 5.89529 114.237 5.84707 114.375 5.79471C114.519 5.75751 114.665 5.72307 114.811 5.69689C115.108 5.66657 115.414 5.65555 115.706 5.73133C116.001 5.78782 116.276 5.91596 116.531 6.06339C116.651 6.14881 116.781 6.22046 116.888 6.31966L117.057 6.4602C117.111 6.50842 117.16 6.56215 117.213 6.61176C117.624 7.02097 117.954 7.49494 118.239 7.98682C118.522 8.48145 118.762 8.99676 118.972 9.5217C119.178 10.0494 119.356 10.5854 119.512 11.1282C119.668 11.6697 119.802 12.2181 119.902 12.7733L119.907 12.7761Z" fill="#4E5383"/>
<path d="M129.034 40.7207L120.126 49.4078L119.096 52.4928L118.067 48.7906L113.278 44.4215L111.477 48.1747L117.243 58.6612L135.16 47.7627L129.034 40.7207Z" fill="#FDC12F"/>
<path d="M134.285 49.0488L132.786 54.4113C131.387 59.4196 127.84 63.5531 123.1 65.7052C121.388 65.6129 119.814 66.6325 119.201 68.2294L116.677 74.803L117.758 58.6109L113.742 67.4013L113.947 52.1861L116.264 50.1814L118.993 56.2989L121.155 51.2616L125.017 59.0752L134.283 49.0516L134.285 49.0488Z" fill="#FAA54B"/>
<path d="M135.16 47.7628C133.983 49.3872 132.745 50.9593 131.49 52.5176C130.227 54.0704 128.941 55.6039 127.61 57.1057C127.278 57.4819 126.94 57.8525 126.596 58.2204C126.423 58.405 126.25 58.5882 126.072 58.7701C125.889 58.9534 125.715 59.1283 125.491 59.3157C125.46 59.3392 125.431 59.364 125.391 59.3915C125.373 59.4039 125.35 59.4204 125.324 59.4356L125.275 59.4618L125.238 59.4783C125.224 59.4838 125.217 59.488 125.19 59.4962C125.166 59.5031 125.143 59.5086 125.119 59.5141C125.078 59.521 125.019 59.5238 124.969 59.5155C124.952 59.5155 124.885 59.499 124.845 59.4783C124.799 59.4576 124.756 59.4287 124.723 59.3984C124.692 59.3681 124.661 59.3309 124.638 59.2896C124.614 59.2524 124.594 59.1904 124.6 59.2069L124.587 59.1738L124.559 59.1077L124.411 58.7825L124.094 58.1088L123.452 56.7571C122.598 54.9522 121.744 53.1445 120.927 51.3189L121.392 51.3079C121.222 51.6482 121.058 51.9899 120.884 52.3288L120.368 53.3457C120.197 53.6846 120.017 54.0208 119.842 54.3584C119.665 54.6959 119.486 55.0307 119.304 55.3655C119.429 55.0059 119.559 54.6477 119.692 54.2908C119.825 53.9354 119.955 53.5771 120.093 53.2217L120.503 52.1566C120.638 51.8011 120.783 51.4498 120.923 51.0957L121.119 50.5983L121.388 51.0847C122.358 52.8345 123.287 54.605 124.199 56.3865C124.429 56.8302 124.65 57.2793 124.874 57.7285L125.205 58.4064C125.26 58.5262 125.311 58.631 125.369 58.7619L125.413 58.8693L125.435 58.9231C125.442 58.9437 125.424 58.8831 125.404 58.85C125.383 58.8128 125.355 58.7784 125.325 58.7522C125.295 58.7246 125.256 58.6957 125.215 58.6778C125.179 58.6585 125.114 58.6461 125.101 58.6447C125.06 58.6365 125.008 58.6392 124.974 58.6447C124.958 58.6475 124.941 58.6502 124.926 58.6558L124.9 58.6654L124.885 58.6723C124.885 58.6723 124.879 58.675 124.876 58.6764L124.886 58.6695C124.899 58.6613 124.918 58.6461 124.936 58.631C125.094 58.4973 125.274 58.3168 125.444 58.146C125.616 57.9724 125.787 57.7932 125.957 57.6141L126.973 56.5215L131.022 52.1056C132.384 50.641 133.749 49.1778 135.162 47.7559L135.16 47.7628Z" fill="#ED9736"/>
<path d="M118.067 54.4443C117.878 54.1026 117.701 53.7567 117.526 53.4109C117.351 53.0637 117.184 52.7151 117.011 52.3665C116.844 52.0166 116.68 51.6666 116.517 51.3139C116.357 50.9611 116.196 50.6098 116.04 50.2557L116.608 50.3838C115.817 51.1899 115.012 51.9794 114.195 52.7592C113.785 53.1464 113.375 53.5349 112.959 53.9166C112.545 54.301 112.129 54.6799 111.708 55.056L110.98 55.7063L111.008 54.7501C111.04 53.6534 111.091 52.558 111.164 51.4613C111.198 50.9129 111.244 50.3646 111.294 49.8176C111.342 49.2692 111.401 48.7222 111.474 48.1738C111.539 48.7222 111.59 49.2719 111.629 49.8203C111.67 50.3687 111.708 50.9171 111.734 51.4668C111.791 52.5635 111.822 53.6603 111.837 54.757L111.139 54.4512C111.542 54.0571 111.949 53.6644 112.359 53.2773C112.768 52.8887 113.182 52.5043 113.596 52.1213C114.426 51.358 115.268 50.6057 116.125 49.8699L116.528 49.5241L116.694 49.9981C116.822 50.3632 116.944 50.7311 117.066 51.0976C117.188 51.4654 117.307 51.8347 117.422 52.2039C117.534 52.5759 117.65 52.9452 117.758 53.3186C117.865 53.692 117.972 54.0654 118.066 54.4443H118.067Z" fill="#ED9736"/>
<path d="M120.848 52.5946C120.333 52.5946 116.443 52.1758 116.443 52.1758L115.774 53.3662C115.19 54.4023 114.951 55.5955 115.088 56.7763L115.189 57.6471C115.31 58.6928 116.064 59.5554 117.085 59.8185C118.014 60.0583 119 59.7896 119.678 59.1117C121.104 57.6884 121.66 55.6134 121.138 53.6707L120.85 52.5974L120.848 52.5946Z" fill="#4166B0"/>
<path d="M117.758 58.6094C117.835 59.111 118.957 74.0175 119.512 81.4137C119.712 84.0866 119.208 86.7651 118.049 89.1831L113.02 99.6807L109.475 88.1498C108.532 85.0841 108.575 81.8022 109.596 78.7627L116.521 58.1465L117.756 58.6094H117.758Z" fill="#4166B0"/>
<path d="M120.847 52.5938L121.517 52.2852L123.01 55.7297L120.229 57.1695L120.847 52.5938Z" fill="#4166B0"/>
<path d="M115.699 51.4121L116.441 52.1754L115.801 55.011L113.845 52.9539L115.699 51.4121Z" fill="#4166B0"/>
<path d="M96.9055 62.9274C96.8696 62.9122 96.8295 62.9205 96.8047 62.9439C96.7785 62.9673 96.7619 63.0004 96.7481 63.0335C96.7219 63.101 96.7053 63.174 96.6943 63.247C96.6708 63.3931 96.6626 63.5419 96.6571 63.6921C96.6446 63.9897 96.6474 64.29 96.6543 64.589C96.6695 65.1884 96.6929 65.7877 96.7247 66.3871L96.8958 69.9901C97.0007 72.3943 97.0683 74.8028 97.0586 77.2126C97.0531 79.6224 96.9689 82.0349 96.7868 84.4406C96.6018 86.8449 96.3189 89.2478 95.8249 91.6107C95.9532 89.2023 96.0429 86.8049 96.0981 84.4061C96.1519 82.0074 96.1657 79.6086 96.1754 77.2084C96.1837 74.8083 96.1837 72.4067 96.2085 69.9997C96.2196 68.7969 96.2458 67.5927 96.2927 66.3871C96.3231 65.785 96.3521 65.1815 96.41 64.578C96.4404 64.2763 96.4735 63.9759 96.5246 63.6755C96.5522 63.5254 96.5825 63.3765 96.6281 63.2291C96.6515 63.1561 96.6777 63.0831 96.7164 63.0156C96.7371 62.9825 96.7606 62.9494 96.7951 62.9274C96.8296 62.904 96.8751 62.9053 96.9068 62.926L96.9055 62.9274Z" fill="#ED9736"/>
<path d="M96.4429 77.8847C96.0151 77.3101 95.6701 76.7025 95.3499 76.0852C95.0325 75.4666 94.7468 74.8356 94.4888 74.1935C94.2307 73.5514 94.0016 72.897 93.8043 72.2315C93.6097 71.5632 93.4413 70.8854 93.3544 70.1758C93.7822 70.7503 94.1286 71.3579 94.4487 71.9752C94.7662 72.5938 95.0518 73.2249 95.3085 73.8683C95.5652 74.5118 95.7943 75.1649 95.9916 75.8317C96.1862 76.5 96.3546 77.1778 96.4429 77.8874V77.8847Z" fill="#ED9736"/>
<path d="M118.814 109.358L104.727 104.367L101.659 116.163L108.589 117.901L117.981 116.466L118.814 109.358Z" fill="#FCCFC0"/>
<path d="M105.409 104.933L100.183 101.076H93.5146C92.8784 101.076 92.3719 101.609 92.4064 102.243C92.4367 102.807 92.8839 103.257 93.4483 103.292L99.9566 103.686L104.842 107.655L105.41 104.933H105.409Z" fill="#FCCFC0"/>
<path d="M106.204 106.066C105.75 105.953 99.614 104.932 99.614 104.932L93.321 105.789C92.6572 105.88 92.1963 106.493 92.2957 107.154C92.3867 107.76 92.9222 108.201 93.5363 108.174L100.181 107.882L105.861 109.13L106.202 106.067L106.204 106.066Z" fill="#FCCFC0"/>
<path d="M105.409 110.264L100.41 109.016L94.6498 110.608C93.8687 110.825 93.55 111.757 94.0371 112.404C94.2579 112.699 94.6071 112.868 94.9755 112.862L100.184 112.153L104.615 113.438L105.41 110.263L105.409 110.264Z" fill="#FCCFC0"/>
<path d="M104.499 112.986L100.183 113.667L96.1833 115.468C95.3691 115.834 95.238 116.935 95.9432 117.482C96.251 117.721 96.6567 117.794 97.0279 117.676L102.569 115.935L104.499 112.986Z" fill="#FCCFC0"/>
<path d="M93.4467 103.291C93.9932 103.254 94.5383 103.24 95.0834 103.24C95.6285 103.239 96.1723 103.247 96.7146 103.267C96.9865 103.273 97.2583 103.286 97.5288 103.301C97.8007 103.316 98.0712 103.324 98.3431 103.346L99.1559 103.403L99.9687 103.475L100.042 103.481L100.09 103.521C100.254 103.661 100.412 103.808 100.572 103.951C100.733 104.095 100.889 104.243 101.047 104.391C101.36 104.687 101.669 104.99 101.963 105.31C101.588 105.088 101.227 104.85 100.873 104.603C100.695 104.48 100.517 104.358 100.344 104.23C100.17 104.103 99.9936 103.979 99.8225 103.847L99.9425 103.893L99.1283 103.866L98.3141 103.825C98.0422 103.812 97.7717 103.789 97.5012 103.771C97.2308 103.753 96.9589 103.732 96.6884 103.706C96.1474 103.659 95.6064 103.603 95.0655 103.535C94.5245 103.469 93.9849 103.389 93.4481 103.287L93.4467 103.291Z" fill="#F7A18F"/>
<path d="M103.136 108.564C102.882 108.537 102.631 108.503 102.379 108.469C102.13 108.43 101.877 108.397 101.629 108.353C101.379 108.31 101.129 108.272 100.881 108.225L100.135 108.086L100.189 108.091L99.2812 108.143L98.3732 108.181C98.0709 108.194 97.7673 108.2 97.4637 108.207C97.1601 108.214 96.8579 108.222 96.5543 108.222C95.9484 108.227 95.3412 108.222 94.734 108.207C94.1268 108.192 93.5196 108.164 92.911 108.112C93.5141 108.021 94.1185 107.956 94.7244 107.902C95.3288 107.849 95.9346 107.806 96.5405 107.774C96.8427 107.755 97.1463 107.745 97.4485 107.731C97.7508 107.719 98.0544 107.705 98.358 107.701L99.2674 107.682L100.177 107.678H100.21L100.229 107.683L100.961 107.884C101.205 107.951 101.447 108.025 101.689 108.097C101.932 108.167 102.174 108.247 102.415 108.321C102.657 108.401 102.897 108.48 103.136 108.566V108.564Z" fill="#F7A18F"/>
<path d="M102.341 112.873C102.151 112.844 101.964 112.807 101.777 112.768C101.59 112.727 101.403 112.69 101.219 112.643C101.034 112.597 100.849 112.555 100.666 112.504C100.482 112.454 100.299 112.407 100.117 112.355L100.212 112.363C99.3493 112.519 98.4812 112.641 97.6104 112.732C97.1743 112.778 96.7368 112.812 96.298 112.837C95.8591 112.863 95.4189 112.876 94.9759 112.865C95.401 112.735 95.8274 112.63 96.258 112.538C96.6872 112.444 97.1177 112.362 97.5497 112.287C98.4136 112.141 99.283 112.027 100.155 111.947L100.213 111.941L100.25 111.955C100.428 112.021 100.604 112.096 100.78 112.165C100.957 112.234 101.131 112.311 101.306 112.385C101.481 112.458 101.654 112.541 101.828 112.618C102 112.701 102.173 112.782 102.343 112.873H102.341Z" fill="#F7A18F"/>
<path d="M115.71 116.842C114.534 117.093 113.354 117.315 112.173 117.527L110.399 117.835L108.623 118.126L108.582 118.133L108.533 118.122C107.954 117.986 107.377 117.839 106.799 117.699C106.22 117.558 105.644 117.411 105.067 117.262C104.49 117.115 103.913 116.969 103.338 116.813C102.762 116.659 102.187 116.51 101.612 116.349L101.719 116.345C100.942 116.582 100.162 116.809 99.381 117.035L98.2065 117.363C97.8146 117.47 97.4213 117.575 97.0266 117.676C97.4047 117.524 97.7829 117.377 98.1638 117.232L99.3051 116.803C100.068 116.524 100.833 116.247 101.599 115.979L101.647 115.963L101.706 115.975C102.287 116.103 102.867 116.245 103.447 116.38C104.026 116.514 104.604 116.659 105.183 116.801C105.761 116.943 106.339 117.084 106.916 117.233C107.493 117.382 108.07 117.525 108.645 117.68L108.555 117.676L110.34 117.437L112.126 117.217C113.318 117.076 114.51 116.945 115.708 116.842H115.71Z" fill="#F7A18F"/>
<path d="M210.434 106.762C212.692 106.466 214.072 102.801 213.517 98.5763C212.962 94.3511 210.682 91.1655 208.425 91.461C206.168 91.7565 204.788 95.4212 205.342 99.6464C205.897 103.872 208.177 107.057 210.434 106.762Z" fill="white"/>
<path d="M292.923 134.093H9.42455L0.492935 119.689H302.198L292.923 134.093Z" fill="#C6E0F5"/>
<path d="M49.442 73.2207L56.0841 119.632H137.379V117.118H100.739L95.2427 73.9069L49.442 73.2207Z" fill="#B5B5B5"/>
<path d="M49.442 73.22L53.106 71.8477L97.0754 72.5338L95.2427 73.9061L49.442 73.22Z" fill="#F0F0F0"/>
<path d="M97.0757 72.5332L103.487 117.345L101.083 119.517L95.243 73.9055L97.0757 72.5332Z" fill="#9C9C9C"/>
<path d="M74.1848 106.773C76.4421 106.478 77.8222 102.813 77.2673 98.588C76.7124 94.3629 74.4327 91.1773 72.1754 91.4728C69.9181 91.7683 68.538 95.433 69.0929 99.6581C69.6478 103.883 71.9275 107.069 74.1848 106.773Z" fill="white"/>
<path d="M152.895 53.9428C152.895 53.9428 160.126 54.9459 164.948 72.3945L175.797 111.906C175.797 111.906 180.216 125.545 155.106 119.929C149.481 106.892 144.593 74.8029 144.593 74.8029C144.593 74.8029 139.437 51.5372 152.896 53.9442L152.895 53.9428Z" fill="#FDC12F"/>
<path d="M173.465 106.706L119.516 104.707C115.377 104.554 111.844 107.667 111.484 111.786C111.103 116.147 114.407 119.958 118.783 120.208L159.804 122.551L169.342 121.488C174.856 121.238 178.194 115.302 175.536 110.473L173.463 106.706H173.465Z" fill="#FDC12F"/>
<path d="M151.966 55.2006C151.428 55.4376 150.927 55.7435 150.449 56.0741C149.975 56.4103 149.519 56.7685 149.102 57.1681C148.686 57.5663 148.28 57.9769 147.925 58.4288C147.739 58.6465 147.572 58.8807 147.399 59.1095C147.311 59.2224 147.234 59.3423 147.154 59.4622L146.916 59.819C146.308 60.789 145.8 61.8196 145.419 62.8998C145.033 63.9773 144.747 65.0906 144.534 66.219C144.145 68.4841 144.027 70.8057 144.141 73.1274C144.245 75.4503 144.533 77.7706 144.87 80.0991C144.174 77.8519 143.69 75.533 143.454 73.1756C143.21 70.8209 143.257 68.4194 143.666 66.0605C143.891 64.8853 144.199 63.7224 144.639 62.6036C145.084 61.4889 145.637 60.4087 146.346 59.4346C147.046 58.4564 147.882 57.5759 148.824 56.8388C149.298 56.4751 149.799 56.1472 150.324 55.8661C150.848 55.5878 151.395 55.3453 151.967 55.1992L151.966 55.2006Z" fill="#ED9736"/>
<path d="M119.515 104.707C122.104 104.673 124.691 104.681 127.28 104.696C128.573 104.709 129.868 104.713 131.161 104.732L135.041 104.786C137.628 104.841 140.215 104.879 142.801 104.954L146.681 105.054L150.56 105.178L150.129 105.709L149.456 102.872L148.798 100.031C148.353 98.1392 147.931 96.2405 147.503 94.3447C147.287 93.3967 147.082 92.446 146.874 91.4967C146.666 90.5474 146.456 89.5981 146.256 88.646C145.849 86.7446 145.45 84.8419 145.073 82.9336C145.608 84.8047 146.122 86.6799 146.627 88.5578C146.882 89.4961 147.129 90.4358 147.378 91.3755C147.625 92.3151 147.877 93.2548 148.117 94.1959C148.602 96.078 149.092 97.96 149.56 99.8463L150.27 102.674L150.966 105.505L151.1 106.049L150.535 106.034L146.656 105.932L142.777 105.808C140.19 105.732 137.606 105.622 135.021 105.526L131.143 105.355C129.85 105.3 128.558 105.228 127.266 105.166C124.682 105.031 122.098 104.889 119.515 104.704V104.707Z" fill="#ED9736"/>
<path d="M139.801 65.9297C140.306 66.6145 140.731 67.3351 141.132 68.0667C141.529 68.7997 141.895 69.5465 142.233 70.3056C142.571 71.0648 142.881 71.8364 143.16 72.6217C143.436 73.4085 143.687 74.2062 143.857 75.0398C143.351 74.355 142.926 73.6344 142.525 72.9028C142.128 72.1698 141.762 71.423 141.426 70.6639C141.087 69.9047 140.778 69.1331 140.5 68.3478C140.224 67.561 139.972 66.7633 139.801 65.9297Z" fill="#ED9736"/>
<path d="M118.783 120.209L159.803 122.552L169.342 121.489C174.855 121.238 178.193 115.303 175.535 110.474L175.269 109.99C174.353 106.654 171.841 97.5042 164.946 72.3935C161.932 61.484 157.976 57.0033 155.434 55.1777C158.718 65.4562 163.783 84.5238 168.187 104.696C172.786 125.765 126.366 120.884 116.054 119.549C116.892 119.923 117.81 120.156 118.783 120.211V120.209Z" fill="#FAA54B"/>
</g>
<defs>
<clipPath id="clip0_1957_18518">
<rect width="303" height="239" fill="white" transform="translate(0 0.470703)"/>
</clipPath>
</defs>
</svg>
