<svg width="585" height="498" viewBox="0 0 585 498" fill="none" xmlns="http://www.w3.org/2000/svg">
<path fill-rule="evenodd" clip-rule="evenodd" d="M47.929 258.809C54.1687 215.515 43.4624 168.163 67.7198 131.775C91.8559 95.5695 138.994 86.5712 176.933 65.293C218.886 41.7639 254.415 -2.93376 302.408 0.151874C350.632 3.25237 380.142 52.5586 419.314 80.8764C463.057 112.499 531.231 124.372 546.066 176.293C560.915 228.268 515.937 277.721 488.928 324.536C467.279 362.059 438.362 392.584 405.205 420.447C372.531 447.903 339.746 477.541 297.768 485.171C255.057 492.934 214.047 474.174 172.15 462.806C121.747 449.129 54.5382 456.426 27.3624 411.798C0.0525842 366.949 40.4374 310.791 47.929 258.809Z" fill="#EAF4FE"/>
<g clip-path="url(#clip0_189_1139)">
<path d="M339.079 406.028C339.079 406.028 315.406 490.575 291.734 493.958C268.061 497.338 301.88 368.829 305.26 356.428C308.643 344.028 339.079 406.028 339.079 406.028Z" fill="#ED9568"/>
<path d="M275.95 164.791C275.95 164.791 260.169 136.61 266.932 121.955C273.695 107.3 296.242 88.1359 317.66 103.92C339.079 119.7 350.35 114.066 360.497 108.429C370.643 102.791 384.979 95.0639 416.859 109.558C454.061 126.467 438.277 186.213 420.242 200.868C402.204 215.523 434.897 218.903 473.225 216.648C511.552 214.394 576.932 229.045 583.699 270.756C586.814 289.964 583.699 390.247 478.863 363.192C374.026 336.136 315.406 418.428 248.897 313.592C226.167 277.761 303.009 192.972 275.953 164.791H275.95Z" fill="#222957"/>
<path d="M379.661 267.373C379.661 267.373 354.859 261.735 331.187 282.028C307.514 302.317 293.611 359.808 293.611 359.808L341.707 425.943L390.932 362.063C390.932 362.063 422.497 261.735 379.661 267.373Z" fill="#FDC12F"/>
<path d="M312.023 209.881C312.023 209.881 303.006 231.299 304.131 238.062C305.26 244.826 314.278 265.118 314.278 265.118L270.312 434.209C270.312 434.209 268.058 479.299 280.459 490.571C292.859 501.843 293.985 497.334 304.131 488.317C314.278 479.299 323.295 353.041 326.678 309.08C330.062 265.118 334.57 248.205 334.57 248.205C334.57 248.205 323.299 241.442 318.79 239.188C314.281 236.933 313.156 213.261 312.027 209.878L312.023 209.881Z" fill="#F7B68A"/>
<path d="M326.678 207.627C330.061 209.882 360.497 239.192 359.368 273.011C358.239 306.829 355.985 306.829 357.114 318.101C358.243 329.373 353.734 364.321 379.661 383.484C386.97 388.888 397.695 327.118 407.842 295.558C415.437 271.922 430.385 271.885 397.695 242.575C365.006 213.265 359.368 185.084 357.114 170.429C354.859 155.774 326.678 207.631 326.678 207.631V207.627Z" fill="#F7B68A"/>
<path d="M427.006 263.993C427.006 263.993 454.586 238.499 498.023 347.096C507.041 369.639 555.515 497.836 555.515 497.836H368.386C368.386 497.836 351.476 424.88 342.459 400.078C333.442 375.281 358.239 275.485 358.239 275.485L360.494 340.945C360.494 340.945 403.33 229.8 427.002 263.993H427.006Z" fill="#FBAA19"/>
<path d="M456.316 351.92L414.609 488.32C414.609 488.32 408.971 501.846 376.281 491.7C337.807 479.761 217.333 452.247 217.333 452.247C217.333 452.247 211.696 457.881 203.804 468.031C195.912 478.178 177.877 469.721 177.877 469.721L166.605 478.174C166.605 478.174 156.202 484.373 151.389 484.373C148.006 484.373 189.152 448.864 189.152 448.864L230.299 435.899L368.389 448.864L404.462 325.989L456.316 351.916V351.92Z" fill="#F7B68A"/>
<path d="M97.4902 436.434C98.1207 438.842 100.584 440.283 102.996 439.652L121.533 434.799C123.941 434.169 125.382 431.702 124.751 429.293L54.2252 159.934C53.5947 157.526 51.1314 156.085 48.7195 156.712L30.1825 161.565C27.7742 162.196 26.3337 164.659 26.9641 167.067L97.4902 436.427V436.434Z" fill="#4166B0"/>
<path d="M30.0982 163.94L100.624 433.3C101.255 435.708 103.718 437.149 106.13 436.518L124.667 431.665" stroke="#345AA9" stroke-width="3.13409" stroke-miterlimit="10"/>
<path d="M64.8082 301.239C64.8082 301.239 3.13078 457.368 3.13078 472.485C3.13078 492.352 18.9332 494.698 18.9332 494.698H89.8735" stroke="#345AA9" stroke-width="6.26451" stroke-miterlimit="10"/>
<path d="M110.235 497.836V494.083C110.235 491.594 110.569 491.572 113.058 491.572H224.657C227.146 491.572 232.42 491.594 232.42 494.083V497.836H110.235Z" fill="#345AA9"/>
<path d="M357.113 170.429C358.69 180.678 361.934 197.543 374.914 216.78C374.397 242.377 368.48 265.807 358.899 284.242C359.067 280.972 359.228 277.259 359.368 273.01C360.497 239.192 330.058 209.881 326.678 207.627C326.678 207.627 354.859 155.773 357.113 170.425V170.429Z" fill="#ED9568"/>
<path d="M306.924 223.649C309.212 216.568 312.027 209.881 312.027 209.881C313.156 213.265 314.281 236.937 318.79 239.192C323.299 241.446 334.57 248.209 334.57 248.209C334.57 248.209 332.789 254.891 330.63 270.76C318.552 261.339 309.644 244.151 306.924 223.649Z" fill="#ED9568"/>
<path d="M310.897 127.592C310.897 127.592 297.371 158.028 301.88 182.829C306.389 207.631 309.772 234.687 322.173 244.829C334.574 254.976 345.64 237.795 361.626 218.902C374.026 204.247 385.591 178.973 378.535 174.941C362.755 165.924 366.134 185.087 363.88 187.342C358.242 192.979 357.117 164.795 359.371 161.415C371.002 143.967 324.427 170.432 310.897 127.596V127.592Z" fill="#F7B68A"/>
<path d="M315.743 190.487C317.884 198.613 324.017 204.042 329.434 202.616C334.852 201.187 337.506 193.441 335.365 185.314C333.225 177.188 327.092 171.759 321.674 173.185C316.256 174.615 313.603 182.36 315.743 190.487Z" stroke="#222957" stroke-width="1.56521" stroke-miterlimit="10"/>
<path d="M290.942 190.487C293.086 198.613 299.215 204.042 304.633 202.616C310.051 201.187 312.705 193.441 310.564 185.314C308.42 177.188 302.291 171.759 296.873 173.185C291.455 174.615 288.801 182.36 290.942 190.487Z" stroke="#222957" stroke-width="1.56521" stroke-miterlimit="10"/>
<path d="M296.869 173.185C291.452 174.615 288.798 182.36 290.938 190.487C293.083 198.613 299.212 204.042 304.629 202.616" stroke="white" stroke-width="1.56521" stroke-miterlimit="10"/>
<path d="M332.315 185.084L363.88 173.812" stroke="#222957" stroke-width="1.56521" stroke-miterlimit="10"/>
<path d="M350.692 475.12C380.874 480.725 402.153 484.193 416.955 480.633L414.605 488.32C414.605 488.32 408.967 501.846 376.277 491.7C340.355 480.553 232.949 455.828 218.873 452.599C225.372 449.271 295.865 464.937 350.692 475.12Z" fill="#ED9568"/>
<path d="M247.286 431.298L252.764 432.63L242.619 474.339L237.141 473.006L247.286 431.298Z" fill="#6FACDD"/>
<path d="M256.273 432.751L261.862 433.486L256.23 476.324L250.641 475.589L256.273 432.751Z" fill="#003366"/>
<path d="M445.345 387.795C428.971 381.424 406.039 373.851 390.306 374.207L400.463 339.603L454.443 358.038L445.345 387.795Z" fill="#ED9568"/>
<path d="M502.535 395.885L385.298 351.92C385.298 351.92 386.424 279.777 401.079 252.721C408.557 238.917 427.39 239.991 457.441 275.265C483.368 305.704 502.531 395.885 502.531 395.885H502.535Z" fill="#FDC12F"/>
</g>
<defs>
<clipPath id="clip0_189_1139">
<rect width="584.388" height="399.836" fill="white" transform="matrix(-1 0 0 1 584.388 98)"/>
</clipPath>
</defs>
</svg>
