<svg width="931" height="510" viewBox="0 0 931 510" fill="none" xmlns="http://www.w3.org/2000/svg">
<g clip-path="url(#clip0_138_3492)">
<path d="M815.191 67.2427C684.147 -28.4733 597.539 -6.10113 525.811 36.8327C471.863 69.1258 429.563 135.553 299.901 153.087C81.5875 182.602 -68.1181 313.661 31.4495 510H733.963C743.914 474.488 757.441 444.84 791.785 423.681C959.934 320.065 946.235 162.955 815.191 67.2427V67.2427Z" fill="#EBF4FB"/>
<path d="M606.105 303.602H570.022V267.531H606.105V303.602ZM573.296 300.33H602.831V270.8H573.296V300.33Z" fill="#9EC5E9"/>
<path d="M596.395 288.499H579.732V291.771H596.395V288.499Z" fill="#9EC5E9"/>
<path d="M596.395 279.366H579.732V282.639H596.395V279.366Z" fill="#9EC5E9"/>
<path d="M606.105 303.671H538.358V235.946H606.105V303.671V303.671ZM541.632 300.399H602.835V239.215H541.632V300.399Z" fill="#9EC5E9"/>
<path d="M606.105 303.671H538.358V235.946H606.105V303.671V303.671ZM541.632 300.399H602.835V239.215H541.632V300.399Z" fill="#9EC5E9"/>
<path d="M574.027 237.581H570.753V301.723H574.027V237.581Z" fill="#9EC5E9"/>
<path d="M604.47 268.018H540.307V271.29H604.47V268.018Z" fill="#9EC5E9"/>
<path d="M564.053 252.194H547.39V255.467H564.053V252.194Z" fill="#9EC5E9"/>
<path d="M557.36 245.496H554.087V262.154H557.36V245.496Z" fill="#9EC5E9"/>
<path d="M596.969 252.194H580.306V255.467H596.969V252.194Z" fill="#9EC5E9"/>
<path d="M550.988 279.263L548.673 281.577L560.458 293.359L562.773 291.045L550.988 279.263Z" fill="#9EC5E9"/>
<path d="M560.45 279.24L548.668 291.019L550.983 293.333L562.765 281.554L560.45 279.24Z" fill="#9EC5E9"/>
<path d="M769.536 179.719H605.913V206.708H769.536V179.719Z" fill="white"/>
<path d="M619.004 179.719H615.73V192.695H619.004V179.719Z" fill="#9EC5E9"/>
<path d="M630.456 179.719H627.182V186.705H630.456V179.719Z" fill="#9EC5E9"/>
<path d="M641.911 179.719H638.638V192.695H641.911V179.719Z" fill="#9EC5E9"/>
<path d="M653.363 179.719H650.09V186.705H653.363V179.719Z" fill="#9EC5E9"/>
<path d="M664.819 179.719H661.545V192.695H664.819V179.719Z" fill="#9EC5E9"/>
<path d="M676.271 179.719H672.997V186.705H676.271V179.719Z" fill="#9EC5E9"/>
<path d="M687.727 179.719H684.453V192.695H687.727V179.719Z" fill="#9EC5E9"/>
<path d="M699.178 179.719H695.905V186.705H699.178V179.719Z" fill="#9EC5E9"/>
<path d="M710.634 179.719H707.361V192.695H710.634V179.719Z" fill="#9EC5E9"/>
<path d="M722.086 179.719H718.812V186.705H722.086V179.719Z" fill="#9EC5E9"/>
<path d="M733.542 179.719H730.268V192.695H733.542V179.719Z" fill="#9EC5E9"/>
<path d="M744.994 179.719H741.72V186.705H744.994V179.719Z" fill="#9EC5E9"/>
<path d="M756.446 179.719H753.172V192.695H756.446V179.719Z" fill="#9EC5E9"/>
<path d="M375.719 193.043C375.719 193.043 428.411 203.565 446.36 197.219C464.309 190.869 440.226 180.052 447.96 156.379C455.698 132.706 466.392 68.2455 439.403 96.8068C412.414 125.368 423.877 145.562 429.977 128.878C436.076 112.19 463.509 72.3639 416.419 57.8269C369.332 43.2898 342.504 67.6254 375.393 97.1245C408.279 126.62 345.027 38.1072 335.601 70.1784C326.174 102.25 354.503 109.001 363.911 112.19C373.318 115.378 335.436 74.404 328.617 109.396C321.798 144.391 343.974 169.236 375.723 193.047L375.719 193.043Z" fill="#212B54"/>
<path d="M655.481 245.117C655.481 245.117 672.235 247.222 717.384 279.45Z" fill="#C6E0F5"/>
<path d="M683.002 269.583C680.406 268.596 678.021 267.539 675.831 266.429C674.735 265.874 673.69 265.3 672.695 264.722C671.692 264.186 670.734 263.677 669.823 263.134C668.004 262.062 666.37 260.925 664.911 259.792C663.46 258.77 662.181 257.71 661.063 256.619C659.922 255.478 659.034 254.567 658.245 253.534C657.858 253.029 657.502 252.516 657.184 252.003C656.867 251.494 656.641 251.058 656.411 250.575C656.189 250.101 655.994 249.626 655.829 249.148C655.756 248.914 655.68 248.669 655.618 248.44C655.572 248.206 655.549 247.992 655.523 247.766C655.404 246.866 655.331 245.963 655.492 245.102C655.592 244.233 655.909 243.399 656.621 242.66C657.004 242.292 657.337 241.959 657.789 241.646C658.233 241.336 658.739 241.045 659.317 240.796C660.519 240.264 661.779 239.946 663.303 239.739C664.061 239.632 664.873 239.571 665.734 239.544C666.607 239.51 667.415 239.579 668.326 239.651C670.114 239.82 672.09 240.134 674.161 240.647C676.152 241.221 678.262 241.971 680.463 242.901C681.558 243.376 682.711 243.866 683.817 244.455C684.909 245.056 686.015 245.703 687.137 246.399C689.373 247.793 691.674 249.385 693.983 251.165C695.859 252.642 697.98 254.648 700.197 256.91C701.303 258.039 702.429 259.241 703.559 260.485C704.684 261.721 705.821 262.992 706.863 264.358C711.117 269.736 715.018 275.332 717.4 279.435C712.64 278.662 706.461 277.28 700.316 275.485C699.542 275.252 698.773 275.022 698.007 274.792C697.23 274.574 696.449 274.352 695.687 274.138C694.144 273.698 692.627 273.235 691.153 272.748C688.205 271.784 685.441 270.704 683.006 269.575L683.002 269.583Z" fill="#C6E0F5"/>
<path d="M675.367 291.925C675.367 291.925 728.312 294.137 730.49 294.382Z" fill="#C6E0F5"/>
<path d="M703.153 303.828C685.372 306.404 674.755 298.91 675.375 291.917C675.608 284.905 686.961 278.398 704.16 282.417C707.789 283.14 712.855 285.043 717.748 287.305C722.649 289.567 727.377 292.192 730.494 294.374C726.914 296.261 722.14 298.397 717.25 300.177C712.357 301.957 707.345 303.377 703.153 303.828V303.828Z" fill="#C6E0F5"/>
<path d="M717.231 274.421C708.773 260.228 712.185 248.551 718.904 246.522C725.513 244.16 735.426 251.452 737.497 267.394C738.577 273.897 737.244 286.933 735.399 294.049C729.506 289.628 721.026 281.368 717.231 274.421V274.421Z" fill="#C6E0F5"/>
<path d="M748.784 243.709C748.784 243.709 766.075 278.314 750.281 310.737Z" fill="#C6E0F5"/>
<path d="M746.181 278.402C745.664 275.998 745.22 273.736 744.841 271.589C744.435 269.445 744.136 267.405 743.883 265.484C743.393 261.633 743.229 258.2 743.412 255.222C743.776 249.274 745.572 245.117 748.796 243.709C751.901 242.086 756.821 244.003 761.055 249.768C763.146 252.646 765.08 256.481 766.335 261.204C767.61 265.909 768.208 271.527 767.614 277.686C767.384 280.224 766.871 283.282 765.887 286.505C764.907 289.728 763.594 293.103 761.905 296.257C760.209 299.415 758.299 302.366 756.231 304.82C755.741 305.443 755.217 306.029 754.7 306.58C754.183 307.139 753.677 307.663 753.191 308.165C752.165 309.149 751.181 310.002 750.289 310.741C750.27 309.566 750.254 308.31 750.239 307.009C750.163 305.685 750.155 304.333 750.048 302.933C749.879 300.138 749.546 297.214 749.152 294.344C748.711 291.458 748.195 288.629 747.666 285.942C747.111 283.255 746.571 280.714 746.181 278.402V278.402Z" fill="#C6E0F5"/>
<path d="M691.751 318.924C691.751 318.924 722.955 312.287 750.369 317.803Z" fill="#C6E0F5"/>
<path d="M722.071 326.392C719.865 326.832 717.763 327.241 715.776 327.444C713.789 327.716 711.905 327.796 710.133 327.842C706.587 327.862 703.482 327.49 700.855 326.729C695.625 325.251 692.325 322.373 691.751 318.913C690.973 315.491 693.332 311.414 698.501 308.418C701.078 306.955 704.347 305.715 708.23 305.065C710.163 304.701 712.261 304.555 714.474 304.49C716.707 304.498 719.05 304.582 721.516 304.957C725.566 305.363 731.333 307.101 736.762 309.508C738.121 310.128 739.457 310.752 740.751 311.418C742.042 312.123 743.286 312.834 744.45 313.539C745.618 314.212 746.705 315.001 747.697 315.717C748.688 316.44 749.581 317.133 750.365 317.791C749.381 318.14 748.329 318.499 747.226 318.855C746.119 319.23 744.982 319.54 743.788 319.973C741.372 320.769 738.86 321.596 736.394 322.411C735.766 322.602 735.138 322.801 734.514 322.997C733.883 323.2 733.258 323.402 732.634 323.605C731.386 324.011 730.157 324.352 728.947 324.708C727.734 325.071 726.543 325.393 725.398 325.665C724.249 325.925 723.127 326.212 722.059 326.392H722.071Z" fill="#C6E0F5"/>
<path d="M694.086 343.241C694.086 343.241 712.418 329.415 760.975 350.995Z" fill="#C6E0F5"/>
<path d="M726.891 350.999C725.628 350.999 724.406 350.961 723.231 350.888C722.94 350.869 722.645 350.846 722.358 350.827C722.075 350.827 721.795 350.819 721.512 350.819C720.953 350.808 720.401 350.789 719.858 350.758C717.679 350.574 715.738 350.559 713.889 350.314C710.274 350.05 707.246 349.545 704.688 348.967C702.153 348.408 700.036 347.65 698.252 346.716C696.494 345.801 695.116 344.642 694.09 343.218C692.983 341.855 692.934 339.712 694.101 337.404C695.262 335.099 697.678 332.726 701.189 330.851C702.058 330.403 703 329.97 704.01 329.557C705.006 329.19 706.055 328.872 707.169 328.566C707.724 328.424 708.302 328.244 708.873 328.152C709.443 328.049 710.033 327.95 710.634 327.862C711.231 327.773 711.848 327.697 712.476 327.62C713.104 327.548 713.743 327.479 714.375 327.475C715.65 327.437 716.963 327.444 718.319 327.479C718.655 327.49 718.996 327.506 719.341 327.521C719.674 327.555 720.007 327.594 720.348 327.632C721.029 327.712 721.715 327.8 722.412 327.9C723.105 327.999 723.813 328.114 724.521 328.233C724.873 328.298 725.233 328.355 725.586 328.428C725.934 328.516 726.282 328.608 726.635 328.696C728.044 329.06 729.472 329.473 730.923 329.928C732.14 330.25 733.392 330.797 734.74 331.379C736.084 331.968 737.497 332.631 738.944 333.358C740.357 334.139 741.785 335.011 743.232 335.907C744.664 336.826 746.135 337.695 747.49 338.762C748.868 339.792 750.216 340.837 751.51 341.874C752.15 342.399 752.785 342.915 753.413 343.436C754.033 343.953 754.608 344.519 755.186 345.051C757.464 347.202 759.455 349.227 760.99 350.972C758.624 351.106 755.906 351.168 753.027 351.156C752.303 351.148 751.575 351.141 750.836 351.133C750.086 351.148 749.332 351.164 748.577 351.179C747.057 351.202 745.526 351.21 743.991 351.191C743.229 351.191 742.467 351.152 741.701 351.16C740.931 351.175 740.169 351.191 739.411 351.206C737.899 351.225 736.41 351.21 734.962 351.168C733.511 351.141 732.102 351.198 730.758 351.152C729.407 351.141 728.113 350.988 726.903 350.991L726.891 350.999Z" fill="#C6E0F5"/>
<path d="M783.929 275.577C777.198 287.289 766.305 347.73 766.305 347.73Z" fill="#C6E0F5"/>
<path d="M762.97 309.906C763.946 297.7 767.3 288.208 771.516 282.118C773.618 279.079 775.961 276.882 778.201 275.73C778.767 275.439 779.3 275.229 779.832 275.083C780.383 274.922 780.9 274.846 781.386 274.838C782.359 274.831 783.197 275.11 783.932 275.592C784.698 276.017 785.357 276.656 785.939 277.391C786.23 277.762 786.498 278.145 786.754 278.574C787.015 279.018 787.252 279.489 787.466 279.982C788.339 281.992 788.898 284.621 789.048 287.921C789.331 294.497 787.972 303.66 783.91 314.519C782.34 319.02 779.334 325.259 776.03 331.421C772.726 337.584 769.127 343.654 766.312 347.738C763.866 338.112 761.695 321.642 762.962 309.91L762.97 309.906Z" fill="#C6E0F5"/>
<path d="M807.035 324.183C807.035 324.183 775.938 351.355 762.472 384.701Z" fill="#C6E0F5"/>
<path d="M772.408 346.517C772.799 345.809 773.201 345.116 773.603 344.435C774.012 343.761 774.441 343.118 774.866 342.475C775.716 341.201 776.562 339.972 777.428 338.808C779.2 336.539 780.946 334.441 782.757 332.661C786.318 329.04 789.917 326.449 793.152 324.719C799.684 321.286 804.911 321.412 807.043 324.199C809.386 326.817 809.004 331.792 806.044 337.936C804.589 341.036 802.433 344.389 799.703 347.998C798.298 349.767 796.828 351.657 795.097 353.525C793.459 355.451 791.537 357.349 789.58 359.366C786.314 362.696 781.302 367.109 776.214 371.71C774.954 372.858 773.679 374.018 772.416 375.17C771.213 376.341 770.004 377.497 768.813 378.607C767.584 379.702 766.546 380.827 765.486 381.849C764.437 382.887 763.433 383.847 762.495 384.709C762.48 383.465 762.495 382.102 762.545 380.64C762.618 379.193 762.641 377.593 762.874 376.012C763.073 374.42 763.311 372.747 763.59 371.025C763.721 370.156 763.916 369.318 764.103 368.453L764.716 365.854C764.938 364.974 765.16 364.097 765.382 363.221C765.627 362.352 765.911 361.502 766.19 360.641C766.753 358.934 767.32 357.2 767.99 355.562C768.663 353.931 769.364 352.339 770.092 350.804C770.808 349.269 771.627 347.868 772.416 346.513L772.408 346.517Z" fill="#C6E0F5"/>
<path d="M693.523 363.917C693.523 363.917 725.942 356.316 758.276 374.96Z" fill="#C6E0F5"/>
<path d="M725.857 374.485C724.632 374.504 723.457 374.485 722.32 374.428C721.171 374.409 720.061 374.401 718.989 374.336C718.453 374.301 717.924 374.267 717.403 374.232C716.887 374.213 716.37 374.187 715.868 374.152C714.861 374.087 713.889 373.957 712.943 373.865C709.172 373.467 705.906 372.805 703.145 371.898C697.647 370.122 694.163 367.362 693.523 363.906C693.087 362.214 693.615 360.281 695.04 358.444C696.471 356.591 698.819 354.842 702.019 353.479C705.213 352.109 709.267 351.221 713.961 351.034C715.137 351.003 716.347 351.041 717.603 351.102C718.227 351.133 718.858 351.168 719.502 351.221C720.141 351.302 720.792 351.386 721.447 351.481C722.76 351.688 724.1 351.895 725.459 352.213C726.818 352.553 728.201 352.944 729.598 353.38C730.766 353.682 732.014 354.191 733.339 354.754C734.652 355.332 736.057 355.914 737.455 356.691C738.856 357.468 740.28 358.31 741.709 359.19C742.425 359.604 743.121 360.101 743.807 360.606C744.484 361.108 745.17 361.621 745.855 362.13C746.518 362.643 747.188 363.156 747.854 363.676C748.516 364.177 749.121 364.786 749.734 365.337C750.947 366.459 752.104 367.573 753.176 368.648C755.262 370.918 756.974 373.138 758.276 374.964C755.955 374.906 753.348 374.753 750.622 374.588C749.224 374.577 747.8 374.546 746.368 374.508C745.656 374.477 744.944 374.454 744.224 374.428C743.493 374.439 742.765 374.447 742.038 374.454C740.583 374.47 739.147 374.447 737.73 374.435C736.291 374.497 734.882 374.523 733.523 374.523C732.167 374.477 730.816 374.581 729.533 374.565C728.25 374.581 727.041 374.485 725.857 374.497V374.485Z" fill="#C6E0F5"/>
<path d="M769.291 475.912C761.052 462.603 755.837 448.916 753.796 435.221C752.157 424.236 753.046 416.351 753.425 412.987C753.467 412.6 753.505 412.278 753.528 412.018C754.566 401.167 756.641 392.36 758.471 384.594C762.683 366.719 766.01 352.603 754.064 325.699C743.592 302.117 719.115 281.28 700.427 267.956C680.126 253.484 662.081 244.497 661.901 244.409L662.629 242.943C662.809 243.031 680.957 252.064 701.357 266.609C720.221 280.055 744.94 301.111 755.561 325.037C767.733 352.446 764.348 366.799 760.068 384.973C758.249 392.689 756.189 401.435 755.159 412.179C755.132 412.447 755.098 412.78 755.052 413.174C752.736 433.747 757.996 454.569 770.685 475.058L769.295 475.919L769.291 475.912Z" fill="#9EC5E9"/>
<path d="M738.374 301.754C734.265 295.488 730.012 284.38 725.739 268.737C722.565 257.12 720.562 247.199 720.543 247.1L722.147 246.778C722.228 247.173 730.146 286.229 739.744 300.858L738.378 301.754H738.374Z" fill="#9EC5E9"/>
<path d="M736.482 298.661C718.843 287.217 676.849 292.713 676.428 292.77L676.21 291.148C676.317 291.132 687.053 289.708 699.837 289.743C717.101 289.789 729.732 292.326 737.374 297.287L736.482 298.657V298.661Z" fill="#9EC5E9"/>
<path d="M748.976 313.952L747.578 313.099C756.871 297.869 757.116 280.09 755.687 267.861C754.137 254.575 750.335 244.803 750.297 244.708L751.82 244.111C751.859 244.21 755.737 254.177 757.315 267.673C758.773 280.159 758.509 298.324 748.976 313.952V313.952Z" fill="#9EC5E9"/>
<path d="M693.313 319.38L692.447 317.99C692.723 317.818 699.32 313.761 709.903 311.602C719.666 309.608 734.759 308.961 751.235 317.206L750.503 318.668C734.476 310.649 719.793 311.261 710.297 313.19C699.982 315.284 693.378 319.338 693.313 319.38Z" fill="#9EC5E9"/>
<path d="M763.697 366.75L762.074 366.554C766.481 330.043 782.523 277.035 782.684 276.503L784.25 276.978C784.089 277.506 768.089 330.384 763.697 366.75V366.75Z" fill="#9EC5E9"/>
<path d="M762.15 355.998C760.458 350.096 751.43 344.377 737.995 340.699C722.369 336.42 701.843 335.574 694.584 342.433L693.458 341.243C697.953 336.998 706.315 335.922 712.541 335.769C720.62 335.57 729.809 336.761 738.427 339.118C752.624 343.003 761.844 348.993 763.724 355.542L762.15 355.994V355.998Z" fill="#9EC5E9"/>
<path d="M755.167 411.123L753.547 410.885C755.328 398.832 761.503 378.902 780.804 352.419C792.329 336.607 803.245 325.791 803.352 325.684L804.501 326.847C804.394 326.954 793.558 337.695 782.11 353.403C771.569 367.867 758.341 389.619 755.163 411.123H755.167Z" fill="#9EC5E9"/>
<path d="M760.029 378.967C749.466 365.387 732.948 361.395 720.949 360.434C707.87 359.389 697.161 361.617 697.053 361.64L696.713 360.04C696.82 360.017 707.724 357.743 721.033 358.8C738.73 360.204 752.659 366.834 761.316 377.96L760.026 378.963L760.029 378.967Z" fill="#9EC5E9"/>
<path d="M895.438 365.345L906.14 373.762C915.44 367.959 923.721 361.464 930.698 354.574C925.307 346.659 918.844 339.271 911.397 332.761C874.721 300.693 803.325 329.622 799.014 393.412C818.709 400.505 846.908 399.311 876.363 388.349C884.009 385.505 891.288 382.163 898.118 378.431L895.438 365.349V365.345Z" fill="#C6E0F5"/>
<path d="M784.005 435.343L782.389 435.083C786.861 407.18 802.556 387.545 802.713 387.357C814.655 372.881 828.833 362.107 844.856 355.336C857.671 349.92 871.684 347.038 886.502 346.777C911.718 346.33 930.809 353.74 931 353.812L930.399 355.336C930.211 355.263 911.362 347.96 886.467 348.416C871.868 348.68 858.069 351.524 845.457 356.859C829.694 363.527 815.738 374.141 803.976 388.402C803.823 388.59 788.408 407.873 784.005 435.347V435.343Z" fill="#9EC5E9"/>
<path d="M916.055 336.994L904.286 348.155L905.411 349.341L917.18 338.179L916.055 336.994Z" fill="#9EC5E9"/>
<path d="M903.333 327.058L886.11 346.963L887.346 348.032L904.57 328.127L903.333 327.058Z" fill="#9EC5E9"/>
<path d="M888.332 321.022L868.008 348.67L869.326 349.638L889.649 321.99L888.332 321.022Z" fill="#9EC5E9"/>
<path d="M868.721 319.509L851.528 353.082L852.983 353.827L870.176 320.254L868.721 319.509Z" fill="#9EC5E9"/>
<path d="M851.031 323.497L838.079 358.575L839.613 359.141L852.565 324.062L851.031 323.497Z" fill="#9EC5E9"/>
<path d="M831.767 333.36L822.107 368.928L823.685 369.356L833.345 333.788L831.767 333.36Z" fill="#9EC5E9"/>
<path d="M815.377 348.615L808.614 381.006L810.214 381.34L816.977 348.949L815.377 348.615Z" fill="#9EC5E9"/>
<path d="M906.06 348.003L904.727 348.95L916.963 366.149L918.295 365.202L906.06 348.003Z" fill="#9EC5E9"/>
<path d="M887.383 347.019L886.116 348.052L906.823 373.443L908.091 372.41L887.383 347.019Z" fill="#9EC5E9"/>
<path d="M869.347 348.734L868.009 349.673L890.861 382.179L892.199 381.239L869.347 348.734Z" fill="#9EC5E9"/>
<path d="M852.955 353.074L851.568 353.94L873.85 389.587L875.237 388.721L852.955 353.074Z" fill="#9EC5E9"/>
<path d="M839.534 358.405L838.119 359.224L858.308 394.097L859.723 393.278L839.534 358.405Z" fill="#9EC5E9"/>
<path d="M823.529 368.645L822.144 369.513L839.737 397.572L841.123 396.704L823.529 368.645Z" fill="#9EC5E9"/>
<path d="M810.038 380.69L808.741 381.685L821.302 398.054L822.599 397.06L810.038 380.69Z" fill="#9EC5E9"/>
<path d="M755.04 145.555C762.319 165.037 776.891 172.263 797.628 171.773C813.292 156.034 815.773 137.249 803.092 118.165C790.472 99.2449 766.929 84.0035 746.847 79.1081C745.978 99.0114 747.839 126.287 755.04 145.551V145.555Z" fill="#C6E0F5"/>
<path d="M787.325 377.111L786.046 376.089C798.792 360.147 807.682 340.496 812.461 317.676C816.351 299.113 817.549 278.409 816.025 256.137C813.077 213.012 801.357 181.032 801.242 180.738C788.431 148.192 768.836 111.114 752.479 88.4703L753.804 87.5134C770.233 110.257 789.909 147.48 802.762 180.14C802.881 180.439 814.693 212.663 817.656 256.026C819.188 278.448 817.978 299.304 814.061 318.013C809.229 341.086 800.232 360.97 787.321 377.111H787.325Z" fill="#9EC5E9"/>
<path d="M767.182 108.435L765.566 108.171C766.362 103.302 766.933 97.2775 767.128 91.6434L768.763 91.7008C768.564 97.4039 767.989 103.505 767.178 108.435H767.182Z" fill="#9EC5E9"/>
<path d="M775.333 122.746L773.759 122.295C774.131 121.001 774.521 119.703 774.908 118.41C776.378 113.495 777.898 108.412 778.526 103.543L780.15 103.75C779.506 108.753 777.967 113.901 776.478 118.876C776.091 120.166 775.704 121.456 775.333 122.746V122.746Z" fill="#9EC5E9"/>
<path d="M783.523 137.945L782.01 137.318C786.038 127.622 789.086 116.58 790.595 106.23L792.214 106.468C790.686 116.951 787.6 128.128 783.523 137.949V137.945Z" fill="#9EC5E9"/>
<path d="M789.768 150.232L788.332 149.443C793.386 140.246 797.295 130.73 799.956 121.169L801.533 121.606C798.842 131.289 794.883 140.919 789.768 150.228V150.232Z" fill="#9EC5E9"/>
<path d="M794.599 162.384L793.256 161.45C796.636 156.586 799.707 151.545 802.383 146.466L803.831 147.227C801.124 152.364 798.015 157.466 794.599 162.381V162.384Z" fill="#9EC5E9"/>
<path d="M764.743 106.387C759.321 104.814 754.256 103.329 749.251 101.848L749.715 100.278C754.711 101.76 759.777 103.245 765.194 104.818L764.739 106.387H764.743Z" fill="#9EC5E9"/>
<path d="M772.994 121.709C768.556 120.607 764.341 119.443 760.263 118.318C757.039 117.43 753.704 116.507 750.224 115.608L750.634 114.023C754.125 114.926 757.468 115.849 760.696 116.741C764.762 117.862 768.97 119.026 773.388 120.12L772.994 121.709Z" fill="#9EC5E9"/>
<path d="M780.831 136.062C774.839 134.834 769.291 133.571 763.418 132.231C759.826 131.412 756.109 130.566 752.314 129.735L752.663 128.139C756.465 128.97 760.186 129.819 763.782 130.639C769.647 131.974 775.184 133.238 781.16 134.462L780.831 136.066V136.062Z" fill="#9EC5E9"/>
<path d="M787.991 149.252C778.117 147.675 768.043 145.995 758.054 144.253L758.333 142.642C768.315 144.383 778.381 146.064 788.248 147.637L787.991 149.252V149.252Z" fill="#9EC5E9"/>
<path d="M793.282 161.473C783.021 160.295 774.797 159.307 767.392 158.365L767.599 156.743C774.992 157.684 783.213 158.672 793.466 159.847L793.278 161.473H793.282Z" fill="#9EC5E9"/>
<path d="M803.976 309.447C803.976 309.447 777.803 253.159 801.805 219.913C825.808 186.666 873.304 172.964 873.304 172.964C873.304 172.964 901.35 239.292 871.03 272.258C840.709 305.218 811.653 301.574 803.976 309.447V309.447Z" fill="#C6E0F5"/>
<path d="M783.128 447.216C781 413.794 784.38 378.55 793.183 342.464C800.22 313.608 810.722 284.147 824.391 254.908C847.666 205.123 872.412 172.788 872.657 172.466L873.951 173.465C873.706 173.787 849.052 206.007 825.854 255.639C812.235 284.778 801.775 314.132 794.764 342.877C786.008 378.795 782.638 413.863 784.759 447.113L783.125 447.216H783.128Z" fill="#9EC5E9"/>
<path d="M862.503 187.011C859.628 184.32 856.986 179.991 854.662 174.147L856.182 173.542C858.418 179.164 860.922 183.294 863.621 185.817L862.503 187.011V187.011Z" fill="#9EC5E9"/>
<path d="M856.557 198.918C852.253 195.317 848.348 188.599 844.956 178.954L846.499 178.41C849.795 187.776 853.532 194.253 857.606 197.663L856.557 198.918V198.918Z" fill="#9EC5E9"/>
<path d="M849.006 209.999C843.455 205.816 838.684 197.33 834.821 184.776L836.383 184.293C840.089 196.339 844.795 204.775 849.99 208.69L849.006 209.995V209.999Z" fill="#9EC5E9"/>
<path d="M842.505 221.237C834.231 215.588 828.798 202.325 825.697 192.193L827.263 191.715C830.288 201.598 835.548 214.508 843.428 219.886L842.505 221.237Z" fill="#9EC5E9"/>
<path d="M836.123 232.942C830.72 229.581 822.921 221.069 816.45 199.611L818.016 199.141C820.873 208.614 827.14 225.424 836.988 231.556L836.123 232.946V232.942Z" fill="#9EC5E9"/>
<path d="M830.035 244.811C818.418 238.205 811.025 219.339 807.648 208.683L809.206 208.189C812.507 218.615 819.709 237.056 830.839 243.391L830.031 244.811H830.035Z" fill="#9EC5E9"/>
<path d="M824.533 257.021C818.79 254.024 813.28 247.934 808.15 238.928C803.926 231.51 800.856 223.675 799.022 218.405L800.569 217.869C803.739 226.978 812.491 248.887 825.291 255.57L824.533 257.021Z" fill="#9EC5E9"/>
<path d="M818.441 268.886C805.607 262.716 796.33 243.533 791.946 232.647L793.462 232.035C797.758 242.702 806.813 261.48 819.15 267.409L818.441 268.883V268.886Z" fill="#9EC5E9"/>
<path d="M813.357 281.736C802.651 276.986 793.841 263.516 788.336 253.056L789.783 252.294C795.166 262.525 803.743 275.676 814.019 280.239L813.357 281.736V281.736Z" fill="#9EC5E9"/>
<path d="M808.957 294.079C802.586 291.461 796.001 285.697 789.377 276.947L790.683 275.96C797.127 284.472 803.482 290.057 809.582 292.564L808.961 294.076L808.957 294.079Z" fill="#9EC5E9"/>
<path d="M864.601 186.663L863.992 185.143C868.702 183.26 874.066 181.729 879.935 180.6L880.246 182.207C874.476 183.317 869.211 184.818 864.601 186.663V186.663Z" fill="#9EC5E9"/>
<path d="M856.48 198.352L855.806 196.863C863.28 193.476 872.397 191.661 882.907 191.466L882.937 193.101C872.653 193.292 863.751 195.06 856.484 198.352H856.48Z" fill="#9EC5E9"/>
<path d="M849.34 209.969L848.608 208.507C860.929 202.333 875.678 203.018 885.882 204.675L885.617 206.29C875.655 204.668 861.27 203.99 849.34 209.969Z" fill="#9EC5E9"/>
<path d="M887.857 221.421C877.749 217.697 858.49 212.702 843.06 221.111L842.279 219.675C858.272 210.956 878.056 216.066 888.424 219.886L887.857 221.421Z" fill="#9EC5E9"/>
<path d="M890.285 239.07C890.208 239.02 882.424 234.094 871.933 230.89C862.331 227.954 848.417 225.899 836.67 232.781L835.843 231.369C845.553 225.681 858.211 224.977 872.45 229.336C883.144 232.609 891.085 237.638 891.165 237.692L890.285 239.07V239.07Z" fill="#9EC5E9"/>
<path d="M885.878 253.836C885.797 253.775 877.814 247.823 867.021 243.778C857.147 240.076 842.819 237.263 830.64 244.857L829.775 243.468C839.875 237.171 852.966 236.75 867.634 242.258C878.638 246.388 886.781 252.466 886.862 252.527L885.878 253.836V253.836Z" fill="#9EC5E9"/>
<path d="M881.478 268.599C881.398 268.53 873.285 261.591 862.258 256.749C847.598 250.311 835.028 250.434 824.901 257.105L824.001 255.739C834.484 248.834 847.954 248.669 862.955 255.268C874.2 260.213 882.47 267.29 882.551 267.363L881.482 268.603L881.478 268.599Z" fill="#9EC5E9"/>
<path d="M870.758 277.862C844.603 257.281 827.565 263.291 819.735 268.699L818.805 267.352C827.286 261.492 837.298 260.286 848.566 263.769C858.008 266.689 866.397 272.343 871.769 276.572L870.758 277.858V277.862Z" fill="#9EC5E9"/>
<path d="M861.913 288.48C854.317 282.685 846.878 278.83 839.806 277.024C830.196 274.57 821.55 276.044 814.107 281.414L813.15 280.086C821.007 274.421 830.111 272.856 840.212 275.435C847.498 277.296 855.133 281.246 862.905 287.175L861.913 288.476V288.48Z" fill="#9EC5E9"/>
<path d="M850.289 296.426C843.482 291.771 836.885 288.931 830.674 287.986C822.883 286.799 815.688 288.629 809.294 293.421L808.314 292.112C820.352 283.087 835.185 284.109 851.216 295.071L850.293 296.422L850.289 296.426Z" fill="#9EC5E9"/>
<path d="M809.558 510H744.117L733.213 442.528H820.467L809.558 510Z" fill="#C6E0F5"/>
<path d="M777.833 510H752.023L739.488 442.528H771.811L777.833 510Z" fill="#9EC5E9"/>
<path d="M803.896 456.024H738.447V457.658H803.896V456.024Z" fill="#6FACDE"/>
<path d="M283.843 300.284C283.843 300.284 277.598 248.796 237.798 248.796C195.647 248.796 169.887 246.993 147.274 250.357C127.74 253.255 101.229 270.639 108.251 319.008C118.39 388.842 148.833 509.369 148.833 509.369H327.545L289.303 328.371L283.839 300.284H283.843Z" fill="#6FACDE"/>
<path d="M288.48 300.284C288.48 300.284 282.901 248.796 247.328 248.796C209.653 248.796 186.63 246.993 166.418 250.357C148.959 253.255 125.263 270.639 131.538 319.008C140.601 388.842 167.812 509.369 167.812 509.369H327.545L293.365 328.371L288.484 300.284H288.48Z" fill="#9EC5E9"/>
<path d="M470.389 208.051L465.776 181.147L446.747 173.458C446.747 173.458 446.555 179.608 451.169 183.451L455.783 187.29L460.396 203.435L470.393 208.047L470.389 208.051Z" fill="#E9AC86"/>
<path d="M326.603 218.045C326.603 218.045 294.307 219.58 256.632 238.798C218.953 258.012 226.645 259.551 218.183 274.157C209.726 288.759 192.81 367.936 192.81 367.936L260.472 373.314L233.56 489.381L421.944 498.605L425.018 384.077C425.018 384.077 462.694 341.798 471.921 344.106C481.148 346.414 479.609 229.577 399.645 226.5C319.677 223.426 326.599 218.049 326.599 218.049L326.603 218.045Z" fill="#38598A"/>
<path d="M474.425 227.652L447.807 256.546L409.029 186.785L443.086 167.866L474.425 227.652Z" fill="#222957"/>
<path d="M432.331 367.163C432.331 367.163 471.929 481.309 525.754 502.065C579.575 522.819 494.997 333.346 478.081 324.118C461.166 314.894 432.331 367.163 432.331 367.163Z" fill="#ED9568"/>
<path d="M261.054 368.893C261.054 368.893 252.018 434.808 239.716 466.32C227.415 497.836 224.003 512.607 207.999 498.605C194.158 486.499 185.891 454.022 185.891 442.493C185.891 430.965 197.619 367.741 197.619 367.741L261.054 368.893V368.893Z" fill="#F7B68A"/>
<path d="M232.028 439.42C232.028 439.42 394.269 480.926 410.415 478.622C426.565 476.314 462.701 462.477 462.701 462.477C462.701 462.477 490.383 486.304 494.997 490.916C499.611 495.528 485.77 504.752 475.007 507.057C464.244 509.365 233.567 507.057 233.567 507.057C233.567 507.057 188.97 507.057 207.424 470.932C225.879 434.808 232.028 439.42 232.028 439.42V439.42Z" fill="#F7B68A"/>
<path d="M353.516 153.474C353.516 153.474 354.285 125.804 356.59 114.272C358.899 102.743 369.662 97.3618 385.811 91.9802C401.957 86.6025 399.653 88.1373 395.805 85.0638C391.961 81.9903 405.802 78.9129 422.717 85.8331C439.633 92.7534 466.541 110.433 447.325 138.872C428.1 167.314 355.821 183.455 353.516 153.478V153.474Z" fill="#222957"/>
<path d="M319.298 218.424C319.298 218.424 331.986 218.045 340.44 208.047C348.898 198.053 355.051 185.752 352.742 177.297C350.433 168.842 345.824 140.403 356.586 146.554C367.353 152.701 364.275 151.935 366.583 157.313C368.888 162.694 369.658 158.852 371.967 152.701C374.272 146.554 381.964 135.791 388.113 134.252C394.262 132.717 394.262 111.96 390.417 107.352C386.573 102.739 407.333 111.964 421.944 114.268C436.554 116.576 442.707 115.807 448.856 128.874C455.009 141.941 454.24 155.778 450.395 169.615C446.551 183.451 429.636 213.429 427.327 220.345C425.018 227.265 426.557 228.8 414.256 228.8C401.954 228.8 407.337 229.573 408.106 238.794C408.876 248.019 411.951 281.839 381.964 283.374C351.973 284.912 325.447 273.763 319.298 218.42V218.424Z" fill="#F7B68A"/>
<path d="M425.026 217.272C425.026 224.957 498.615 463.648 523.445 499.757C536.133 518.203 555.354 479.77 556.893 453.639C558.432 427.504 473.468 264.163 473.468 264.163L483.465 230.343C483.465 230.343 489.618 229.577 475.776 211.128C461.935 192.68 458.091 192.68 458.091 192.68L446.559 198.057L439.64 210.355C439.64 210.355 448.255 230.297 453.481 228.804C458.865 227.269 451.176 221.888 457.326 220.349C463.478 218.814 468.092 222.657 468.092 222.657L453.481 248.788C453.481 248.788 446.563 254.939 441.18 244.945C435.796 234.951 425.034 211.125 425.034 217.272H425.026Z" fill="#F7B68A"/>
<path d="M453.474 228.8C458.857 227.265 451.169 221.884 457.318 220.345C463.471 218.81 468.084 222.653 468.084 222.653L453.474 248.784C453.474 248.784 446.555 254.935 441.172 244.941C435.789 234.947 427.717 213.429 427.717 219.576C427.717 222.845 438.362 265.595 455.76 318.985C455.92 302.726 455.243 282.176 452.708 274.149C448.094 259.543 455.017 262.621 460.396 258.005C465.779 253.392 478.081 224.184 478.081 224.184L466.549 214.194C466.549 214.194 461.935 214.194 455.783 212.656C449.633 211.121 446.555 198.05 446.555 198.05L439.637 210.348C439.637 210.348 448.251 230.289 453.478 228.797L453.474 228.8Z" fill="#ED9568"/>
<path d="M747.861 339.363H585.261C581.244 339.363 576.81 342.617 575.348 346.628L520.462 497.373H697.597L752.483 346.628C753.942 342.617 751.874 339.363 747.861 339.363V339.363Z" fill="#38598A"/>
<path d="M379.276 496.481V500.944C379.276 504.886 382.477 508.086 386.42 508.086H691.827C695.771 508.086 698.972 504.886 698.972 500.944V496.481H379.276Z" fill="#38598A"/>
<path d="M520.366 500.944V496.481H379.272V500.944C379.272 504.886 382.473 508.086 386.416 508.086H513.222C517.166 508.086 520.366 504.886 520.366 500.944Z" fill="#38598A"/>
<path d="M361.204 188.064C361.204 188.064 368.896 208.051 375.045 214.198C381.198 220.345 405.802 226.496 414.259 228.8C422.717 231.108 411.951 226.496 391.96 232.643C371.97 238.79 345.827 251.861 345.827 242.637C345.827 233.413 346.21 216.502 349.285 210.351C352.363 204.201 361.204 188.06 361.204 188.06V188.064Z" fill="#ED9568"/>
<path d="M720.248 153.497L699.178 80.7463L689.427 114.41L678.109 153.497L674.965 152.586L686.283 113.499L699.178 68.9842L723.392 152.586L720.248 153.497Z" fill="#9EC5E9"/>
<path d="M699.178 77.6957C692.723 77.6957 687.474 72.4481 687.474 65.9949C687.474 59.5416 692.727 54.294 699.178 54.294C705.63 54.294 710.883 59.5416 710.883 65.9949C710.883 72.4481 705.634 77.6957 699.178 77.6957ZM699.178 57.5666C694.526 57.5666 690.744 61.3482 690.744 65.9949C690.744 70.6415 694.526 74.4232 699.178 74.4232C703.83 74.4232 707.613 70.6415 707.613 65.9949C707.613 61.3482 703.83 57.5666 699.178 57.5666Z" fill="#9EC5E9"/>
<path d="M700.817 39.3512H697.544V54.7457H700.817V39.3512Z" fill="#9EC5E9"/>
<path d="M699.178 119.171C690.916 119.171 682.657 117.357 674.961 113.725L676.359 110.766C690.858 117.61 707.495 117.61 721.998 110.766L723.396 113.725C715.7 117.357 707.437 119.171 699.178 119.171V119.171Z" fill="#9EC5E9"/>
<path d="M661.545 106.265V88.5584L645.736 87.2493C644.634 81.4582 642.47 76.0307 639.495 71.1736L649.994 58.7531L637.462 46.2331L625.405 56.4298C620.681 53.2184 615.359 51.2205 609.642 49.8464L608.287 34.0079H590.575L589.266 49.3564C583.476 50.4588 578.043 52.3994 573.185 55.3695L560.76 44.7634L548.236 57.2336L558.436 69.2598C555.228 73.9792 552.999 79.288 551.625 85.0064L535.559 86.3499V104.052L551.138 105.361C552.241 111.152 554.293 116.58 557.268 121.437L546.716 133.861L559.217 146.378L571.263 136.185C575.983 139.392 581.302 142.072 587.022 143.446L588.366 159.958H606.078L607.387 143.928C613.18 142.826 618.609 140.548 623.468 137.574L635.896 148.012L648.416 135.458L638.217 123.389C641.425 118.666 643.879 113.338 645.254 107.62L661.549 106.257L661.545 106.265ZM598.321 115.941C587.474 115.941 578.679 107.149 578.679 96.3054C578.679 85.4619 587.474 76.6699 598.321 76.6699C609.168 76.6699 617.962 85.4619 617.962 96.3054C617.962 107.149 609.168 115.941 598.321 115.941Z" fill="#C6E0F5"/>
<path d="M631.505 96.3054H628.231C628.231 79.82 614.815 66.4044 598.321 66.4044V63.1319C616.618 63.1319 631.501 78.0134 631.501 96.3015L631.505 96.3054Z" fill="#9EC5E9"/>
<path d="M535.417 208.342C502.854 208.342 476.358 181.859 476.358 149.302C476.358 116.745 502.85 90.2655 535.417 90.2655C567.985 90.2655 594.48 116.748 594.48 149.302C594.48 181.855 567.985 208.342 535.417 208.342ZM535.417 93.538C504.657 93.538 479.632 118.555 479.632 149.306C479.632 180.056 504.657 205.073 535.417 205.073C566.178 205.073 591.207 180.056 591.207 149.306C591.207 118.555 566.178 93.538 535.417 93.538V93.538Z" fill="#9EC5E9"/>
<path d="M535.417 208.342C525.937 208.342 517.093 202.08 510.515 190.712C504.098 179.624 500.564 164.918 500.564 149.302C500.564 133.685 504.098 118.984 510.515 107.895C517.093 96.5274 525.937 90.2655 535.417 90.2655C544.898 90.2655 553.734 96.5274 560.312 107.895C566.725 118.984 570.259 133.689 570.259 149.302C570.259 164.914 566.725 179.624 560.312 190.712C553.734 202.08 544.894 208.342 535.417 208.342ZM535.417 93.538C527.155 93.538 519.317 99.2181 513.348 109.533C507.215 120.132 503.838 134.256 503.838 149.302C503.838 164.348 507.215 178.476 513.348 189.074C519.317 199.389 527.155 205.069 535.417 205.069C543.68 205.069 551.514 199.389 557.479 189.074C563.609 178.476 566.986 164.352 566.986 149.302C566.986 134.252 563.609 120.128 557.479 109.533C551.514 99.2181 543.676 93.538 535.417 93.538V93.538Z" fill="#9EC5E9"/>
<path d="M535.417 208.342H533.783V90.2655H535.417C567.985 90.2655 594.48 116.748 594.48 149.302C594.48 181.855 567.985 208.342 535.417 208.342ZM537.052 93.561V205.046C567.062 204.178 591.207 179.505 591.207 149.302C591.207 119.099 567.062 94.426 537.052 93.561Z" fill="#9EC5E9"/>
<path d="M590.234 171.169H480.597L480.199 170.108C477.653 163.341 476.358 156.341 476.358 149.302C476.358 142.263 477.653 135.258 480.202 128.488L480.601 127.427H590.234L590.632 128.488C593.186 135.255 594.48 142.259 594.48 149.302C594.48 156.345 593.186 163.353 590.632 170.112L590.234 171.169V171.169ZM482.875 167.896H587.96C590.115 161.837 591.207 155.59 591.207 149.302C591.207 143.013 590.115 136.767 587.96 130.7H482.879C480.723 136.77 479.632 143.025 479.632 149.302C479.632 155.579 480.723 161.829 482.875 167.896Z" fill="#9EC5E9"/>
</g>
<defs>
<clipPath id="clip0_138_3492">
<rect width="931" height="510" fill="white"/>
</clipPath>
</defs>
</svg>
