<svg width="315" height="330" viewBox="0 0 315 330" fill="none" xmlns="http://www.w3.org/2000/svg">
<path fill-rule="evenodd" clip-rule="evenodd" d="M153.975 18.6C180.912 22.4777 210.373 15.8241 233.012 30.8993C255.539 45.8991 261.137 75.1938 274.376 98.7721C289.016 124.845 316.825 146.924 314.906 176.751C312.976 206.721 282.299 225.06 264.681 249.404C245.006 276.589 237.619 318.957 205.314 328.176C172.977 337.405 142.209 309.452 113.082 292.667C89.7353 279.213 70.7432 261.242 53.4075 240.636C36.3249 220.33 17.8849 199.955 13.1379 173.867C8.30805 147.324 19.9799 121.837 27.053 95.7997C35.5624 64.4754 31.0225 22.7074 58.7891 5.81846C86.6927 -11.1538 121.633 13.9441 153.975 18.6Z" fill="#EAF4FE"/>
<path d="M110.537 108.442C159.703 78.996 217.223 84.8615 249.215 138.73C281.211 192.605 259.006 246.207 209.832 275.655C171.483 298.627 142.126 279.596 96.7037 275.727C87.7132 274.96 65.7024 294.295 65.7024 294.295L25.7006 226.936C25.7006 226.936 53.1062 216.68 56.6999 208.369C74.9089 166.396 72.1756 131.414 110.537 108.442V108.442Z" fill="#FCBA19"/>
<path d="M65.4022 256.348C128.173 261.691 168.735 287.995 221.737 256.252C233.133 249.426 243.478 241.657 252.601 233.107C243.198 249.888 228.455 264.509 209.832 275.655C171.483 298.627 142.126 279.596 96.7037 275.727C87.7133 274.96 65.7024 294.295 65.7024 294.295L47.3553 263.399C54.1947 259.16 60.954 255.967 65.4022 256.348V256.348Z" fill="#FBAA19"/>
<path d="M66.3887 295.448L57.1421 300.986C41.8186 310.165 21.9828 305.133 12.8383 289.735L4.56217 275.804C-4.57434 260.407 0.44214 240.49 15.7677 231.313L25.0083 225.779L66.3867 295.448H66.3887Z" fill="#345AA9"/>
<path d="M188.733 228.727L181.233 225.715L186.826 211.673L166.612 209.304L174.152 190.325L153.938 187.953L161.468 168.954L141.25 166.583L148.777 147.564L133.752 145.777L134.702 137.722L160.165 140.75L152.645 159.753L172.869 162.124L165.34 181.123L185.564 183.495L178.022 202.474L198.246 204.843L188.733 228.727Z" fill="#F4DA80"/>
<path d="M54.3668 272.546L50.2287 265.58L109.004 230.378L164.675 218.213L166.392 226.141L112.009 238.022L54.3668 272.546Z" fill="#F4DA80"/>
<path d="M41.6665 251.166L37.5285 244.199L95.1809 209.673L131.435 167.274L137.564 172.559L100.45 215.963L41.6665 251.166Z" fill="#F4DA80"/>
<path d="M17.2825 240.114L43.1452 283.658L50.3508 279.34L24.492 235.798L17.2825 240.114Z" fill="#4166B0"/>
<path d="M11.5176 260.102L30.1348 291.449L37.3404 287.137L18.7232 255.784L11.5176 260.102Z" fill="#4166B0"/>
<path d="M230.096 69.3005C230.096 69.3005 238.356 59.1609 243.874 53.6631C249.393 48.1633 258.602 32.7469 245.931 29.7167C233.263 26.6845 239.646 22.6053 232.519 20.8491C225.389 19.0948 220.451 21.2851 218.426 26.4795C216.401 31.6739 210.664 40.009 206.304 38.8938C201.944 37.7765 180.245 33.7737 183.439 54.2699C186.632 74.7641 224.591 94.34 230.096 69.2985V69.3005Z" fill="#222957"/>
<path d="M243.602 81.6324C243.602 81.6324 249.181 90.3312 251.614 92.5014C254.045 94.6716 249.263 95.6502 244.601 94.768C239.938 93.8839 235.09 93.7071 235.522 89.2843C235.954 84.8615 242.32 79.3939 243.602 81.6324V81.6324Z" fill="#F7B68A"/>
<path d="M244.127 86.6921C244.127 86.6921 271.028 97.3722 276.649 98.8934C282.269 100.413 276.322 101.922 268.026 101.948C259.73 101.974 236.885 96.8397 237.129 93.1223C237.371 89.4048 238.104 78.2525 244.129 86.6921H244.127Z" fill="#F7B68A"/>
<path d="M233.577 60.0029C235.234 57.4911 241.717 75.4835 244.493 81.118C246.216 84.6164 239.652 91.1109 236.329 93.3775C234.512 94.6173 221.507 78.3068 233.577 60.0029V60.0029Z" fill="#9EC5E9"/>
<path d="M203.418 99.4841C203.418 99.4841 200.643 53.5666 215.448 53.1567C216.755 53.1205 227.212 51.0287 234.524 59.8441C237.087 62.9326 232.477 78.7127 226.914 82.1267C226.614 82.3115 220.477 98.17 219.34 102.404C217.647 108.713 203.42 99.4841 203.42 99.4841H203.418Z" fill="#9EC5E9"/>
<path d="M199.879 64.8215C199.879 64.8215 182.904 81.5762 182.3 83.6198C181.696 85.6613 189.407 96.3696 207.348 73.454C217.205 60.8629 199.879 64.8215 199.879 64.8215Z" fill="#F7B68A"/>
<path d="M230.268 44.2629C232.071 38.8957 225.593 43.6842 225.593 43.6842C225.593 43.6842 224.515 51.1493 220.617 55.2847C221.117 55.9799 221.687 56.6451 222.33 57.266C224.773 59.6271 227.794 60.9392 230.758 61.1763C229.085 54.5552 229.083 47.7875 230.268 44.2629Z" fill="#F7B68A"/>
<path d="M224.269 48.8203C224.773 50.4038 225.631 51.8506 226.86 53.0401C227.692 53.8439 228.637 54.4749 229.655 54.937C229.205 50.5866 229.459 46.6682 230.268 44.2629C232.071 38.8957 225.593 43.6842 225.593 43.6842C225.593 43.6842 225.255 46.0312 224.269 48.8203V48.8203Z" fill="#ED9568"/>
<path d="M237.229 33.0061C237.229 33.0061 236.737 40.5656 234.662 43.8189C232.587 47.0741 230.098 51.3623 226.854 49.2785C224.263 47.6127 224.105 41.9199 223.608 39.2353C223.126 36.6231 228.069 36.5447 228.503 28.7742C228.661 25.9651 234.362 33.9184 237.227 33.0061H237.229Z" fill="#F7B68A"/>
<path d="M192.677 85.5065L202.164 108.235L208.987 117.139L211.112 120.686L210.546 129.115C210.546 129.115 210.194 129.252 209.772 128.468C209.681 128.301 209.629 129.292 209.629 129.292C209.629 129.292 208.053 129.133 207.34 124.552C207.262 124.051 207.028 126.539 207.028 126.539C207.028 126.539 206.658 126.742 205.848 125.016C205.581 124.441 205.764 123.597 205.315 122.767C204.847 121.899 203.797 119.85 203.008 118.785C202.22 117.716 201.241 117.121 200.073 115.411C198.556 113.19 198.492 111.193 198.492 111.193C198.492 111.193 187.705 96.2148 184.779 91.1792C181.852 86.1435 180.439 83.9191 183.086 82.9063C185.734 81.8956 192.677 85.5086 192.677 85.5086V85.5065Z" fill="#F7B68A"/>
<path d="M200.505 101.993L192.787 104.264L193.05 105.166L200.768 102.895L200.505 101.993Z" fill="#9EC5E9"/>
<path d="M201.019 103.405L194.317 105.979L194.651 106.858L201.353 104.284L201.019 103.405Z" fill="#9EC5E9"/>
<path d="M210.152 122.124C210.152 122.124 210.256 125.832 210.404 127.785L210.548 129.115C210.548 129.115 210.196 129.252 209.774 128.468L209.894 123.479L208.185 119.908L210.154 122.124H210.152Z" fill="#ED9568"/>
<path d="M207.12 126.517C207.12 126.517 207.144 126.517 207.132 126.495C207.126 126.487 207.132 126.477 207.134 126.471L207.298 125.444C207.216 125.966 207.118 126.517 207.118 126.517H207.12Z" fill="#ED9568"/>
<path d="M206.606 120.503L208.229 123.515C208.229 123.515 208.137 126.41 208.579 128.398C208.139 127.733 207.656 126.573 207.342 124.552C207.336 124.516 207.33 124.499 207.322 124.493L207.54 123.296L206.606 120.505V120.503Z" fill="#ED9568"/>
<path d="M288.192 101.196L290.091 98.8472C290.091 98.8472 288.779 98.8572 288.096 99.7012C287.508 100.431 286.786 101.321 286.786 101.321L288.192 101.196Z" fill="#F7B68A"/>
<path d="M285.177 101.293L286.762 100.137L286.792 98.0835C286.792 98.0835 286.243 97.8665 285.679 99.462C285.547 99.8197 283.762 101.023 283.762 101.023L285.175 101.295L285.177 101.293Z" fill="#F7B68A"/>
<path d="M276.863 101.082C276.863 101.082 280.574 102.546 285.001 102.719C289.425 102.892 289.405 101.713 290.597 101.041C291.792 100.372 293.553 99.6047 291.946 99.5765C290.337 99.5504 288.052 100.967 287.214 100.993C286.377 101.019 285.225 100.425 284.048 100.067C282.868 99.7092 281.995 99.5806 283.196 99.3033C284.398 99.026 284.799 98.9375 285.161 98.6884C285.525 98.4412 286.123 98.1056 285.911 97.5591C285.701 97.0125 284.905 97.5912 284.506 97.6836C284.106 97.7761 281.921 97.4485 281.423 97.4646C280.919 97.4807 279.428 98.3186 278.431 98.7446C277.937 98.9556 276.847 99.6489 275.906 100.418C274.94 101.208 275.684 100.724 276.863 101.082V101.082Z" fill="#F7B68A"/>
<path d="M218.996 54.3101C218.996 54.3101 222.978 64.4718 209.565 74.7661C202.048 80.5332 196.697 64.1322 196.697 64.1322C196.697 64.1322 216.365 47.9482 218.996 54.3101V54.3101Z" fill="#9EC5E9"/>
<path d="M271.798 196.518L259.064 182.333L262.229 176.998L267.182 179.851C267.182 179.851 278.153 199.99 271.798 196.518V196.518Z" fill="#F7B68A"/>
<path d="M272.368 190.688C272.14 190.544 271.472 196.877 260.871 179.289L258.956 182.452C258.956 182.452 266.229 195.075 274.66 198.786C277.681 200.114 273.993 194.775 272.368 190.688Z" fill="#222957"/>
<path d="M265.707 250.708L267.088 257.841C267.088 257.841 285.159 264.181 293.951 259.785C296.186 258.665 293.575 257.329 288.078 255.374C282.776 253.489 274.263 249.388 270.958 247.288C267.652 245.188 265.705 250.708 265.705 250.708H265.707Z" fill="#F7B68A"/>
<path d="M268.266 179.293L269.567 174.597L267.45 173.037L280.354 120.591C280.354 120.591 286.233 105.609 269.507 102.549C247.882 98.5919 219.598 97.9509 219.598 97.9509C219.598 97.9509 207.44 112.479 210.226 117.067C217.207 128.561 263.472 123.489 263.472 123.489C263.472 123.489 255.142 140.557 259.108 172.298C259.994 179.397 260.202 180.392 260.202 180.392L268.264 179.293H268.266Z" fill="#345AA9"/>
<path d="M220.209 97.4044C220.209 97.4044 236.949 190.582 269.129 241.503C272.294 246.512 272.851 247.887 272.851 247.887L264.973 253.019L262.608 248.889C262.608 248.889 230.076 210.853 228.253 202.727C226.43 194.599 226.388 179.236 205.689 153.437C184.991 127.636 202.288 99.1586 203.424 98.1137C204.565 97.0688 220.209 97.4064 220.209 97.4064V97.4044Z" fill="#4166B0"/>
<path d="M268.312 251.186C268.202 251.028 257.159 234.99 239.388 205.624C234.256 197.145 226.328 179.1 217.701 141.284C212.545 118.676 209.545 99.4501 209.515 99.2592L209.854 99.2069C209.884 99.3978 212.881 118.614 218.036 141.21C226.652 178.979 234.562 196.988 239.68 205.446C257.445 234.801 268.485 250.833 268.595 250.991L268.312 251.188V251.186Z" fill="white"/>
<path d="M211.853 109.36L211.724 109.041C215.664 107.454 216.775 99.6147 216.785 99.5364L217.125 99.5826C217.123 99.6027 216.841 101.624 216.063 103.82C215.008 106.794 213.591 108.659 211.853 109.36Z" fill="white"/>
<path d="M263.14 178.847C260.244 165.369 271.416 116.673 272.224 113.182L223.09 108.784L223.12 108.44L272.647 112.875L272.601 113.068C272.479 113.584 260.501 164.939 263.472 178.774L263.136 178.847H263.14Z" fill="white"/>
<path d="M260.935 175.581L260.883 175.242C266.335 174.4 269.537 174.426 269.569 174.426L269.565 174.769C269.533 174.769 266.357 174.745 260.935 175.581Z" fill="white"/>
<path d="M287.604 255.109C289.579 259.831 274.159 258.151 266.293 253.728L267.09 257.841C267.09 257.841 285.161 264.181 293.953 259.785C295.868 258.826 294.199 256.991 287.606 255.109H287.604Z" fill="#222957"/>
</svg>
