<svg width="383" height="261" viewBox="0 0 383 261" fill="none" xmlns="http://www.w3.org/2000/svg">
<g clip-path="url(#clip0_138_4091)">
<path d="M313.8 257.746C292.917 259.565 258.481 264.629 205.467 256.599C149.455 248.115 -59.6004 156.799 16.462 68.4691C92.5263 -19.8594 249.89 -18.3113 314.955 47.8205C358.084 91.659 444.265 246.393 313.8 257.746Z" fill="#EBF4FB"/>
<path d="M214.839 90.5852H214.131V80.3146H214.839V90.5852Z" fill="#C6E0F5"/>
<path d="M213.421 90.5852H212.71V80.3146H213.421V90.5852Z" fill="#C6E0F5"/>
<path d="M115.812 96.0239L115.456 95.4118L124.212 90.3794V80.3146H124.922V90.7874L115.812 96.0239Z" fill="#C6E0F5"/>
<path d="M151.6 96.1259L142.488 90.8894L142.842 90.2792L151.6 95.3116L160.358 90.2792L160.712 90.8894L151.6 96.1259Z" fill="#C6E0F5"/>
<path d="M169.583 96.1259L160.471 90.8895L160.827 90.2792L169.583 95.3116L178.163 90.3794V80.5186L169.407 75.4862L169.761 74.8741L178.873 80.1106V90.7874L169.583 96.1259Z" fill="#C6E0F5"/>
<path d="M187.566 96.1259L178.278 90.7874V80.1106L187.39 74.8741L187.746 75.4862L178.986 80.5186V90.3794L187.566 95.3116L196.324 90.2792L196.678 90.8895L187.566 96.1259Z" fill="#C6E0F5"/>
<path d="M88.6283 111.495L79.5145 106.259L79.8705 105.647L88.6283 110.679L97.2081 105.749V95.8878L88.4503 90.8554L88.8063 90.2416L97.9183 95.4798V106.157L88.6283 111.495Z" fill="#C6E0F5"/>
<path d="M106.611 111.495L97.3214 106.157V95.4798L106.611 90.1414L115.901 95.4798V106.157L106.611 111.495ZM98.0316 105.749L106.611 110.679L115.191 105.749V95.8878L106.611 90.9574L98.0316 95.8878V105.749Z" fill="#C6E0F5"/>
<path d="M99.0367 96.6699L98.6825 96.0579L106.433 91.6035L106.789 92.2138L99.0367 96.6699Z" fill="#C6E0F5"/>
<path d="M106.433 110.033L98.6825 105.579L99.0367 104.967L106.789 109.421L106.433 110.033Z" fill="#C6E0F5"/>
<path d="M114.717 105.273H114.008V96.3639H114.717V105.273Z" fill="#C6E0F5"/>
<path d="M126.013 112.098L125.659 111.484L133.41 107.03L133.764 107.642L126.013 112.098Z" fill="#C6E0F5"/>
<path d="M133.41 125.459L125.659 121.005L126.013 120.393L133.764 124.847L133.41 125.459Z" fill="#C6E0F5"/>
<path d="M141.693 120.699H140.983V111.79H141.693V120.699Z" fill="#C6E0F5"/>
<path d="M170.971 96.7881L170.617 96.176L178.37 91.7217L178.724 92.3319L170.971 96.7881Z" fill="#C6E0F5"/>
<path d="M178.37 110.151L170.617 105.697L170.971 105.085L178.724 109.539L178.37 110.151Z" fill="#C6E0F5"/>
<path d="M186.653 105.391H185.943V96.4821H186.653V105.391Z" fill="#C6E0F5"/>
<path d="M124.595 111.495L115.305 106.157V95.4798L124.595 90.1414L133.885 95.4798V106.157L124.595 111.495ZM116.015 105.749L124.595 110.679L133.174 105.749V95.8878L124.595 90.9574L116.015 95.8878V105.749Z" fill="#C6E0F5"/>
<path d="M142.58 111.495L133.289 106.157V95.6838H134V105.749L142.58 110.679L151.159 105.749V95.8878L142.402 90.8554L142.758 90.2416L151.87 95.4798V106.157L142.58 111.495Z" fill="#C6E0F5"/>
<path d="M160.563 111.495L151.273 106.157V95.4798L160.563 90.1414L169.853 95.4798V106.157L160.563 111.495ZM151.983 105.749L160.563 110.679L169.142 105.749V95.8878L160.563 90.9574L151.983 95.8878V105.749Z" fill="#C6E0F5"/>
<path d="M178.546 111.495L169.256 106.157V95.4798L178.546 90.1414L187.836 95.4798V106.157L178.546 111.495V111.495ZM169.966 105.749L178.546 110.679L187.126 105.749V95.8878L178.546 90.9574L169.966 95.8878V105.749Z" fill="#C6E0F5"/>
<path d="M196.529 111.495L187.239 106.157V95.4798L196.529 90.1414L205.819 95.4798V106.157L196.529 111.495ZM187.949 105.749L196.529 110.679L205.111 105.749V95.8878L196.529 90.9574L187.949 95.8878V105.749Z" fill="#C6E0F5"/>
<path d="M205.934 105.951H205.224V95.4798L214.512 90.1414L223.626 95.376L223.272 95.9898L214.512 90.9556L205.934 95.8878V105.951Z" fill="#C6E0F5"/>
<path d="M79.7842 126.761L79.43 126.149L88.1878 121.116V111.255L79.43 106.223L79.7842 105.611L88.898 110.847V121.524L79.7842 126.761Z" fill="#C6E0F5"/>
<path d="M97.4113 126.761L88.2993 121.524V110.847L97.5911 105.511L106.879 110.847V121.32H106.171V111.255L97.5911 106.325L89.0113 111.255V121.116L97.7673 126.149L97.4113 126.761Z" fill="#C6E0F5"/>
<path d="M115.574 126.863L106.284 121.524V110.847L115.574 105.509L124.864 110.847V121.524L115.574 126.863ZM106.994 121.116L115.574 126.047L124.154 121.116V111.255L115.574 106.325L106.994 111.255V121.116Z" fill="#C6E0F5"/>
<path d="M133.557 126.863L124.267 121.524V110.847L133.557 105.509L142.847 110.847V121.524L133.557 126.863ZM124.978 121.116L133.557 126.047L142.137 121.116V111.255L133.557 106.325L124.978 111.255V121.116Z" fill="#C6E0F5"/>
<path d="M151.542 126.863L142.252 121.524V110.847L151.542 105.509L160.832 110.847V121.524L151.542 126.863ZM142.962 121.116L151.542 126.047L160.122 121.116V111.255L151.542 106.325L142.962 111.255V121.116Z" fill="#C6E0F5"/>
<path d="M169.525 126.863L160.235 121.524V110.847L169.525 105.509L178.815 110.847V121.524L169.525 126.863ZM160.946 121.116L169.525 126.047L178.105 121.116V111.255L169.525 106.325L160.946 111.255V121.116Z" fill="#C6E0F5"/>
<path d="M187.331 126.761L178.219 121.524V110.847L187.509 105.511L196.799 110.847V121.32H196.088V111.255L187.509 106.325L178.929 111.255V121.116L187.687 126.149L187.331 126.761Z" fill="#C6E0F5"/>
<path d="M196.912 121.32H196.202V110.847L205.314 105.611L205.67 106.223L196.912 111.255V121.32Z" fill="#C6E0F5"/>
<path d="M97.3268 126.725L88.5708 121.692L79.8112 126.725L79.457 126.115L88.5708 120.876L97.681 126.115L97.3268 126.725Z" fill="#C6E0F5"/>
<path d="M106.552 142.232L97.4401 136.995L97.7943 136.383L106.552 141.416L115.132 136.485V126.623L106.374 121.59L106.73 120.98L115.842 126.217V136.893L106.552 142.232Z" fill="#C6E0F5"/>
<path d="M124.537 142.232L115.247 136.892V126.215L124.537 120.876L133.827 126.215V136.892L124.537 142.232ZM115.957 136.485L124.537 141.418L133.117 136.485V126.625L124.537 121.694L115.957 126.625V136.485Z" fill="#C6E0F5"/>
<path d="M151.808 136.689H151.1V126.623L142.52 121.692L133.94 126.623V136.689H133.23V126.217L142.52 120.876L151.808 126.217V136.689Z" fill="#C6E0F5"/>
<path d="M160.505 142.232L151.215 136.892V126.215L160.505 120.876L169.795 126.215V136.892L160.505 142.232ZM151.925 136.485L160.505 141.418L169.085 136.485V126.625L160.505 121.694L151.925 126.625V136.485Z" fill="#C6E0F5"/>
<path d="M187.776 136.689H187.066V126.623L178.486 121.692L169.908 126.623V136.689H169.196V126.217L178.486 120.876L187.776 126.217V136.689Z" fill="#C6E0F5"/>
<path d="M106.935 152.059H106.225V141.584L115.515 136.247L124.627 141.482L124.271 142.094L115.515 137.062L106.935 141.992V152.059Z" fill="#C6E0F5"/>
<path d="M82.3283 91.3368C82.1773 91.4156 81.8608 91.4925 81.4617 91.4925C80.5357 91.4925 79.8435 90.9109 79.8435 89.8336C79.8435 88.7562 80.5393 88.1173 81.5588 88.1173C81.9633 88.1173 82.2258 88.2032 82.3391 88.2623L82.2312 88.6077C82.0748 88.5289 81.8464 88.4717 81.5731 88.4717C80.8036 88.4717 80.2912 88.962 80.2912 89.821C80.2912 90.6264 80.7551 91.1364 81.548 91.1364C81.8105 91.1364 82.0748 91.0827 82.2456 91.0004L82.3283 91.3404V91.3368Z" fill="#C6E0F5"/>
<path d="M83.2866 88.1692V89.5382H84.876V88.1692H85.3057V91.4388H84.876V89.9051H83.2866V91.4388H82.8569V88.1692H83.2866Z" fill="#C6E0F5"/>
<path d="M123.976 78.3818C123.825 78.4588 123.509 78.5375 123.109 78.5375C122.184 78.5375 121.49 77.9559 121.49 76.8786C121.49 75.8012 122.187 75.1605 123.207 75.1605C123.611 75.1605 123.874 75.2482 123.985 75.3055L123.879 75.6509C123.723 75.5721 123.492 75.5149 123.221 75.5149C122.451 75.5149 121.939 76.0052 121.939 76.8642C121.939 77.6696 122.403 78.1796 123.198 78.1796C123.462 78.1796 123.724 78.1259 123.895 78.0436L123.978 78.3836L123.976 78.3818Z" fill="#C6E0F5"/>
<path d="M124.933 75.2142V76.5815H126.522V75.2142H126.952V78.4839H126.522V76.9502H124.933V78.4839H124.503V75.2142H124.933Z" fill="#C6E0F5"/>
<path d="M127.441 79.1908V79.0387L127.637 78.849C128.108 78.4016 128.324 78.1653 128.324 77.8897C128.324 77.7018 128.237 77.5318 127.96 77.5318C127.793 77.5318 127.655 77.6159 127.568 77.6857L127.489 77.5103C127.615 77.4065 127.799 77.3242 128.009 77.3242C128.406 77.3242 128.575 77.5962 128.575 77.8575C128.575 78.1958 128.327 78.4714 127.939 78.8436L127.795 78.9796V78.985H128.62V79.1908H127.443H127.441Z" fill="#C6E0F5"/>
<path d="M106.703 157.993C106.552 158.07 106.236 158.149 105.835 158.149C104.909 158.149 104.217 157.567 104.217 156.49C104.217 155.412 104.912 154.774 105.932 154.774C106.336 154.774 106.599 154.861 106.712 154.919L106.606 155.264C106.45 155.185 106.219 155.128 105.946 155.128C105.177 155.128 104.664 155.618 104.664 156.475C104.664 157.281 105.126 157.791 105.921 157.791C106.184 157.791 106.448 157.737 106.617 157.655L106.7 157.995L106.703 157.993Z" fill="#C6E0F5"/>
<path d="M107.221 154.65H107.651V158.095H107.221V154.65Z" fill="#C6E0F5"/>
<path d="M215.359 77.0522C215.359 78.1725 214.672 78.7756 213.832 78.7756C212.993 78.7756 212.356 78.1009 212.356 77.1112C212.356 76.0732 213 75.3932 213.876 75.3932C214.751 75.3932 215.359 76.0786 215.359 77.0522V77.0522ZM212.804 77.1005C212.804 77.8038 213.183 78.4302 213.856 78.4302C214.528 78.4302 214.909 77.8145 214.909 77.0719C214.909 76.4151 214.57 75.7368 213.861 75.7368C213.153 75.7368 212.804 76.3882 212.804 77.1005V77.1005Z" fill="#C6E0F5"/>
<path d="M74.5647 127.221C74.5647 128.341 73.8779 128.944 73.0383 128.944C72.1986 128.944 71.5621 128.269 71.5621 127.28C71.5621 126.242 72.2058 125.562 73.0832 125.562C73.9606 125.562 74.5647 126.247 74.5647 127.221ZM72.0098 127.269C72.0098 127.972 72.3892 128.599 73.0634 128.599C73.7377 128.599 74.1152 127.983 74.1152 127.24C74.1152 126.585 73.7736 125.907 73.067 125.907C72.3604 125.907 72.0098 126.557 72.0098 127.271V127.269Z" fill="#C6E0F5"/>
<path d="M75.5356 125.619V126.988H77.125V125.619H77.5547V128.888H77.125V127.355H75.5356V128.888H75.1077V125.619H75.5356Z" fill="#C6E0F5"/>
<path d="M277.061 166.306C277.061 166.306 267.65 187.334 271.396 196.253C278.291 212.671 266.771 242.88 230.697 207.952C224.647 202.095 254.504 188.615 249.899 170.973C245.297 153.331 277.061 166.306 277.061 166.306V166.306Z" fill="#F7B68A"/>
<path d="M280.574 167.986C280.574 167.986 272.336 171.764 269.804 198.313C269.801 198.342 253.096 198.632 248.371 184.626C250.295 181.115 251.395 176.705 249.899 170.975C245.297 153.333 280.574 167.988 280.574 167.988V167.986Z" fill="#ED9568"/>
<path d="M280.488 158.594C280.488 158.594 307.639 164.758 311.308 153.451C314.98 142.144 303.191 134.128 313.119 126.855C323.045 119.581 336.388 115.425 316.852 103.998C297.315 92.5716 315.87 75.7689 300.949 71.1517C286.027 66.5344 281.058 75.5881 266.761 72.4581C252.463 69.3281 237.555 53.88 224.875 69.6341C212.194 85.3881 208.854 102.493 217.326 105.954C225.796 109.414 213.128 114.337 209.125 119.844C205.123 125.352 204.904 149.89 244.39 145.33C283.877 140.771 264.123 153.88 280.488 158.596V158.594Z" fill="#202A54"/>
<path d="M243.04 101.187C243.04 101.187 234.02 116.465 232.934 143.111C231.848 169.756 243.536 179.211 266.07 178.563C288.604 177.915 295.42 152.379 295.86 145.908C296.301 139.438 316.08 147.271 313.497 131.933C310.913 116.594 301.182 120.993 299.347 126.646C297.511 132.299 292.689 139.195 288.697 133.873C284.708 128.548 297.056 106.994 286.027 109.14C274.999 111.286 255.978 113.614 243.038 101.187H243.04Z" fill="#F7B68A"/>
<path d="M303.87 220.107C289.39 209.02 280.991 204.856 272.595 199.945C271.2 199.129 269.439 225.007 248.019 219.953C226.598 214.898 240.194 196.316 239.619 194.111C239.362 193.125 203.976 189.548 193.168 226.364C190.17 236.581 188.35 245.235 187.561 252.531C194.503 254.48 200.571 255.858 205.467 256.599C258.481 264.629 292.915 259.565 313.8 257.746C314.685 257.669 315.552 257.584 316.413 257.496C315.863 245.829 313.43 227.425 303.87 220.107V220.107Z" fill="#345AA9"/>
<path d="M187.57 252.533C191.162 253.543 194.517 254.396 197.599 255.089C207.543 222.586 221.317 202.163 227.357 194.231C215.992 196.253 199.866 203.557 193.17 226.365C190.17 236.589 188.359 245.237 187.571 252.535L187.57 252.533Z" fill="#4166B0"/>
<path d="M313.8 257.746C314.685 257.669 315.552 257.584 316.413 257.496C315.863 245.829 313.43 227.425 303.87 220.107C300.972 217.888 298.325 215.957 295.866 214.23C288.476 221.256 279.891 234.95 271.466 260.871C289.415 260.39 303.317 258.659 313.799 257.746H313.8Z" fill="#4166B0"/>
<path d="M159.414 210.066V205.232H181.428V210.066H159.414V210.066ZM159.414 218.606V213.774H181.428V218.606H159.414V218.606Z" fill="#C6E0F5"/>
<path d="M135.404 208.734C139.762 208.734 143.23 209.951 145.81 212.387C148.39 214.822 149.68 218.157 149.68 222.391C149.68 227.403 148.128 231.26 145.023 233.961C141.92 236.661 137.48 238.012 131.704 238.012C126.689 238.012 122.64 237.203 119.555 235.587V227.395C121.178 228.254 123.07 228.955 125.227 229.497C127.385 230.04 129.431 230.31 131.364 230.31C137.18 230.31 140.089 227.937 140.089 223.189C140.089 218.441 137.078 216.408 131.056 216.408C129.967 216.408 128.764 216.515 127.45 216.73C126.134 216.945 125.066 217.174 124.242 217.421L120.45 215.395L122.146 192.533H146.594V200.572H130.501L129.668 209.38L130.747 209.165C132 208.879 133.552 208.736 135.402 208.736L135.404 208.734Z" fill="#C6E0F5"/>
<path d="M170.955 38.2764L165.266 29.6719H170.734L174.164 35.2734L177.625 29.6719H183.095L177.343 38.2764L183.364 47.2585H177.881L174.166 41.2328L170.435 47.2585H164.966L170.957 38.2764H170.955Z" fill="#C6E0F5"/>
<path d="M191.027 37.6321H184.911V34.1871H191.027V28.0522H194.488V34.1871H200.605V37.6321H194.488V43.6882H191.027V37.6321Z" fill="#C6E0F5"/>
<path d="M201.995 29.6719H207.273L210.609 39.5667C210.893 40.4275 211.089 41.444 211.193 42.618H211.288C211.405 41.5388 211.63 40.5206 211.968 39.5667L215.24 29.6719H220.409L212.933 49.5098C212.248 51.3442 211.272 52.7186 210.001 53.6313C208.732 54.544 207.248 55.0004 205.551 55.0004C204.72 55.0004 203.902 54.9109 203.102 54.7337V50.9272C203.681 51.0632 204.314 51.1312 204.999 51.1312C205.853 51.1312 206.597 50.8717 207.236 50.3527C207.874 49.8337 208.37 49.0499 208.728 48.0012L209.014 47.135L201.996 29.6737L201.995 29.6719Z" fill="#C6E0F5"/>
<path d="M350.709 179.642H342.129V174.808H350.709V166.202H355.563V174.808H364.143V179.642H355.563V188.137H350.709V179.642Z" fill="#C6E0F5"/>
<path d="M333.72 204.956H311.271V200.255L319.331 192.143C321.719 189.709 323.277 188.021 324.011 187.081C324.743 186.142 325.27 185.27 325.593 184.469C325.915 183.667 326.077 182.836 326.077 181.976C326.077 180.693 325.721 179.739 325.011 179.112C324.3 178.486 323.353 178.173 322.166 178.173C320.922 178.173 319.714 178.457 318.542 179.025C317.369 179.594 316.147 180.403 314.874 181.451L311.183 177.101C312.765 175.76 314.074 174.812 315.115 174.259C316.154 173.706 317.288 173.278 318.52 172.979C319.75 172.68 321.125 172.532 322.65 172.532C324.656 172.532 326.427 172.897 327.966 173.625C329.504 174.354 330.698 175.374 331.546 176.686C332.395 177.997 332.819 179.499 332.819 181.19C332.819 182.663 332.558 184.044 332.039 185.333C331.519 186.623 330.714 187.946 329.622 189.301C328.531 190.657 326.609 192.588 323.856 195.095L319.726 198.966V199.272H333.718V204.956H333.72Z" fill="#C6E0F5"/>
<path d="M157.423 176.016H146.781V163.174H157.423V176.016V176.016ZM148.317 174.486H155.886V164.702H148.317V174.486Z" fill="#6FACDE"/>
<path d="M172.438 176.016H161.791V147.969H172.438V176.016ZM163.328 174.486H170.903V149.498H163.328V174.486Z" fill="#6FACDE"/>
<path d="M187.449 176.016H176.802V155.146H187.449V176.016ZM178.339 174.486H185.914V156.674H178.339V174.486Z" fill="#6FACDE"/>
<path d="M202.46 176.016H191.816V141.827H202.46V176.016ZM193.352 174.486H200.923V143.358H193.352V174.486Z" fill="#6FACDE"/>
<path d="M175.282 133.047H158.515C157.841 133.047 157.298 133.588 157.298 134.255V141.188C157.298 141.858 157.841 142.396 158.515 142.396H165.243L165.687 143.164L166.897 145.249L168.109 143.164L168.551 142.396H175.282C175.951 142.396 176.498 141.858 176.498 141.188V134.255C176.498 133.588 175.951 133.047 175.282 133.047V133.047Z" fill="#6FACDE"/>
<path d="M171.42 137.021H162.375V138.551H171.42V137.021Z" fill="white"/>
<path d="M206.599 174.486H144.618V176.016H206.599V174.486Z" fill="#6FACDE"/>
<path d="M363.445 229.354H361.908V224.463H333.501V229.354H331.963V222.935H363.445V229.354Z" fill="#6FACDE"/>
<path d="M353.638 219.388H327.476V209.117H353.638V219.388ZM329.013 217.858H352.1V210.647H329.013V217.858Z" fill="#6FACDE"/>
<path d="M367.933 219.388H357.617V209.117H367.933V219.388ZM359.152 217.858H366.396V210.647H359.152V217.858Z" fill="#6FACDE"/>
<path d="M348.449 204.505H346.911V209.967H348.449V204.505Z" fill="#6FACDE"/>
<path d="M363.445 204.505H361.908V209.967H363.445V204.505Z" fill="#6FACDE"/>
<path d="M348.449 218.842H346.911V228.959H348.449V218.842Z" fill="#6FACDE"/>
<path d="M367.933 205.336H327.476V195.067H367.933V205.336ZM329.013 203.805H366.396V196.595H329.013V203.805Z" fill="#6FACDE"/>
<path d="M352.865 238.599H342.546V228.33H352.865V238.599ZM344.082 237.069H351.327V229.859H344.082V237.069Z" fill="#6FACDE"/>
<path d="M367.933 238.599H357.617V228.33H367.933V238.599ZM359.152 237.069H366.396V229.859H359.152V237.069Z" fill="#6FACDE"/>
<path d="M337.794 238.599H327.476V228.33H337.794V238.599ZM329.013 237.069H336.259V229.859H329.013V237.069Z" fill="#6FACDE"/>
<path d="M244.192 45.742C249.045 44.602 252.05 39.7625 250.905 34.9325C249.759 30.1026 244.897 27.1112 240.045 28.2512C235.192 29.3912 232.187 34.2308 233.332 39.0607C234.478 43.8907 239.34 46.882 244.192 45.742Z" fill="#6FACDE"/>
<path d="M307.353 32.8521H254.306V34.3822H307.353V32.8521Z" fill="#6FACDE"/>
<path d="M295.096 39.896H254.306V41.4261H295.096V39.896Z" fill="#6FACDE"/>
<path d="M240.527 40.9805L237.296 38.008L238.34 36.8859L240.356 38.7417L245.557 32.2526L246.758 33.2064L240.527 40.9805Z" fill="white"/>
<path d="M56.4467 198.048L49.2621 197.996L22.7908 171.648L22.7387 164.495L53.9656 153.988L65.2963 142.712L66.3822 143.792L54.798 155.323L54.6272 155.38L24.2831 165.59L24.3227 171.009L49.904 196.472L55.3482 196.511L65.6648 166.136L77.2473 154.607L78.335 155.688L67.0061 166.964L56.4467 198.048Z" fill="#6FACDE"/>
<path d="M79.0596 156.991L75.2929 153.242L76.3807 152.161L79.0596 154.827L83.0097 150.895L70.1112 138.055L66.1611 141.989L71.5478 147.35L70.4618 148.433L63.9874 141.989L70.1112 135.893L85.1834 150.895L79.0596 156.991Z" fill="#6FACDE"/>
<path d="M55.382 154.328L54.295 155.41L59.3803 160.472L60.4673 159.39L55.382 154.328Z" fill="#6FACDE"/>
<path d="M29.1271 168.309L28.0401 169.391L40.7536 182.046L41.8406 180.964L29.1271 168.309Z" fill="#6FACDE"/>
<path d="M56.182 163.148L55.095 164.23L60.1804 169.292L61.2674 168.21L56.182 163.148Z" fill="#6FACDE"/>
<path d="M52.1523 167.159L51.0653 168.241L56.1507 173.302L57.2377 172.22L52.1523 167.159Z" fill="#6FACDE"/>
<path d="M48.1213 171.174L47.0343 172.256L52.1197 177.318L53.2066 176.236L48.1213 171.174Z" fill="#6FACDE"/>
<path d="M44.089 175.184L43.002 176.266L48.0874 181.328L49.1744 180.246L44.089 175.184Z" fill="#6FACDE"/>
<path d="M40.0634 179.191L38.9764 180.273L44.063 185.336L45.15 184.254L40.0634 179.191Z" fill="#6FACDE"/>
<path d="M51.2496 190.331L50.1626 191.413L54.995 196.223L56.082 195.141L51.2496 190.331Z" fill="#6FACDE"/>
</g>
<defs>
<clipPath id="clip0_138_4091">
<rect width="383" height="261" fill="white"/>
</clipPath>
</defs>
</svg>
