<svg width="347" height="301" viewBox="0 0 347 301" fill="none" xmlns="http://www.w3.org/2000/svg">
<path d="M48.1385 131.36C69.7277 120.3 100.792 117.935 132.025 82.1391C190.45 15.1799 275.512 -7.42735 321.951 80.2377C368.387 167.905 350.157 248.989 260.698 269.632C195.024 284.785 166.147 251.348 129.457 269.619C61.1433 303.636 9.78282 275.48 2.34374 221.911C-5.09533 168.342 19.4302 146.066 48.1366 131.362L48.1385 131.36Z" fill="#EAF4FE"/>
<path d="M135.674 175.346C96.3737 175.346 64.4034 143.374 64.4034 104.075L64.381 73.6466C64.381 68.2811 68.7434 63.9169 74.107 63.9169H93.5758C98.9413 63.9169 103.304 68.2811 103.304 73.6447V78.0558C103.304 80.4475 105.394 82.4668 107.87 82.4668H151.103V173.686L148.949 174.092C144.541 174.923 140.074 175.348 135.674 175.348V175.346ZM74.107 69.2094C71.6591 69.2094 69.6735 71.1969 69.6735 73.6429L69.6959 104.071C69.6959 140.454 99.2932 170.051 135.676 170.051C139.03 170.051 142.432 169.787 145.812 169.26V87.7593H107.872C102.435 87.7593 98.0112 83.4044 98.0112 78.0539V73.6429C98.0112 71.1969 96.0237 69.2094 93.5777 69.2094H74.1089H74.107Z" fill="#9AC7F7"/>
<path d="M200.204 175.346C195.808 175.346 191.345 174.924 186.928 174.09L184.772 173.684V82.4685H228.009C230.483 82.4685 232.573 80.4473 232.573 78.0575V73.6445C232.573 68.2791 236.937 63.9148 242.299 63.9148H261.772C267.135 63.9148 271.5 68.2791 271.5 73.6445L271.477 104.076C271.477 143.375 239.505 175.346 200.206 175.346H200.204ZM190.067 169.26C193.45 169.785 196.851 170.051 200.204 170.051C236.584 170.051 266.183 140.454 266.183 104.075L266.205 73.6427C266.205 71.1985 264.214 69.2092 261.77 69.2092H242.297C239.853 69.2092 237.866 71.2004 237.866 73.6445V78.0575C237.866 83.408 233.44 87.7629 228.007 87.7629H190.065V169.261L190.067 169.26Z" fill="#9AC7F7"/>
<path d="M175.437 187.167H160.44V278.046H175.437V187.167Z" fill="#9AC7F7"/>
<path d="M175.437 203.638H160.44V212.167H175.437V203.638Z" fill="#69AEEB"/>
<path d="M178.046 185.193H157.831V208.259H178.046V185.193Z" fill="#69AEEB"/>
<path d="M178.046 202.841H157.831V208.259H178.046V202.841Z" fill="#9AC7F7"/>
<path d="M201.906 286.872C194.991 286.872 189.371 281.377 189.137 274.518H146.74C146.505 281.377 140.885 286.872 133.97 286.872H121.176V300.107H214.701V286.872H201.907H201.906Z" fill="#9AC7F7"/>
<path d="M122.499 93.6431V166.765C122.499 184.856 137.164 199.521 155.256 199.521H180.623C198.713 199.521 213.378 184.856 213.378 166.765V93.6431H122.501H122.499Z" fill="#9AC7F7"/>
<path d="M220.435 80.4062H115.436V94.5246H220.435V80.4062Z" fill="#9AC7F7"/>
<path d="M167.939 112.962L173.929 125.1L187.325 127.047L177.633 136.498L179.92 149.837L167.939 143.538L155.957 149.837L158.244 136.498L148.552 127.047L161.948 125.1L167.939 112.962Z" fill="#69AEEB"/>
<path d="M213.376 93.6431H122.499V100.407H213.376V93.6431Z" fill="#69AEEB"/>
<path d="M127.141 289.076V300.107H165.294H170.585H214.699V289.076H127.141Z" fill="#69AEEB"/>
<path d="M229.367 84.2875C229.367 84.2875 227.979 87.6861 223.661 86.6718C219.34 85.6556 220.149 82.6818 218.945 82.6687C217.742 82.6537 228.956 82.504 229.365 84.2875H229.367Z" fill="#161711"/>
<path d="M206.889 88.8857C206.889 88.8857 198.357 87.7909 197.717 91.1334C197.075 94.4777 207.207 99.497 210.4 93.5644C212.904 88.9119 208.137 89.4247 206.889 88.8857Z" fill="#161711"/>
<path d="M201.756 88.7772C201.756 88.7772 199.495 90.033 198.997 93.9743C198.499 97.9137 198.707 120.214 199.194 123.734C199.68 127.253 198.131 130.571 198.438 133.028C198.743 135.487 196.519 135.027 196.491 135.94C196.465 136.855 198.773 138.248 200.034 137.525C201.293 136.803 200.929 132.498 202.199 130.975C203.47 129.45 204.971 128.651 204.535 126.287C204.099 123.923 201.872 119.789 203.084 114.927C204.301 110.065 205.437 104.964 205.551 103.489C205.665 102.014 205.547 96.1414 207.074 94.4291C208.603 92.7148 209.807 90.1471 208.678 89.2825C207.548 88.4179 201.754 88.781 201.754 88.781L201.756 88.7772Z" fill="#F7B68B"/>
<path d="M212.603 72.8997C212.603 72.8997 202.173 86.0861 199.738 88.4628C197.304 90.8396 197.32 90.4578 201.806 89.9319C206.015 89.4397 210.241 93.9986 209.154 95.0915C208.064 96.1845 211.701 92.7316 212.35 90.7666C214.762 83.4716 217.648 72.1923 219.808 70.1169C221.968 68.0414 213.728 70.0907 212.603 72.8997V72.8997Z" fill="#163F59"/>
<path d="M217.858 71.4494C217.115 70.4294 216.439 69.8044 215.839 69.4918C214.841 69.8717 213.817 70.3882 213.033 70.9909C212.938 71.2772 212.863 71.5822 212.814 71.9004C212.414 74.4774 212.156 74.6683 211.45 78.4617C210.746 82.2533 212.163 80.5241 210.799 81.9183C209.433 83.3126 210.241 85.5059 210.436 87.9463C210.535 89.1815 210.494 90.8115 210.587 92.0224C211.021 91.4198 211.392 90.8097 211.56 90.3006C213.563 84.2464 215.889 75.4543 217.858 71.4494Z" fill="#161711"/>
<path d="M222.873 75.8754C222.873 75.8754 214.938 77.6177 212.49 82.8709C210.767 86.5633 212.573 88.2214 219.832 96.9237C224.939 103.051 226.238 103.717 227.105 106.26C227.969 108.806 229.949 112.328 230.206 113.63C230.462 114.933 232.062 112.771 231.686 110.759C231.308 108.75 229.528 106.178 229.979 104.758C230.428 103.335 230.449 102.229 228.933 101.151C225.417 98.653 224.851 93.8021 224.303 91.4198C223.755 89.0392 222.005 86.6438 221.532 85.9963C221.06 85.3487 228.147 85.5321 229.618 81.9745C231.089 78.4149 222.875 75.8754 222.875 75.8754H222.873Z" fill="#F7B68B"/>
<path d="M211.74 83.612C211.74 83.612 213.752 77.3257 218.603 79.3413C223.133 81.2259 227.425 83.5016 226.959 86.494C226.854 87.1678 230.378 84.4448 232.437 80.8029C233.868 78.2727 234.205 75.3382 232.596 73.1374C230.988 70.9366 230.535 69.6378 230.762 68.1799C230.988 66.722 217.469 69.2934 215.664 69.8174C213.86 70.3396 215.664 70.828 214.398 73.5229C213.797 74.8067 213.097 74.8685 211.738 83.612H211.74Z" fill="#163F59"/>
<path d="M233.563 77.6813C233.823 76.0662 233.567 74.468 232.596 73.1374C230.988 70.9366 229.457 69.6378 229.684 68.1799C229.91 66.722 217.467 69.2934 215.664 69.8174C215.548 69.8511 212.651 69.5741 212.535 69.6172C211.961 70.9216 212.839 74.3145 214.004 73.2983C214.124 73.3732 214.25 73.4518 214.397 73.5229C214.775 73.7119 215.06 73.9047 215.285 74.1031C216.615 73.1917 218.99 71.9247 222.894 73.6502C227.002 75.4636 229.145 86.8346 233.563 77.6832V77.6813Z" fill="#161711"/>
<path d="M181.125 13.2581C181.125 13.2581 179.341 13.8831 178.347 13.2019C177.352 12.5188 174.998 10.6829 174.266 10.5257C173.532 10.3685 174.213 9.37291 175.157 9.95119C176.1 10.5276 178.299 10.2188 178.145 8.85452C177.99 7.49396 176.371 3.19708 177.107 2.30439C177.84 1.41544 178.252 6.70795 179.038 7.75597C179.822 8.80399 179.927 7.96744 180.558 6.60502C181.188 5.24446 182.345 0.999979 182.345 0.999979C182.345 0.999979 183.341 0.89892 183.077 2.20707C182.815 3.51523 183.286 2.62628 183.653 2.57388C184.022 2.52148 181.763 6.91755 181.918 8.28185C182.074 9.64427 182.021 9.79961 182.598 9.6424C183.174 9.48707 184.643 8.49332 185.218 8.33612C185.794 8.17892 186.004 8.33612 186.056 8.7048C186.107 9.0716 181.915 10.9 181.915 11.424C181.915 11.948 181.127 13.2562 181.127 13.2562L181.125 13.2581Z" fill="#F7B68B"/>
<path d="M249.691 58.9181C249.691 58.9181 251 58.658 249.8 56.2475C248.597 53.8371 247.03 51.2151 247.03 51.2151C247.03 51.2151 247.919 50.9026 248.389 52.1078C248.861 53.3131 250.062 55.2014 250.534 55.6206C251.005 56.0398 249.699 51.8496 248.862 50.6949C248.026 49.5421 249.491 50.3823 249.909 51.2189C250.328 52.0573 251.061 53.2625 251.739 54.3648C252.416 55.4671 252.789 52.7965 251.847 50.6462C250.908 48.4978 251.325 48.8103 251.325 48.8103C251.325 48.8103 253.159 49.0761 253.049 52.0105C252.94 54.9431 254.247 57.3011 254.194 58.2444C254.14 59.1876 255.555 59.137 255.974 58.9274C256.393 58.7178 258.905 59.822 257.597 60.3441C256.287 60.8663 252.882 60.0765 251.677 60.5444C250.472 61.0141 249.69 58.9181 249.69 58.9181H249.691Z" fill="#F7B68B"/>
<path d="M205.467 27.0413C198.221 22.5479 197.195 23.2965 194.474 20.8711C192.589 19.1924 190.57 16.1531 186.623 14.4445C182.62 12.7096 181.207 11.8431 179.714 10.1663C179.468 9.88932 178.424 11.2443 180.103 13.1775C182.79 16.2748 189.058 20.7887 191.12 22.0183C194.47 24.0133 201.692 29.5734 203.154 31.9857C204.619 34.398 207.87 30.2902 205.467 27.0394V27.0413Z" fill="#F7B68B"/>
<path d="M231.128 50.9587C231.128 50.9587 235.504 52.2481 239.898 55.2911C244.292 58.336 247.539 60.1195 248.795 61.0646C250.051 62.0097 254.662 60.2337 251.522 58.6579C248.381 57.084 243.671 53.4103 241.47 52.6748C239.273 51.9375 235.82 47.1128 233.936 45.96C232.051 44.8053 231.125 50.9587 231.125 50.9587H231.128Z" fill="#F7B68B"/>
<path d="M221.376 37.5627C221.376 37.5627 228.08 39.9806 230.069 41.3449C232.059 42.7092 236.243 46.905 236.243 46.905C236.243 46.905 234.589 53.8444 233.193 55.4913C233.05 55.6616 232.027 56.0397 231.087 54.6772C231.087 54.6772 228.896 56.8481 228.579 59.8874C228.261 62.9229 233.384 71.6271 233.172 73.8261C232.959 76.0269 230.767 70.0513 223.847 72.9764C216.928 75.9015 210.743 78.7237 209.069 75.8922C207.398 73.0606 209.812 69.5011 209.084 65.9397C208.356 62.3764 208.901 45.6137 209.112 42.3667C209.326 39.1216 204.091 35.9701 202.626 34.6076C201.163 33.2415 202.527 32.826 202.424 29.4723C202.323 26.1206 203.056 24.4456 203.689 24.1312C204.316 23.8187 217.605 37.3493 221.376 37.5646V37.5627Z" fill="#FCBA19"/>
<path d="M221.505 28.4862C221.505 28.4862 213.088 27.9435 210.602 26.3004C208.119 24.6572 212.199 24.0247 211.938 20.2462C211.676 16.4658 212.543 6.58636 215.543 11.8452C218.543 17.104 216.02 19.6136 215.738 16.9225C215.455 14.2332 212.824 7.30313 220.545 7.03551C228.267 6.76789 231.405 11.4016 225.265 14.4259C219.123 17.4502 232.163 6.97188 232.356 12.0492C232.551 17.1264 227.983 16.9954 226.427 17.0909C224.874 17.1863 232.218 12.6742 231.903 18.079C231.587 23.4819 227.254 26.248 221.507 28.4844L221.505 28.4862Z" fill="#212A54"/>
<path d="M216.997 29.4238C216.997 29.4238 218.251 36.9471 216.844 38.6857C215.775 40.0032 214.704 39.7992 215.169 41.3637C215.829 43.5983 218.513 44.8653 224.541 41.6744C226.259 40.7649 221.79 40.6919 222.699 32.2179C223.15 28.0239 216.997 29.4238 216.997 29.4238Z" fill="#F7B68B"/>
<path d="M217.257 37.7705C217.835 35.5959 217.27 31.2597 217.064 29.8673C218.114 29.6016 219.256 29.3658 220.263 29.2834C221.651 29.5043 222.911 30.2379 222.697 32.2198C222.555 33.5392 222.546 34.6545 222.621 35.6015C220.976 37.3289 218.146 37.7013 217.257 37.7724V37.7705Z" fill="#EC9568"/>
<path d="M225.866 16.6042C225.866 16.6042 227.589 20.3265 227.241 26.4874C226.893 32.6501 224 34.5665 218.848 33.9133C213.696 33.2621 212.706 27.2266 212.751 25.7257C212.794 24.2248 208.083 25.5872 209.021 22.1119C209.957 18.6366 212.09 19.868 212.384 21.2098C212.678 22.5536 213.628 24.2491 214.663 23.1112C215.698 21.9734 213.35 16.7333 215.831 17.4744C218.311 18.2136 222.621 19.1756 225.868 16.6023L225.866 16.6042Z" fill="#F7B68B"/>
<path d="M161.658 115.857C161.658 115.857 162.24 119.894 162.837 121.826C163.432 123.757 164.021 125.097 164.068 126.704C164.117 128.312 158.553 124.988 158.111 123.836C157.67 122.685 158.353 119.312 156.552 116.217C154.756 113.121 161.66 115.856 161.66 115.856L161.658 115.857Z" fill="#F7B68B"/>
<path d="M143.944 76.5434C143.944 76.5434 160.234 88.3168 161.504 90.9256C162.773 93.5326 161.755 111.109 161.942 115.938C161.982 116.954 157.312 117.203 156.257 116.224C155.201 115.245 152.263 104.045 152.007 101.265C151.724 98.1944 152.903 94.8857 152.213 94.3785C150.758 93.3099 135.656 85.3524 133.728 83.2545C131.806 81.1528 126.469 74.0656 127.601 72.4393C128.737 70.813 143.943 76.5453 143.943 76.5453L143.944 76.5434Z" fill="#F99B1C"/>
<path d="M157.716 119.319C157.716 119.319 156.173 120.513 155.721 121.09C155.269 121.664 154.389 122.121 154.789 122.931C155.192 123.742 157.032 125.684 158.139 128.417C159.245 131.151 161.532 134.54 163.256 135.899C164.98 137.257 167.897 137.692 168.15 136.711C168.401 135.732 167.167 133.994 166.499 133.275C165.833 132.558 164.216 125.396 164.038 124.299C163.862 123.201 163.372 122.57 162.455 122.832C161.536 123.094 160.456 123.147 159.354 121.868C158.252 120.59 157.718 119.319 157.718 119.319H157.716Z" fill="#0063CB"/>
<path d="M159.354 121.868C160.456 123.147 161.536 123.094 162.455 122.832C163.374 122.57 163.862 123.201 164.038 124.3C164.214 125.398 165.831 132.558 166.499 133.275C167.166 133.994 168.401 135.732 168.15 136.711C168.137 136.76 168.116 136.801 168.092 136.842C167.087 137.031 165.159 136.492 163.87 135.457C162.131 134.059 159.792 130.612 158.637 127.848C157.484 125.084 155.619 123.098 155.203 122.278C155.1 122.076 155.076 121.897 155.104 121.732C155.308 121.517 155.547 121.313 155.722 121.092C156.174 120.515 157.717 119.321 157.717 119.321C157.717 119.321 158.25 120.592 159.352 121.87L159.354 121.868Z" fill="#0253A2"/>
<path d="M145.775 82.0193C146.54 81.5402 147.835 80.4903 148.52 79.9214C153.44 83.6119 160.675 89.2207 161.506 90.9256C162.775 93.5326 161.757 111.109 161.944 115.938C161.959 116.325 161.287 116.6 160.391 116.741C160.088 114.959 159.755 112.76 159.128 111.287C157.943 108.514 157.466 103.754 156.721 99.6822C155.974 95.6099 158.271 93.1919 156.319 91.4983C154.365 89.8027 144.697 82.6949 145.777 82.0212L145.775 82.0193Z" fill="#FFAA00"/>
<path d="M140.039 105.076C140.039 105.076 136.876 108.048 136.434 109.311C135.993 110.574 135.613 111.416 134.563 110.872C133.511 110.327 132.527 106.93 133.015 106.038C133.503 105.143 136.674 103.547 137.432 102.13C138.193 100.711 139.924 105.656 139.924 105.656L140.037 105.076H140.039Z" fill="#F7B68B"/>
<path d="M135.427 103.889C135.427 103.889 133.717 104.223 132.766 104.09C131.815 103.957 130.301 104.492 129.998 106.313C129.695 108.136 129.208 111.817 128.621 114.072C128.035 116.325 129.244 120.57 129.63 121.466C130.249 122.892 132.341 123.409 133.069 122.466C133.797 121.522 133.958 118.391 134.295 116.847C134.636 115.305 136.53 110.453 136.735 109.859C136.941 109.268 135.498 107.501 134.696 108.085C133.895 108.669 133.511 107.672 133.638 107.12C133.764 106.566 135.429 103.891 135.429 103.891L135.427 103.889Z" fill="#0063CB"/>
<path d="M130.846 106.326C131.087 104.876 132.098 104.243 132.98 104.112C133.193 104.125 133.436 104.123 133.679 104.11C134.157 104.164 134.799 104.114 135.328 104.048C134.973 104.63 133.745 106.646 133.636 107.119C133.511 107.673 133.893 108.669 134.694 108.085C134.698 108.081 134.699 108.083 134.699 108.083C134.883 108.293 135.162 108.37 135.536 108.104C136.217 108.463 136.878 109.446 136.734 109.859C136.528 110.452 134.634 115.305 134.293 116.847C133.956 118.391 133.795 121.522 133.067 122.465C132.888 122.697 132.624 122.842 132.321 122.905C131.576 122.754 130.812 122.248 130.479 121.479C130.092 120.583 128.885 116.34 129.471 114.085C130.056 111.832 130.545 108.147 130.846 106.328V106.326Z" fill="#0253A2"/>
<path d="M134.02 73.5698C137.838 74.543 155.761 77.5186 157.735 80.2453C159.708 82.9702 154.136 88.025 140.596 87.7331C127.058 87.4411 124.801 86.0356 121.698 80.9677C118.594 75.8979 131.172 72.8437 134.02 73.5717V73.5698Z" fill="#FCBA19"/>
<path d="M151.071 83.8554C151.071 83.8554 142.868 87.8172 140.828 93.9257C138.787 100.034 136.741 102.596 136.741 102.596L139.928 105.658C139.928 105.658 155.577 91.01 157.262 87.6975C158.948 84.3887 159.582 80.5354 156.938 80.4998C154.295 80.4624 151.073 83.8572 151.073 83.8572L151.071 83.8554Z" fill="#FCBA19"/>
<path d="M139.951 105.633C139.938 105.648 139.928 105.656 139.928 105.656L137.144 102.98L139.953 105.632L139.951 105.633Z" fill="#89D5DA"/>
<path d="M152.512 85.5489C149.403 87.4222 144.089 89.6156 141.646 95.1719C139.567 99.9049 137.658 102.356 137.136 102.98L136.739 102.596C136.739 102.596 138.785 100.034 140.827 93.9255C142.866 87.8152 151.073 84.746 151.073 84.746C151.073 84.746 154.423 84.3942 152.512 85.5489V85.5489Z" fill="#FFAA00"/>
<path d="M134.02 73.5698C134.174 73.6091 134.355 73.6521 134.555 73.6989C132.804 74.0002 130.53 74.4138 129.607 74.6983C128.013 75.1867 128.048 76.7176 130.693 78.1156C133.339 79.5135 143.396 82.2609 146.402 82.0756C149.411 81.8903 154.737 82.1336 154.041 83.3145C153.783 83.7505 151.921 83.962 151.475 84.4149C149.667 85.1354 149.173 87.2071 146.334 87.5122C144.613 87.6956 142.702 87.7798 140.596 87.733C127.058 87.4411 124.801 86.0356 121.698 80.9677C120.551 79.0981 119.956 77.2528 119.832 75.4207C119.625 72.2841 131.172 72.8436 134.018 73.5716L134.02 73.5698Z" fill="#FFAA00"/>
<path d="M128.254 37.2147C128.254 37.2147 128.729 38.6276 131.92 38.7605C135.113 38.8934 138.727 35.3264 137.675 28.5442C136.623 21.7639 141.412 21.9622 140.561 16.8157C139.706 11.6673 136.631 8.75344 133.037 11.8582C129.444 14.9611 126.48 15.7677 128.007 17.4558C129.538 19.1457 134.069 19.1026 133.633 16.7596C133.198 14.4184 120.603 4.53329 113.741 8.03667C109.115 10.4003 108.514 12.0023 111.001 16.2861C112.814 19.4077 113.146 22.4151 108.785 24.79C103.167 27.848 105.441 29.5903 107.737 30.7881C111.128 32.5547 116.164 33.2285 115.487 36.685C114.811 40.1416 122.829 39.5446 128.256 37.2147H128.254Z" fill="#212A54"/>
<path d="M133.341 43.0872C131.475 42.0729 129.903 41.242 129.487 39.8777C128.677 37.2146 130.644 34.763 130.644 34.763C130.644 34.763 122.791 30.6401 123.77 33.2845C124.751 35.9289 126.596 41.7454 123.349 41.9326C122.647 41.9719 122.117 42.0823 121.7 42.2601C123.257 46.2837 125.868 48.885 128.525 48.5912C130.709 48.3517 132.435 46.2107 133.339 43.0872H133.341Z" fill="#F7B68B"/>
<path d="M129.89 40.6618C128.149 39.9656 126.527 39.0411 125.067 37.9164C124.812 36.2601 124.208 34.4598 123.772 33.2845C122.793 30.6401 130.646 34.763 130.646 34.763C130.646 34.763 128.679 37.2165 129.489 39.8777C129.575 40.1603 129.712 40.4185 129.89 40.66V40.6618Z" fill="#EC9568"/>
<path d="M128.922 14.4839C128.922 14.4839 145.09 35.5584 129.358 35.594C122.995 35.609 122.185 32.9459 121.3 31.1511C120.411 29.3564 118.541 32.6595 117.62 28.9784C116.696 25.2953 117.905 25.3328 119.791 26.8449C121.681 28.3571 122.265 27.4325 122.136 24.6946C122.005 21.9548 119.381 21.558 124.481 20.9947C129.579 20.4314 131.241 18.3559 128.922 14.4839V14.4839Z" fill="#F7B68B"/>
<path d="M82.7699 26.9646L79.843 27.2528C79.843 27.2528 76.2385 26.2235 75.6715 26.6745C75.1026 27.1274 78.299 28.1099 78.299 28.1099L82.551 28.9034L82.7718 26.9646H82.7699Z" fill="#EC9568"/>
<path d="M82.5173 28.2785L79.5903 28.5667C79.5903 28.5667 75.9859 27.5374 75.417 27.9903C74.8499 28.4413 78.0464 29.4238 78.0464 29.4238L82.2965 30.2173L82.5173 28.2785Z" fill="#EC9568"/>
<path d="M84.5853 26.4464L81.6583 26.7327C81.6583 26.7327 78.0539 25.7034 77.4849 26.1563C76.916 26.6092 80.1162 27.5917 80.1162 27.5917L84.3663 28.3852L84.5853 26.4464V26.4464Z" fill="#EC9568"/>
<path d="M89.874 27.2022C89.874 27.2022 89.3519 24.9733 85.8298 24.5728C82.3096 24.1723 79.4668 24.6252 81.7107 25.3476C83.9546 26.0662 83.2247 25.6732 81.7743 27.5241L80.3239 29.375C80.3239 29.375 77.8237 29.5547 77.0227 29.7736C76.2217 29.9926 76.2872 30.7767 76.2872 30.7767L80.6084 30.9583C80.6084 30.9583 84.1324 29.9626 85.2047 30.0843C86.2752 30.2059 88.7568 31.574 88.7568 31.574L89.8721 27.2041L89.874 27.2022Z" fill="#F7B68B"/>
<path d="M159.627 20.1375L162.363 19.0614C162.363 19.0614 165.103 16.505 165.816 16.6472C166.529 16.7913 164.13 19.1213 164.13 19.1213L160.705 21.7638L159.627 20.1375V20.1375Z" fill="#EC9568"/>
<path d="M160.451 21.1931L163.189 20.1151C163.189 20.1151 165.928 17.5587 166.641 17.7028C167.353 17.8469 164.955 20.1768 164.955 20.1768L161.531 22.8175L160.453 21.1912L160.451 21.1931Z" fill="#EC9568"/>
<path d="M157.775 20.5023L160.512 19.4262C160.512 19.4262 163.252 16.8698 163.965 17.0139C164.676 17.158 162.279 19.488 162.279 19.488L158.854 22.1286L157.775 20.5023V20.5023Z" fill="#EC9568"/>
<path d="M154.791 23.5623C154.791 23.5623 153.88 20.669 155.813 19.4002C158.776 17.4576 161.502 16.5499 159.833 18.2137C158.162 19.8774 158.633 19.1943 160.769 20.1824L162.902 21.1706C162.902 21.1706 165.214 20.1937 166.026 20.0234C166.838 19.8549 167.136 20.5811 167.136 20.5811L163.37 22.7089C163.37 22.7089 159.779 23.4276 158.881 24.0227C157.982 24.6197 153.949 25.5348 153.949 25.5348L154.795 23.5642L154.791 23.5623Z" fill="#F7B68B"/>
<path d="M134.261 42.3181C134.261 42.3181 139.749 34.0519 143.705 30.1592C147.659 26.2666 153.773 21.5861 153.773 21.5861C153.773 21.5861 156.743 22.7501 156.26 25.1774C155.78 27.6028 154.554 27.4643 151.209 31.4262C147.867 35.3862 140.198 44.6462 140.368 50.4534C140.535 56.2624 134.396 42.9544 134.261 42.3181Z" fill="#0450CF"/>
<path d="M115.339 43.2725C115.339 43.2725 121.333 41.4722 123.422 41.2963C125.509 41.1203 130.348 45.6044 130.487 46.4409C130.732 47.9156 130.728 40.6805 130.728 40.6805L136.67 41.1484C136.67 41.1484 141.635 44.4815 142.822 56.7096C143.138 59.981 142.728 69.11 144.873 75.5684C145.006 75.9689 140.941 74.9489 139.008 74.7693C126.21 73.5697 123.194 80.6606 122.119 81.3812C116.879 84.8995 119.909 73.0101 119.728 68.3745C119.55 63.9428 118.182 60.1363 116.78 57.9092C115.378 55.6841 120.742 52.1564 115.339 43.2744V43.2725Z" fill="#0561FC"/>
<path d="M116.314 43.7966C116.314 43.7966 105.508 36.9882 102.067 34.5291C98.6231 32.07 89.4754 25.2429 89.4754 25.2429C89.4754 25.2429 87.3326 29.5473 87.6021 30.818C87.8715 32.0887 102.589 44.5115 109.472 49.426C116.357 54.3423 116.615 59.3335 117.641 57.5893C118.667 55.8451 120.13 50.2232 116.314 43.7947V43.7966Z" fill="#0450CF"/>
</svg>
